<svg width="81" height="80" viewBox="0 0 81 80" fill="none" xmlns="http://www.w3.org/2000/svg">
<path fill-rule="evenodd" clip-rule="evenodd" d="M46.4591 9.96C46.4591 13.2516 43.7907 15.92 40.4991 15.92C37.2074 15.92 34.5391 13.2516 34.5391 9.96C34.5391 6.66838 37.2074 4 40.4991 4C43.7907 4 46.4591 6.66838 46.4591 9.96ZM40.5 61.32C25.27 61.32 15.15 58.07 10.75 54.06V76H8.25V49.37C8.25 45.81 12.52 42.11 20.67 39.79V42.45C14.44 44.3 10.75 46.91 10.75 49.37C10.75 52.43 16.45 55.72 25.66 57.5V34.28H28.16V57.93C31.5 58.44 35.23 58.76 39.25 58.81V20.92H41.75V58.81C45.77 58.76 49.5 58.44 52.84 57.93V34.25H55.34V57.5C64.54 55.72 70.25 52.43 70.25 49.37C70.25 46.91 66.56 44.3 60.33 42.45V39.79C68.48 42.11 72.75 45.81 72.75 49.37V76H70.25V54.06C65.85 58.06 55.73 61.32 40.5 61.32ZM55.0448 29.1655C58.2939 28.6381 60.5003 25.5767 59.9729 22.3276C59.4455 19.0785 56.384 16.8721 53.135 17.3995C49.8859 17.9269 47.6795 20.9884 48.2069 24.2375C48.7343 27.4866 51.7957 29.6929 55.0448 29.1655ZM29.1949 17.7867C32.2359 19.0464 33.68 22.5328 32.4204 25.5738C31.1607 28.6149 27.6743 30.059 24.6333 28.7993C21.5922 27.5397 20.1481 24.0533 21.4077 21.0122C22.6674 17.9712 26.1538 16.5271 29.1949 17.7867Z" fill="#222222"/>
</svg>
