<svg width="184" height="313" viewBox="0 0 184 313" fill="none" xmlns="http://www.w3.org/2000/svg">
<mask id="mask0_4135_44431" style="mask-type:luminance" maskUnits="userSpaceOnUse" x="35" y="119" width="282" height="260">
<path d="M316.668 165.341L35.4011 119.295L210.416 378.449L316.668 165.341Z" fill="white"/>
</mask>
<g mask="url(#mask0_4135_44431)">
<path d="M363.688 140.027L364.988 131.426L20.7554 79.4017L19.4556 88.0025L363.688 140.027Z" fill="#FFDFAA"/>
<path d="M360.267 162.676L361.566 154.075L17.3335 102.051L16.0337 110.652L360.267 162.676Z" fill="#FFDFAA"/>
<path d="M356.845 185.277L358.145 176.676L13.9116 124.651L12.6118 133.252L356.845 185.277Z" fill="#FFDFAA"/>
<path d="M350.017 230.541L351.316 221.941L7.08354 169.916L5.7837 178.517L350.017 230.541Z" fill="#FFDFAA"/>
<path d="M353.438 207.912L354.738 199.311L10.5054 147.287L9.20554 155.888L353.438 207.912Z" fill="#FFDFAA"/>
<path d="M346.587 253.174L347.887 244.573L3.65385 192.549L2.35401 201.149L346.587 253.174Z" fill="#FFDFAA"/>
<path d="M343.667 272.526L344.967 263.925L0.7339 211.9L-0.56594 220.501L343.667 272.526Z" fill="#FFDFAA"/>
<path d="M340.224 295.152L341.523 286.551L-2.70943 234.527L-4.00927 243.127L340.224 295.152Z" fill="#FFDFAA"/>
<path d="M336.802 317.772L338.102 309.172L-6.13133 257.147L-7.43117 265.748L336.802 317.772Z" fill="#FFDFAA"/>
<path d="M333.392 340.408L334.691 331.807L-9.54146 279.783L-10.8413 288.383L333.392 340.408Z" fill="#FFDFAA"/>
<path d="M329.974 363.037L331.273 354.436L-12.9594 302.412L-14.2593 311.013L329.974 363.037Z" fill="#FFDFAA"/>
</g>
</svg>
