<svg width="136" height="40" viewBox="0 0 136 40" fill="none" xmlns="http://www.w3.org/2000/svg">
<path d="M131.5 0.5H4.50006C2.29092 0.5 0.500061 2.29086 0.500061 4.5V35.5C0.500061 37.7091 2.29092 39.5 4.50006 39.5H131.5C133.709 39.5 135.5 37.7091 135.5 35.5V4.5C135.5 2.29086 133.709 0.5 131.5 0.5Z" stroke="white"/>
<path fill-rule="evenodd" clip-rule="evenodd" d="M8.69456 32.4521C8.40356 32.1441 8.23156 31.6661 8.23156 31.0471V31.1931C8.23156 31.8121 8.40356 32.2901 8.69456 32.5981L8.76856 32.5241L8.69456 32.4521Z" fill="white"/>
<path fill-rule="evenodd" clip-rule="evenodd" d="M30.2739 21.4325L25.2879 24.2655L25.3809 24.3585L30.2739 21.5785C30.9729 21.1815 31.3219 20.6585 31.3219 20.1355C31.2629 20.6085 30.9079 21.0725 30.2739 21.4325Z" fill="white"/>
<path fill-rule="evenodd" clip-rule="evenodd" d="M21.4688 19.3814L25.1848 15.6424L11.0418 7.6054C10.3908 7.2364 9.80776 7.2034 9.35976 7.4154L21.4688 19.3814Z" fill="white"/>
<path fill-rule="evenodd" clip-rule="evenodd" d="M8.67246 8.1423C8.56546 8.4023 8.50046 8.7093 8.50046 9.0723V31.1883C8.50046 31.5963 8.58146 31.9363 8.71546 32.2133L20.7635 20.0903L8.67246 8.1423Z" fill="white"/>
<path fill-rule="evenodd" clip-rule="evenodd" d="M21.4752 20.7934L9.44716 32.8954C9.88216 33.0604 10.4352 32.9984 11.0412 32.6544L25.2872 24.5604L21.4752 20.7934Z" fill="white"/>
<path fill-rule="evenodd" clip-rule="evenodd" d="M30.5426 18.6867L26.0856 16.1547L22.1796 20.0837L26.1906 24.0467L30.5426 21.5747C31.9406 20.7797 31.9406 19.4807 30.5426 18.6867Z" fill="white"/>
<path fill-rule="evenodd" clip-rule="evenodd" d="M105.195 30.1341H107.061V17.6331H105.195V30.1341ZM122.002 22.1361L119.863 27.5561H119.799L117.579 22.1361H115.569L118.898 29.7111L117 33.9251H118.946L124.077 22.1361H122.002ZM111.42 28.7141C110.808 28.7141 109.956 28.4081 109.956 27.6521C109.956 26.6871 111.017 26.3171 111.934 26.3171C112.754 26.3171 113.14 26.4941 113.639 26.7361C113.494 27.8931 112.497 28.7141 111.42 28.7141ZM111.645 21.8621C110.294 21.8621 108.894 22.4571 108.315 23.7761L109.972 24.4681C110.326 23.7761 110.985 23.5511 111.677 23.5511C112.642 23.5511 113.623 24.1301 113.639 25.1591V25.2881C113.301 25.0951 112.577 24.8051 111.693 24.8051C109.908 24.8051 108.09 25.7871 108.09 27.6201C108.09 29.2931 109.554 30.3701 111.194 30.3701C112.449 30.3701 113.14 29.8071 113.575 29.1481H113.639V30.1131H115.44V25.3201C115.44 23.1011 113.784 21.8621 111.645 21.8621ZM100.113 23.6581H97.4593V19.3721H100.113C101.508 19.3721 102.3 20.5271 102.3 21.5151C102.3 22.4841 101.508 23.6581 100.113 23.6581ZM100.065 17.6321H95.5943V30.1341H97.4593V25.3971H100.065C102.133 25.3971 104.166 23.9001 104.166 21.5151C104.166 19.1301 102.133 17.6321 100.065 17.6321ZM75.6842 28.7161C74.3952 28.7161 73.3163 27.6371 73.3163 26.1541C73.3163 24.6561 74.3952 23.5611 75.6842 23.5611C76.9572 23.5611 77.9553 24.6561 77.9553 26.1541C77.9553 27.6371 76.9572 28.7161 75.6842 28.7161ZM77.8263 22.8361H77.7623C77.3433 22.3361 76.5383 21.8851 75.5233 21.8851C73.3963 21.8851 71.4473 23.7541 71.4473 26.1541C71.4473 28.5391 73.3963 30.3921 75.5233 30.3921C76.5383 30.3921 77.3433 29.9411 77.7623 29.4251H77.8263V30.0371C77.8263 31.6641 76.9573 32.5341 75.5553 32.5341C74.4113 32.5341 73.7023 31.7131 73.4123 31.0201L71.7853 31.6971C72.2523 32.8241 73.4933 34.2101 75.5553 34.2101C77.7463 34.2101 79.5993 32.9211 79.5993 29.7791V22.1431H77.8263V22.8361ZM80.8873 30.1341H82.7563V17.6321H80.8873V30.1341ZM85.5113 26.0101C85.4633 24.3661 86.7843 23.5291 87.7343 23.5291C88.4763 23.5291 89.1043 23.8991 89.3133 24.4311L85.5113 26.0101ZM91.3113 24.5921C90.9573 23.6411 89.8773 21.8851 87.6702 21.8851C85.4792 21.8851 83.6593 23.6091 83.6593 26.1381C83.6593 28.5231 85.4633 30.3921 87.8793 30.3921C89.8293 30.3921 90.9573 29.1991 91.4243 28.5071L89.9743 27.5401C89.4902 28.2491 88.8303 28.7161 87.8793 28.7161C86.9293 28.7161 86.2523 28.2811 85.8173 27.4271L91.5043 25.0751L91.3113 24.5921ZM46.0033 23.1901V24.9951H50.3203C50.1913 26.0101 49.8533 26.7511 49.3383 27.2661C48.7093 27.8951 47.7263 28.5871 46.0033 28.5871C43.3443 28.5871 41.2663 26.4451 41.2663 23.7861C41.2663 21.1281 43.3443 18.9851 46.0033 18.9851C47.4373 18.9851 48.4843 19.5491 49.2573 20.2741L50.5303 19.0011C49.4503 17.9711 48.0173 17.1811 46.0033 17.1811C42.3623 17.1811 39.3013 20.1451 39.3013 23.7861C39.3013 27.4271 42.3623 30.3921 46.0033 30.3921C47.9683 30.3921 49.4503 29.7471 50.6103 28.5391C51.8023 27.3471 52.1733 25.6711 52.1733 24.3181C52.1733 23.8991 52.1413 23.5121 52.0763 23.1901H46.0033ZM57.0813 28.7161C55.7933 28.7161 54.6813 27.6531 54.6813 26.1381C54.6813 24.6081 55.7933 23.5611 57.0813 23.5611C58.3703 23.5611 59.4823 24.6081 59.4823 26.1381C59.4823 27.6531 58.3703 28.7161 57.0813 28.7161ZM57.0813 21.8851C54.7293 21.8851 52.8123 23.6731 52.8123 26.1381C52.8123 28.5871 54.7293 30.3921 57.0813 30.3921C59.4333 30.3921 61.3513 28.5871 61.3513 26.1381C61.3513 23.6731 59.4333 21.8851 57.0813 21.8851ZM66.3953 28.7161C65.1063 28.7161 63.9943 27.6531 63.9943 26.1381C63.9943 24.6081 65.1063 23.5611 66.3953 23.5611C67.6843 23.5611 68.7953 24.6081 68.7953 26.1381C68.7953 27.6531 67.6843 28.7161 66.3953 28.7161ZM66.3953 21.8851C64.0433 21.8851 62.1253 23.6731 62.1253 26.1381C62.1253 28.5871 64.0433 30.3921 66.3953 30.3921C68.7473 30.3921 70.6643 28.5871 70.6643 26.1381C70.6643 23.6731 68.7473 21.8851 66.3953 21.8851Z" fill="white"/>
<path fill-rule="evenodd" clip-rule="evenodd" d="M40.6474 11.856C41.0914 12.306 41.6344 12.53 42.2774 12.53C42.9194 12.53 43.4634 12.306 43.9074 11.856C44.3514 11.406 44.5744 10.832 44.5744 10.134C44.5744 9.436 44.3514 8.861 43.9074 8.412C43.4634 7.962 42.9194 7.737 42.2774 7.737C41.6344 7.737 41.0914 7.962 40.6474 8.412C40.2044 8.861 39.9814 9.436 39.9814 10.134C39.9814 10.832 40.2044 11.406 40.6474 11.856ZM44.4774 12.358C43.8874 12.965 43.1544 13.268 42.2774 13.268C41.4004 13.268 40.6674 12.965 40.0784 12.358C39.4884 11.752 39.1944 11.011 39.1944 10.134C39.1944 9.257 39.4884 8.515 40.0784 7.909C40.6674 7.303 41.4004 7 42.2774 7C43.1494 7 43.8804 7.304 44.4734 7.913C45.0654 8.522 45.3614 9.262 45.3614 10.134C45.3614 11.011 45.0664 11.752 44.4774 12.358Z" fill="white"/>
<path fill-rule="evenodd" clip-rule="evenodd" d="M46.4433 13.1338V7.1338H47.3813L50.2973 11.8008H50.3313L50.2973 10.6448V7.1338H51.0693V13.1338H50.2643L47.2133 8.2398H47.1803L47.2133 9.3968V13.1338H46.4433Z" fill="white"/>
<path fill-rule="evenodd" clip-rule="evenodd" d="M54.4872 13.1338H53.7162V7.8708H52.0402V7.1338H56.1632V7.8708H54.4872V13.1338Z" fill="white"/>
<path fill-rule="evenodd" clip-rule="evenodd" d="M57.9062 12.3965H58.9702C59.6632 12.3965 60.2122 12.1985 60.6172 11.8015C61.0222 11.4045 61.2242 10.8485 61.2242 10.1335C61.2242 9.4245 61.0222 8.8705 60.6172 8.4705C60.2122 8.0715 59.6632 7.8715 58.9702 7.8715H57.9062V12.3965ZM57.1352 13.1335V7.1335H58.9702C59.8922 7.1335 60.6302 7.4115 61.1832 7.9675C61.7362 8.5235 62.0122 9.2455 62.0122 10.1335C62.0122 11.0225 61.7362 11.7445 61.1832 12.2995C60.6302 12.8565 59.8922 13.1335 58.9702 13.1335H57.1352Z" fill="white"/>
<path fill-rule="evenodd" clip-rule="evenodd" d="M66.5961 7.8711H63.8631V9.7731H66.3281V10.4941H63.8631V12.3961H66.5961V13.1341H63.0931V7.1341H66.5961V7.8711Z" fill="white"/>
<path fill-rule="evenodd" clip-rule="evenodd" d="M72.2446 7.1338V7.1668L70.0156 9.7398L72.3946 13.1008V13.1338H71.4486L69.4956 10.3348L68.5736 11.3998V13.1338H67.8036V7.1338H68.5736V10.2258H68.6076L71.2476 7.1338H72.2446Z" fill="white"/>
<path fill-rule="evenodd" clip-rule="evenodd" d="M75.1938 13.1338V7.1338H75.9638V9.7058H78.9638V7.1338H79.7358V13.1338H78.9638V10.4268H75.9638V13.1338H75.1938Z" fill="white"/>
<path fill-rule="evenodd" clip-rule="evenodd" d="M84.6137 7.8711H81.8817V9.7731H84.3447V10.4941H81.8817V12.3961H84.6137V13.1341H81.1107V7.1341H84.6137V7.8711Z" fill="white"/>
<path fill-rule="evenodd" clip-rule="evenodd" d="M87.8656 13.1338H87.0946V7.8708H85.4186V7.1338H89.5416V7.8708H87.8656V13.1338Z" fill="white"/>
<path fill-rule="evenodd" clip-rule="evenodd" d="M93.517 11.856C93.961 12.306 94.504 12.53 95.147 12.53C95.789 12.53 96.333 12.306 96.777 11.856C97.221 11.406 97.444 10.832 97.444 10.134C97.444 9.436 97.221 8.861 96.777 8.412C96.333 7.962 95.789 7.737 95.147 7.737C94.504 7.737 93.961 7.962 93.517 8.412C93.074 8.861 92.851 9.436 92.851 10.134C92.851 10.832 93.074 11.406 93.517 11.856ZM97.347 12.358C96.757 12.965 96.024 13.268 95.147 13.268C94.27 13.268 93.537 12.965 92.948 12.358C92.358 11.752 92.064 11.011 92.064 10.134C92.064 9.257 92.358 8.515 92.948 7.909C93.537 7.303 94.27 7 95.147 7C96.019 7 96.75 7.304 97.343 7.913C97.935 8.522 98.231 9.262 98.231 10.134C98.231 11.011 97.936 11.752 97.347 12.358Z" fill="white"/>
<path fill-rule="evenodd" clip-rule="evenodd" d="M100.082 9.9658H101.373C101.697 9.9658 101.957 9.8578 102.152 9.6398C102.348 9.4218 102.445 9.1818 102.445 8.9188C102.445 8.6568 102.348 8.4158 102.152 8.1978C101.957 7.9798 101.697 7.8708 101.373 7.8708H100.082V9.9658ZM100.082 13.1338H99.3114V7.1338H101.357C101.864 7.1338 102.305 7.3028 102.676 7.6408C103.048 7.9788 103.233 8.4048 103.233 8.9188C103.233 9.4328 103.048 9.8588 102.676 10.1958C102.305 10.5348 101.864 10.7038 101.357 10.7038H100.082V13.1338Z" fill="white"/>
</svg>
