<?xml version="1.0" encoding="UTF-8"?>
<svg id="Layer_1" data-name="Layer 1" xmlns="http://www.w3.org/2000/svg" viewBox="0 0 280 190">
  <defs>
    <style>
      .cls-1, .cls-2 {
        fill-rule: evenodd;
      }

      .cls-2 {
        fill: none;
      }
    </style>
  </defs>
  <path class="cls-2" d="M-.16,140.23v-7.18c.15,0,.26-.06.35-.17.07-.08.18-.16.08-.26-.09-.1-.19-.03-.29.02-.05.02-.1.05-.14.07v-30.91c.07.04.14.08.22.12.14.08.3.23.42.01.11-.2.12-.45-.15-.56-.15-.06-.32-.06-.48-.08V.21h35.87c-.02.36-.56.62-.19,1.09.28-.33.2-.75.36-1.09h244.12v189.79H-.16v-49.44c.05,0,.11-.02.16-.03.11-.01.24-.01.24-.15,0-.16-.15-.12-.24-.13-.05-.01-.11-.01-.16-.02ZM170.8,121.08c-.1-.05-.21-.06-.3.01-.12.09-.19.23-.07.34.17.16.29.03.36-.13.03-.07,0-.16,0-.24.03-.05.05-.09.08-.14.06-.08.16-.16.03-.27-.02-.01-.05-.01-.07,0-.13.06-.11.17-.08.28.01.05.04.1.05.15ZM219.85,154.85c-.23.09-.33-.39-.62-.16.17.32.41.19.64.15-.24.46.03.73.34,1.08.22-.53-.21-.75-.36-1.07ZM134.19,148.81c.21.05.45.16.58-.09.1-.19.14-.43-.13-.56-.26.14-.32.42-.45.65.08.09.07.2.06.31,0,.08-.02.17.11.16.03,0,.05-.02.07-.04.08-.07.06-.14,0-.21-.08-.08-.16-.15-.24-.22ZM178.33,109.78v-.03c.1.2-.04.61.29.58.24-.02.61-.15.58-.57-.02-.28-.02-.54.19-.77.1-.11.12-.36,0-.45-.15-.11-.34-.06-.52.08-.39.29-.5.7-.54,1.15ZM147.73,182.33c.01-.35-.1-.53-.35-.59-.36-.08-.88.16-.94.48-.06.32-.08.65-.1.98-.02.26.11.41.36.47.32.08.63.2.92-.11.18-.2.35-.4.13-.64-.21-.22-.04-.4,0-.59ZM80.53,86.11c0,.05-.01.11-.02.16-.02.35.12.62.48.64.32.02.28-.34.37-.55.04-.09.06-.24.02-.31-.15-.24-.02-.72-.43-.7-.4.02-.41.42-.42.75ZM85.55,164.56c.07.02.19.1.27,0,.21-.29.42-.59.47-.95.01-.09-.05-.16-.13-.19-.09-.03-.14.03-.21.09-.22.2-.44.4-.78.34-.16-.02-.33.11-.34.29-.01.18.16.29.29.36.11.06.26.04.43.06ZM62.53,35.07c-.02-.1-.03-.26-.07-.41-.04-.15-.15-.23-.31-.18-.12.04-.19.17-.15.26.21.49.11,1.03.25,1.53.04.13.05.3.23.29.19,0,.3-.13.32-.31.02-.22,0-.45-.17-.61-.16-.15-.25-.29-.09-.57ZM107.63,52.92c.04-.07.08-.14.13-.22-.57-.38-1.14-.76-1.71-1.14-.03.05-.07.1-.1.15.38.65,1,.98,1.68,1.21ZM138.68,42.37c-.24-.04-.48-.11-.72-.1-.15,0-.33.11-.3.32.02.16.05.32.26.38.35.1.55-.05.76-.6ZM186.62,171.57h-.66c-.05,0-.11,0-.16.01-.23.06-.35.16-.15.4.36.43.6.35.97-.41ZM271.25,60.32c-.06.39.13.62.29.86.08.12.22.15.36.09.13-.06.09-.17.08-.28-.04-.41-.28-.61-.73-.67ZM125.46,69.74c-.03-.25-.12-.5-.39-.56-.21-.05-.42.14-.4.31.02.23.17.47.44.52.17.03.32-.07.35-.27ZM249.71,18.05c.59.08,1.15.01,1.68-.24.13-.06.25-.17.15-.31-.08-.11-.28-.13-.38-.04-.41.39-.92.5-1.46.59ZM122.29,43.12c0-.22,0-.48-.3-.49-.25,0-.42.17-.43.41-.01.29.2.47.45.5.27.03.23-.25.27-.42ZM186.05,90.2c.22-.29.33-.55.3-.87-.02-.2-.14-.29-.33-.29-.18,0-.22.16-.2.29.05.26-.06.55.22.87ZM250.69,91.79c-.27.26-.55.47-.35.85.08.15.31.17.43.06.32-.27.23-.56-.08-.91ZM168.75,9.88c.4,0,.64-.2.63-.51,0-.12-.06-.22-.19-.23-.11,0-.68.47-.66.56.02.12.1.19.23.17ZM109.14,63.64c-.05-.26-.2-.43-.49-.43-.15,0-.27.11-.24.26.04.23.08.53.37.55.17.01.35-.13.36-.39ZM173.15,70.25c.27.06.52.23.82.14.12-.04.28-.08.27-.25-.02-.17-.18-.22-.3-.18-.25.08-.54.01-.78.29ZM37.76,51.48c-.02-.2-.15-.28-.32-.29-.31-.02-.34.2-.36.43-.02.22.13.27.31.29.32.03.31-.23.38-.43ZM273.24,38.66c-.13-.1-.28-.27-.34-.25-.26.12-.51.28-.62.58-.03.09,0,.16.08.2.11.06.21.04.3-.03.17-.15.35-.3.59-.5ZM89.39,41.42c-.04.56-.09,1.12-.1,1.68.31-.53.48-1.07.1-1.68ZM13.76,25.57c.34-.03.32-.22.29-.42-.02-.13,0-.32-.2-.25-.14.05-.42,0-.37.31.03.2.07.38.27.36ZM50.6,121.1c-.24-.02-.31.1-.3.3,0,.22.09.4.34.36.22-.03.29-.25.3-.43.02-.23-.21-.19-.34-.22ZM2.27,75.71c0-.32-.23-.41-.48-.47-.11-.03-.25.01-.24.14.02.25.09.5.41.51.13,0,.28,0,.31-.18ZM97,100.24q.81.24.71-.54c-.15.36-.45.41-.71.54ZM248.5,47.04c.11-.05.31-.04.29-.21-.03-.2-.1-.46-.35-.46-.22,0-.3.22-.29.41,0,.19.17.25.36.26ZM255.92,106.21c.05-.03.1-.05.15-.08-.14-.28-.27-.57-.42-.85-.05-.11-.15-.16-.27-.12-.14.05-.1.17-.09.27.03.41.44.49.62.77ZM228.56,38.77c-.25.34-.22.63-.15.96.58-.26.42-.56.15-.96ZM36.34,69.05c-.13,0-.24.03-.24.17,0,.25-.13.58.21.7.12.05.24-.1.26-.25.04-.25.03-.49-.23-.62ZM132.39,173.88c.2.02.36.04.51.04.17,0,.44.09.38-.23-.04-.19-.24-.32-.45-.22-.15.07-.39.07-.45.41ZM166.08,49.78c-.02.19-.12.42.18.44.22.02.24-.19.23-.34,0-.2.04-.49-.23-.51-.31-.02-.13.27-.17.42ZM97.64,96.6c.02.18.05.39.25.36.19-.03.29-.24.27-.44-.01-.11,0-.31-.19-.29-.2.02-.32.17-.33.37ZM162.81,161.38c-.08.15-.17.25-.13.41.04.17-.07.41.19.49.06.02.16-.04.21-.08.2-.16-.01-.29-.05-.43-.04-.12.03-.28-.21-.39ZM270.54,105.99q.41.14.85.03-.39-.25-.85-.03ZM159.54,86.14c-.05-.2-.19-.32-.4-.32-.15,0-.14.14-.15.25-.01.18.02.33.26.32.15,0,.25-.07.29-.24ZM257.44,25.1c.04-.37.39-.63.37-1.12-.29.39-.48.71-.37,1.12ZM14.88,65.16c.04.13-.17.4.18.42.22,0,.25-.2.29-.35.06-.21-.11-.31-.27-.34-.17-.04-.24.08-.21.27ZM96.56,91.77c-.02-.13-.09-.23-.2-.22-.24.03-.23.26-.28.43-.03.09.07.16.14.15.2-.03.32-.17.34-.36ZM119.47,172.06c.07-.39.1-.77-.18-1.26-.1.57.11.91.18,1.26ZM184.94,16.35c-.28.16-.27.37-.11.61.05.07.15.11.2.05.13-.17.09-.36.02-.54-.02-.04-.07-.08-.11-.11ZM115.65,161.03c-.22-.16-.44-.32-.72-.15-.07.04-.07.16-.02.22.22.26.45-.02.68,0,.02,0,.04-.03.07-.06ZM102.4,106.98c.76.14.78.12.61-.5q-.13.46-.61.5ZM255.9,100.78c-.23-.05-.38-.08-.39.12,0,.12.11.19.22.21.13.02.27.04.4.02.06,0,.12-.11.13-.18.02-.08-.05-.16-.14-.17-.11-.01-.22,0-.23,0ZM34.5,73.62c-.29.35-.23.66-.24,1.08.38-.34.35-.64.24-1.08ZM154.36,136.34q-.27-.33-.56,0c.19.05.37.05.56,0ZM133.93,5.93c.15.03.25-.04.29-.14.09-.23-.14-.17-.23-.21-.09-.04-.24-.04-.27.08-.03.16.1.23.21.27ZM49.33,51.84s0-.16-.12-.15c-.18,0-.4.04-.39.29,0,.14.14.21.29.21.16,0,.24-.09.22-.35ZM259.83,38.47c.08-.11.28-.14.31-.36,0-.01-.13-.06-.2-.06-.17,0-.31.07-.31.27,0,.08.05.14.2.14ZM149.08,139.75c0-.12-.04-.24-.17-.23-.21.02-.21.2-.24.35-.02.11,0,.24.11.25.26.02.24-.23.3-.38ZM182.65,38.79c-.1.24-.13.45,0,.66.01.02.12.01.14-.02.13-.18.02-.37-.02-.55,0-.02-.04-.03-.13-.1ZM118.41,143.23c.24-.22.41-.33.52-.48.09-.12.03-.27-.11-.34-.19-.09-.24.05-.27.19-.04.16-.07.32-.13.63ZM158.34,138.39c.12-.12.39-.16.35-.45-.02-.12-.15-.16-.26-.15-.23.02-.31.2-.34.4-.01.12.07.2.24.2ZM18.63,156.09c.47,0,.58-.27.67-.61-.37.06-.53.28-.67.61ZM180.25,2.17c.25.42.49.59.74.74-.17-.24-.28-.54-.74-.74ZM36.76,3.12c.32-.08.33-.3.24-.55-.03-.08-.13-.12-.19-.08-.19.12-.14.33-.14.51,0,.04.05.08.09.13ZM241.97,68.55c0-.15-.1-.19-.22-.17-.15.02-.27.07-.21.26.04.11.09.21.22.2.17-.02.2-.15.21-.29ZM57.23,102.38c-.18.18-.31.38-.2.65.01.03.1.08.13.07.26-.16.15-.42.15-.65,0-.02-.04-.04-.07-.07ZM73,16.94c-.19-.21-.4-.32-.68-.15-.07.04-.11.15-.05.21.18.17.4.09.61.07.03,0,.06-.06.13-.13ZM219.08,15.52c.02-.16-.03-.28-.2-.28-.17,0-.21.14-.25.27-.07.2.06.22.2.24.18.02.24-.08.25-.23ZM270.85,33.36c-.26-.16-.44-.32-.63-.06-.07.1-.05.22.04.28.27.18.34-.15.58-.23ZM30.11,37.43c0-.1.02-.24-.13-.24-.22,0-.23.19-.23.35,0,.14.02.32.19.29.21-.03.15-.25.16-.4ZM78.34,23.04c-.06-.02-.11-.04-.17-.07-.12.26-.21.52-.03.85.07-.26.13-.52.2-.78ZM259.56,63.21c-.02-.12-.1-.24-.21-.23-.15.02-.22.16-.21.31,0,.14.13.17.25.15.13-.02.18-.11.17-.24ZM241.71,50.47c-.02-.11-.09-.15-.17-.15-.21,0-.26.17-.27.34,0,.12.05.23.19.19.17-.05.22-.23.25-.38ZM259.07,60.09c-.03-.14-.09-.27-.24-.29-.15-.02-.25.08-.3.22-.06.14.04.22.14.23.14,0,.33.05.39-.16ZM113.01,125.86c.05.45.05.45.4.79-.04-.32-.23-.55-.4-.79ZM67.75,41.96c-.03.08-.06.11-.05.13.05.15.03.34.23.4.04.01.12-.02.14-.05.07-.16-.06-.25-.15-.34-.03-.04-.08-.06-.18-.12ZM118.79,21.01c.1-.35.29-.48.27-.69,0-.05-.04-.1-.07-.19-.21.19-.2.43-.2.87ZM178.38,18.72c.03-.16-.05-.28-.19-.31-.17-.04-.21.15-.22.26-.01.13.05.27.22.27.13,0,.16-.12.19-.22ZM31.58,127.67c.31-.02.49-.17.44-.51-.15.17-.29.34-.44.51ZM75.81,167.02c-.22.4-.3.62,0,.93v-.93ZM124.2,51.46c-.43-.13-.7-.26-1.15.03.43.05.69.18,1.15-.03ZM24.39,106.18c-.02-.14-.11-.17-.23-.15-.08.01-.16.05-.16.15,0,.12.08.2.19.2.12,0,.18-.08.19-.2ZM105.22,8.14c-.1,0-.18.03-.18.12,0,.17.12.23.27.21.07-.01.19-.08.19-.12,0-.17-.19-.15-.28-.21ZM135.24,147.38c0-.12-.09-.19-.19-.22-.16-.04-.27.05-.27.2,0,.1.11.18.22.19.12.01.2-.06.24-.17ZM248.64,90.4c.01-.1.04-.21.03-.32,0-.03-.08-.09-.12-.09-.17.03-.12.15-.07.25.03.06.02.16.15.16ZM5.41,147.9c.11-.02.18-.07.16-.16-.02-.13-.14-.14-.25-.15-.09,0-.17.04-.14.14.03.11.13.16.22.17ZM137.41,97.13c-.01-.11-.06-.22-.18-.22-.11,0-.17.1-.18.21,0,.12.05.21.17.21.12,0,.18-.09.19-.21ZM93.74,138.92c.05-.06.07-.08.08-.1.04-.16.03-.32-.04-.47,0-.02-.12-.02-.14,0-.09.15,0,.31.02.47,0,.02.03.04.08.1ZM133.3,31.85c-.1,0-.15.07-.16.15-.02.18.11.23.25.22.09,0,.13-.09.12-.17-.02-.11-.09-.19-.21-.2ZM132.66,155.14c.13.09.22.26.4.22.03,0,.06-.1.05-.12-.11-.14-.27-.13-.45-.09ZM260.97,49.5c.17-.02.37.27.54-.04-.2-.08-.37-.09-.54.04ZM130.72,57.84c.16,0,.13-.14.15-.23.02-.1.04-.24-.08-.28-.11-.04-.2.05-.22.17-.02.14.02.26.15.34ZM107.09,125.87c-.1.02-.23.03-.22.17.01.13.14.13.24.15.11.01.24,0,.25-.12.02-.19-.15-.17-.27-.19ZM250.72,135.77c-.1,0-.14.08-.16.16-.04.15.03.26.17.32.1.03.15-.02.15-.12,0-.14-.08-.25-.17-.35ZM32.2,129.4c0-.14-.11-.19-.22-.19-.11,0-.24.02-.24.16,0,.14.12.17.23.18.11.01.23.02.23-.14ZM270.09,161.62c.03-.14,0-.25-.11-.29-.12-.03-.2.07-.22.18-.02.13-.04.29.15.31.14.01.15-.13.17-.2ZM169.67,68.51c.12-.11.2-.21.19-.36,0-.09-.09-.13-.18-.11-.16.03-.21.14-.15.29.03.07.09.12.14.18ZM88.17,55.06c-.02-.12-.11-.18-.23-.18-.12,0-.21.08-.2.2,0,.15.1.25.27.22.12-.02.17-.12.17-.23ZM113.16,184.81c-.12.17-.15.35-.01.5.05.06.15,0,.19-.06.1-.21.02-.34-.18-.44ZM109.23,115.46c-.05,0-.08.02-.08.09,0,.1-.03.22.1.27.02,0,.09-.05.1-.09.02-.11-.03-.21-.12-.28ZM194.97,73c-.04-.06-.03-.22-.18-.18-.12.02-.14.15-.13.26,0,.11.05.23.19.2.12-.02.15-.13.13-.27ZM18.06,13.63c.13-.05.24-.13.26-.28.01-.09-.09-.11-.17-.11-.16.01-.23.12-.25.27,0,.09.06.13.15.12ZM119.37,127.91c-.28.09-.28.28-.27.6.16-.25.28-.39.27-.6ZM232.59.93s.05.12.08.12c.19.04.18-.14.23-.24,0-.03-.04-.12-.06-.12-.17-.02-.17.15-.24.24ZM255.05,158.88c-.03-.11-.08-.2-.2-.21-.12-.02-.2.05-.23.16-.03.12.01.21.12.25.17.05.22-.1.3-.19ZM210.26,159.07c-.14.07-.19.19-.15.33.02.08.07.16.17.12.15-.06.16-.2.13-.33-.02-.07-.03-.17-.15-.12ZM241.27,159.4c-.01-.14-.03-.28-.21-.29-.02,0-.07.14-.06.21,0,.1,0,.24.15.25.1,0,.12-.08.12-.16ZM19.9,161.38c0-.07.02-.12,0-.16-.08-.2-.34-.29-.35-.14-.02.24.16.29.35.3ZM64.37,175.28c.03-.12,0-.21-.12-.26-.08-.03-.16,0-.19.09-.04.12.01.21.12.26.08.04.15-.01.18-.09ZM194.46,186.29c.11-.03.2-.09.17-.22-.02-.09-.11-.1-.19-.08-.11.03-.21.08-.18.21.02.09.11.1.19.09ZM29.83,188.38c-.11.11-.28.18-.27.37,0,.02.09.07.13.06.19-.06.21-.22.15-.44ZM219.09,17.63c-.1-.12-.1-.31-.29-.34-.02,0-.07.12-.08.19-.01.16.08.25.23.27.08.01.17,0,.14-.13ZM142.81,24.97c.13.19.3.23.49.2.08-.01.14-.06.12-.17-.19-.06-.38-.16-.61-.03ZM153.04,28.65c-.11.16-.35.19-.25.45.01.03.11.05.14.03.16-.1.18-.25.11-.49ZM73.43,21.76c.12-.06.24-.12.2-.29,0-.02-.1-.04-.14-.02-.13.04-.25.11-.2.28,0,.02.09.02.14.03ZM231.58,43.42c-.01-.1-.03-.21-.17-.21-.12,0-.21.06-.22.18,0,.11.04.22.17.23.12,0,.19-.08.23-.2ZM186.04,48.46c.13-.04.13-.14.1-.25-.03-.11-.09-.21-.22-.18-.14.02-.13.14-.11.25.03.11.08.19.22.18ZM82.13,57.17c.29.4.48.43.79.25-.27-.08-.45-.14-.79-.25ZM125.91,67.6c-.08,0-.16.03-.17.12-.01.14.09.18.2.18.09,0,.24.03.21-.13-.02-.1-.13-.15-.24-.17ZM164.23,120.23c0-.1-.05-.17-.13-.17-.2,0-.29.13-.3.31,0,.09.08.14.17.12.15-.02.24-.1.26-.26ZM251.26,94.99c-.12.02-.18.11-.19.22,0,.09.04.17.14.15.11-.03.19-.11.2-.23,0-.09-.04-.15-.14-.14ZM72.61,122.9c-.02-.1-.03-.23-.16-.23-.17,0-.23.13-.21.27,0,.11.08.21.21.18.12-.02.17-.11.16-.23ZM251.71,126.86c.05.04.14.03.13,0-.03-.13-.04-.28-.18-.34-.03-.01-.12.03-.14.06-.09.19.07.22.19.28ZM8.42,128.27c-.12.04-.13.14-.12.25,0,.08.04.16.13.14.12-.03.14-.14.13-.24,0-.08-.05-.14-.14-.15ZM2.82,129.06c-.11.02-.19.09-.2.2,0,.09.07.15.15.12.06-.02.11-.1.14-.16.03-.07.01-.15-.09-.17ZM159.62,131.69c.04-.31.02-.49-.12-.69-.08.25-.04.42.12.69ZM153.38,134.01c.12-.03.17-.13.21-.23.04-.13-.05-.2-.16-.21-.14-.02-.19.08-.2.2,0,.11.02.21.15.25ZM262.82,135.07s.09-.07.12-.11c.08-.11.25-.32,0-.34-.25-.01-.16.27-.13.45ZM95.87,139.95c.12-.06.23-.13.22-.28,0-.01-.09-.05-.13-.04-.12.03-.25.09-.22.26,0,.03.08.04.13.06ZM101.9,146.39c.06-.09.02-.16-.05-.21-.13-.08-.25-.07-.34.06-.06.08,0,.15.06.2.13.1.24.06.34-.05ZM244.07,2.44c.12-.21.14-.39-.06-.62-.06.23-.21.4.06.62ZM107.54,3.53c-.14-.02-.22.03-.21.13,0,.1.1.14.18.12.07-.02.13-.09.19-.13-.07-.04-.13-.09-.16-.11ZM258.03,180.16c-.01.07-.04.15-.04.22,0,.07.07.07.11,0,.03-.05.04-.1.05-.15,0-.07-.04-.1-.12-.07ZM218.86,10.12s-.11.06-.11.09c-.01.11-.24.28,0,.3.16.02.22-.21.12-.39ZM8.26,11.46c.04-.06.1-.11.13-.19.04-.09-.02-.16-.11-.17-.12-.02-.21.02-.18.17.02.08.05.16.16.18ZM69.23,46.39c0-.13-.05-.23-.16-.26-.1-.04-.13.05-.15.13-.02.12.04.2.15.23.09.03.15-.02.15-.1ZM100.41,181.96c.1,0,.15-.07.15-.15.01-.14-.11-.16-.21-.16-.08,0-.16.04-.15.13,0,.13.1.17.21.17ZM170.97,14.18c-.05-.05-.09-.15-.15-.16-.09-.01-.13.08-.12.16.02.08.08.14.17.12.04,0,.06-.07.1-.12ZM158.02,185.14c-.07.04-.14.09-.09.17.03.06.1.1.14.15.04-.06.1-.12.1-.19,0-.08-.06-.13-.15-.13ZM177.36,76.54c-.03-.17-.16-.25-.29-.32,0,0-.09.08-.08.11.03.17.14.27.3.33.01,0,.05-.07.08-.12ZM29.05,113.21c.13-.03.24-.1.23-.26,0-.09-.08-.14-.16-.12-.11.03-.17.12-.19.23-.02.08.01.15.12.16ZM73.02,35.3c0-.22-.05-.27-.14-.25-.04,0-.08.06-.09.1-.02.08,0,.16.1.17.09.01.14-.05.13-.02ZM181.54,114.21c-.08-.01-.12.02-.11.09,0,.08,0,.19.05.22.1.08.12-.02.12-.1,0-.07-.03-.14-.05-.21ZM150.67,85.68c.03-.14,0-.21-.09-.22-.13-.02-.19.09-.18.2.01.1.08.26.13.26.19,0,.12-.18.14-.24ZM136.21,72.74c-.1.02-.12.09-.11.18.02.08.06.18.16.14.05-.02.09-.13.1-.2,0-.09-.06-.14-.15-.12ZM212.51,34.41c0-.09-.04-.15-.12-.18-.13-.04-.21.03-.24.14-.03.08.03.15.11.18.13.04.19-.04.25-.14ZM254.26,146.68s.08-.12.08-.18c0-.08-.08-.14-.15-.08-.04.04-.04.14-.04.21,0,.07.04.09.11.05ZM165.82,68.21s-.08-.07-.12-.07c-.04,0-.11.05-.11.08-.01.1.07.13.14.1.04-.01.05-.07.08-.11ZM73.57,33.06c-.11.01-.12.09-.11.17,0,.05.03.12.07.14.11.04.15-.03.15-.12,0-.08-.02-.16-.11-.19ZM154.04,93.03c-.1.02-.21.04-.24.16-.02.1.05.15.13.13.12-.03.28-.03.29-.21,0-.09-.1-.09-.18-.08ZM133.48,123.52c.16-.01.21-.07.23-.15.01-.1-.04-.15-.14-.15-.09,0-.14.06-.15.15,0,.09.03.15.05.15ZM117.88,124.56c-.02-.05-.05-.12-.07-.18-.03.07-.06.15-.07.22,0,.04.03.13.05.13.11,0,.08-.09.09-.17ZM137.11,124.94c0-.12-.08-.18-.16-.16-.07.01-.16.08-.18.14-.04.11.06.14.15.13.08,0,.16-.03.19-.11ZM274.88,125.47c-.02-.05-.04-.15-.1-.19-.09-.05-.17,0-.14.11.02.07.08.14.14.19.04.03.09-.02.1-.11ZM198.99,31.97c-.05-.1-.12-.19-.24-.17-.03,0-.06.14-.05.21.01.08.09.12.17.12.09,0,.14-.06.12-.16ZM158.88,60.75c0,.11.07.16.15.16.09,0,.14-.08.16-.17.01-.09-.02-.18-.11-.19-.14-.02-.16.11-.2.2ZM18.09,156.69c-.12.02-.15.12-.17.21-.02.09.02.17.12.13.06-.02.11-.11.14-.17.03-.07.01-.15-.08-.18ZM41.54,91.07s.06.12.12.15c.09.04.15-.03.15-.11,0-.1-.02-.22-.15-.22-.09,0-.11.09-.12.19ZM51.45,157.55c0-.1-.05-.17-.15-.14-.04,0-.07.07-.08.12-.02.08,0,.17.1.17.09,0,.13-.08.14-.15ZM88.6,104.59c-.03-.09-.06-.2-.19-.2-.08,0-.15.08-.15.17.01.12.09.2.2.21.09,0,.14-.06.13-.18ZM204.37,84.99c.16.04.24-.03.26-.14.02-.08-.04-.15-.13-.15-.1,0-.22.03-.25.14,0,.04.09.11.12.14ZM183.59,89.9c-.09.14-.26.21-.17.41.03.07.14.12.19.06.11-.13.12-.28-.01-.47ZM212.27,161.25c.14-.01.2-.08.19-.16,0-.13-.13-.14-.23-.16-.09-.01-.15.04-.13.14.02.11.1.18.17.18ZM259.9,129.56s.09-.08.09-.12c0-.04-.05-.11-.08-.11-.09,0-.14.06-.12.15,0,.04.07.06.11.08ZM210.18,81.26c.02-.11-.05-.15-.13-.16-.09,0-.13.07-.15.14-.02.07-.04.17.06.18.11.02.19-.06.23-.17ZM163.8,100.54c.14.03.18-.07.22-.17.05-.12.01-.21-.12-.24-.13-.03-.2.06-.24.16-.05.13.03.2.13.25ZM268.05,131.78c-.11,0-.14.06-.15.14,0,.05,0,.12.04.15.1.07.12-.03.15-.09.03-.07.04-.15-.04-.2ZM135.9,100.49c0-.09-.05-.15-.14-.15-.04,0-.1.04-.12.07-.03.08.01.15.09.18.08.02.14-.02.16-.1ZM59.29,189.41c-.07-.02-.14-.07-.21-.07-.08,0-.16.05-.12.15.03.08.11.11.19.1.09-.01.14-.07.14-.18ZM222.49,101.26c.01.06.02.14.04.15.12.03.12-.07.13-.14,0-.07.05-.17-.04-.18-.03,0-.08.12-.12.18ZM25.07,135.79c-.02-.06-.01-.17-.13-.14-.15.03-.22.14-.22.29,0,.09.07.14.15.14.18,0,.21-.12.2-.28ZM233.07,166.04c.09-.05.07-.13.05-.2-.02-.09-.07-.15-.16-.14-.03,0-.08.07-.08.11,0,.12.09.19.19.24ZM2.75,5.24s-.07.06-.1.09c.05.06.09.14.16.17.1.04.15-.03.13-.13-.02-.08-.09-.12-.18-.13ZM203.9,11.95c.09-.01.15-.06.15-.15,0-.09-.06-.15-.15-.16-.1,0-.14.07-.14.15,0,.08.04.15.14.16ZM250.99,13.24s-.09.07-.08.09c.02.07.05.16.11.19.11.05.1-.06.1-.12,0-.08-.03-.14-.13-.16ZM154.23,111.73c0-.1-.07-.15-.16-.12-.04.01-.09.08-.08.12,0,.09.08.14.17.12.03,0,.05-.08.08-.12ZM6.27,112.63s.11-.02.13-.05c.02-.03.01-.12-.02-.14-.07-.06-.14-.02-.16.07,0,.03.03.08.05.12ZM266.01,112.39c-.1,0-.14.08-.13.16.02.11.08.2.21.21.09,0,.14-.07.12-.16-.02-.11-.1-.18-.2-.21ZM271.31,113.64c.01-.09-.02-.15-.1-.19-.11-.04-.14.04-.16.12-.02.08.01.17.09.19.09.02.15-.04.17-.12ZM3.71,114.91c.04-.06.09-.12.12-.19.03-.06-.02-.14-.05-.12-.06.04-.09.11-.13.18-.04.06-.02.1.06.13ZM221.62,116.41c.09-.02.17-.06.15-.16,0-.03-.09-.07-.14-.06-.09,0-.17.04-.14.15,0,.03.08.05.13.07ZM261.35,94.96c.02-.13-.05-.16-.13-.17-.09,0-.13.06-.14.15,0,.08.02.16.12.14.06-.02.11-.09.15-.12ZM207.47,62.6c-.09.01-.14.07-.14.16,0,.1.08.15.17.13.03,0,.07-.08.08-.12.01-.08,0-.15-.11-.17ZM275.38,125.73c-.06-.09-.14-.07-.21-.05-.04.02-.1.07-.1.1,0,.11.07.12.16.09.07-.03.16-.04.16-.14ZM75.27,57.86c-.01.09-.03.16-.02.23,0,.04.06.07.09.1.01-.07.03-.14.03-.21,0-.04-.05-.07-.09-.12ZM63.34,56.53c-.05.12-.08.17-.08.22,0,.11-.03.33.12.27.14-.06.06-.28-.04-.49ZM256.79,54.02c-.12.01-.19.08-.19.2,0,.03.07.08.11.08.12,0,.19-.09.19-.2,0-.03-.07-.05-.11-.08ZM38.81,99.73s-.02-.08-.03-.11c0,.03,0,.05,0,.08,0,.02,0,.05,0,.07,0-.01.02-.02.03-.03ZM204.82,53.05c.08-.05.1-.12.07-.2-.02-.06-.07-.07-.12-.01-.03.04-.06.09-.06.14,0,.03.07.05.1.08ZM12.25,129.67c-.04-.1-.12-.1-.2-.08-.07.02-.08.06-.05.13.05.08.11.12.2.09.03-.01.04-.09.05-.13ZM149.21,89.74c-.02.25-.21.3-.16.49,0,.03.11.06.13.04.15-.11.17-.25.03-.54ZM183.03,52.45c0-.1-.08-.11-.16-.11-.04,0-.11.03-.13.07-.03.09.03.15.11.16.08,0,.14-.03.17-.11ZM277.36,46.4c-.08-.01-.15-.04-.22-.03-.06,0-.08.06-.05.11.04.08.12.09.19.05.03-.02.05-.08.08-.13ZM228.86,40.11s-.05-.12-.07-.12c-.13,0-.16.11-.18.21,0,.03.04.11.07.11.13,0,.17-.09.19-.2ZM99.44,35.71c-.06-.05-.11-.1-.18-.13-.05-.02-.09.04-.06.1.03.06.1.1.15.15.03-.03.05-.07.09-.11ZM210.6,139.09c-.04-.07-.07-.15-.16-.1-.03.02-.05.09-.04.13.03.07.09.14.17.1.03-.01.02-.08.04-.13ZM249.43,139.22c-.02-.06-.03-.12-.06-.13-.08-.03-.16,0-.19.08-.03.07-.03.17.08.16.06,0,.12-.08.18-.11ZM129.14,84.34c0-.09-.03-.17-.11-.19-.1-.03-.15.04-.14.13,0,.09.07.15.16.15.03,0,.07-.06.1-.09ZM167.53,26.76c.1,0,.12-.08.14-.15.01-.04-.01-.1-.02-.14-.05.06-.1.11-.13.17-.02.03,0,.09.01.12ZM51.92,150.54c-.03-.09-.1-.12-.18-.1-.03,0-.06.08-.06.13,0,.09.05.15.14.14.09-.01.12-.08.1-.17ZM33.02,34.22c0-.07-.05-.11-.1-.08-.04.02-.08.07-.09.12,0,.06.05.11.1.08.04-.02.06-.08.09-.12ZM138.58,24.89c-.09.03-.13.1-.1.19.02.07.07.13.1.2.03-.07.08-.13.1-.2.02-.08-.02-.15-.1-.18ZM246.82,24.09c.02-.08,0-.12-.07-.12-.08,0-.18,0-.22.05-.05.07.01.15.1.15.07,0,.13-.06.19-.08ZM3.76,163.83c.03-.08.01-.13-.04-.12-.04,0-.07.07-.1.11-.04.06-.02.12.04.1.04,0,.07-.06.1-.09ZM45.89,27.98c-.02-.08-.08-.15-.16-.14-.12.01-.2.1-.17.22.01.04.13.08.2.08.08,0,.15-.05.13-.15ZM3.78,166.89c-.01-.05-.02-.14-.04-.15-.09-.01-.13.06-.16.14-.03.08-.03.17.07.18.1,0,.11-.09.13-.17ZM193.68,22.99c0,.09.05.14.13.16.09.02.15-.03.18-.11.03-.08.01-.18-.07-.2-.11-.03-.19.05-.24.15ZM125.9,168c-.01-.08-.03-.18-.14-.15-.07.02-.15.07-.19.12-.07.09,0,.15.09.16.11.02.21,0,.24-.14ZM269.99,170.62s-.15.06-.16.11c-.03.15.09.17.21.16.08,0,.16-.06.15-.15,0-.09-.08-.12-.2-.12ZM194.26,16.69c.01-.05.05-.11.04-.15-.03-.12-.03-.33-.21-.22-.07.04.04.27.18.37ZM201.9,171.11s-.03-.12-.06-.12c-.08,0-.14.05-.15.13,0,.04.03.12.05.12.09.02.14-.04.16-.12ZM139.2,14.48c-.03.06-.09.13-.09.2,0,.06.07.08.12.03.03-.04.05-.09.06-.14.02-.07-.01-.1-.09-.09ZM251.42,14.23s-.06-.12-.11-.17c-.04-.05-.12-.02-.11.03.01.07.07.13.11.18.05.06.08.04.1-.05ZM214.93,14.11c0-.09-.04-.16-.13-.17-.08,0-.18,0-.15.13.02.07.08.15.14.18.1.04.12-.05.14-.13ZM18.02,175.4s-.03-.03-.05-.05c-.06-.07-.09-.07-.07,0,0,.02.03.05.05.06.02,0,.05,0,.07,0ZM211.03,77.96c-.03-.06-.04-.13-.07-.14-.09-.02-.14.04-.15.12,0,.04.03.09.05.13.06-.04.12-.08.17-.12ZM169.42,177.16c.02.09.08.15.16.14.13-.01.2-.1.17-.22-.02-.08-.12-.1-.21-.09-.09.01-.14.07-.13.17ZM4.57,27.61c.03-.06.06-.11.06-.15,0-.08-.03-.17-.12-.18-.06,0-.09.05-.06.12.03.07.08.13.12.21ZM221.06,181.56s.1-.04.12-.08c.04-.05.01-.12-.05-.13-.08,0-.16.01-.18.11,0,.03.07.07.1.1ZM39.66,85.23c-.06-.04-.11-.1-.13-.09-.12.04-.14.16-.13.27,0,.08.05.11.08.08.07-.08.12-.17.18-.26ZM265.93,32.62c.04-.09,0-.15-.07-.2-.05-.03-.1,0-.1.07,0,.05.02.11.05.14.02.02.08,0,.12,0ZM79.95,183.09c-.02-.11-.08-.18-.16-.17-.07.01-.16.08-.17.14-.02.13.08.18.2.18.09,0,.13-.07.14-.14ZM84.42,13.97c.02.09.08.14.17.12.04,0,.08-.08.08-.12,0-.08-.03-.16-.12-.16-.09,0-.13.07-.13.16ZM249.91,149.87c-.04-.09-.07-.22-.2-.2-.13.02-.11.15-.12.25-.01.09.04.15.12.16.13,0,.17-.1.2-.21ZM107.68,186.52c-.02.06-.06.13-.06.19,0,.08.05.15.15.12.09-.02.12-.09.1-.17-.02-.08-.07-.14-.19-.14ZM135.04,188.1c-.09.04-.12.11-.11.19,0,.07.07.09.12.04.04-.03.06-.09.07-.14.01-.06-.02-.1-.08-.1ZM172.29,109.75c.07-.06.08-.14.06-.22-.02-.07-.07-.08-.13-.04-.08.05-.12.12-.06.2.02.04.09.04.13.07ZM267.83,189.54c0-.05,0-.1-.01-.15,0,0-.01,0-.01,0,0,.05,0,.1,0,.15.01,0,.02,0,.03,0ZM57.86,137.5c.09-.02.14-.08.12-.17,0-.03-.07-.08-.11-.08-.08-.01-.16.02-.16.11,0,.08.07.13.15.14Z"/>
  <path class="cls-1" d="M-.16,101.3c.16.02.34.02.48.08.27.11.26.36.15.56-.11.21-.28.06-.42-.01-.07-.04-.14-.08-.22-.12v-.5Z"/>
  <path class="cls-1" d="M35.88.21c-.15.34-.08.76-.36,1.09-.37-.47.17-.73.19-1.09h.17Z"/>
  <path class="cls-1" d="M-.16,132.71s.1-.05.14-.07c.09-.05.2-.12.29-.02.1.11-.01.19-.08.26-.09.1-.2.18-.35.17v-.33Z"/>
  <path class="cls-1" d="M-.16,140.23c.05,0,.11,0,.16.02.1.02.24-.02.24.13,0,.14-.14.14-.24.15-.05,0-.11.02-.16.03v-.33Z"/>
  <path class="cls-1" d="M147.73,182.33c-.04.19-.2.37,0,.59.22.24.05.45-.13.64-.28.31-.6.18-.92.11-.25-.06-.38-.21-.36-.47.02-.33.04-.66.1-.98.06-.32.58-.56.94-.48.25.06.36.23.35.59Z"/>
  <path class="cls-1" d="M178.33,109.78c.04-.45.14-.86.54-1.15.18-.14.37-.19.52-.08.13.09.11.34,0,.45-.21.23-.21.5-.19.77.02.42-.34.55-.58.57-.32.02-.19-.38-.29-.58.08.02.15.06.23.07.11.02.22.02.27-.1.02-.04.03-.12,0-.15-.12-.15-.24-.05-.34.03-.06.05-.11.12-.16.18Z"/>
  <path class="cls-1" d="M80.53,86.11c0-.33.02-.73.42-.75.41-.02.28.46.43.7.05.07.02.22-.02.31-.09.21-.05.56-.37.55-.35-.02-.5-.29-.48-.64,0-.05.01-.11.02-.16Z"/>
  <path class="cls-1" d="M85.55,164.56c-.17-.02-.32,0-.43-.06-.14-.07-.3-.18-.29-.36.01-.19.18-.32.34-.29.35.05.56-.14.78-.34.06-.06.12-.12.21-.09.08.03.14.1.13.19-.06.37-.26.66-.47.95-.08.1-.2.03-.27,0Z"/>
  <path class="cls-1" d="M62.53,35.07c-.16.27-.08.42.09.57.18.16.2.39.17.61-.02.18-.13.31-.32.31-.18,0-.19-.16-.23-.29-.13-.5-.04-1.04-.25-1.53-.04-.09.03-.22.15-.26.16-.05.27.03.31.18.04.15.06.31.07.41Z"/>
  <path class="cls-1" d="M107.63,52.92c-.69-.23-1.3-.56-1.68-1.21.03-.05.07-.1.1-.15.57.38,1.14.76,1.71,1.14-.04.07-.08.14-.13.22Z"/>
  <path class="cls-1" d="M138.68,42.37c-.21.55-.41.7-.76.6-.21-.06-.23-.23-.26-.38-.03-.21.14-.32.3-.32.24,0,.48.06.72.1Z"/>
  <path class="cls-1" d="M186.62,171.57c-.38.76-.62.84-.97.41-.2-.24-.08-.34.15-.4.05-.02.11-.01.16-.01h.66Z"/>
  <path class="cls-1" d="M271.25,60.32c.45.06.69.27.73.67.01.11.05.22-.08.28-.14.07-.28.03-.36-.09-.16-.24-.35-.47-.29-.86Z"/>
  <path class="cls-1" d="M125.46,69.74c-.03.21-.18.3-.35.27-.27-.04-.42-.29-.44-.52-.02-.17.19-.36.4-.31.27.06.36.31.39.56Z"/>
  <path class="cls-1" d="M249.71,18.05c.53-.1,1.05-.21,1.46-.59.1-.09.3-.07.38.04.11.14-.02.25-.15.31-.53.25-1.09.32-1.68.24Z"/>
  <path class="cls-1" d="M122.29,43.12c-.05.17,0,.44-.27.42-.26-.03-.46-.21-.45-.5.01-.24.18-.42.43-.41.3.01.29.27.3.49Z"/>
  <path class="cls-1" d="M186.05,90.2c-.29-.31-.17-.61-.22-.87-.03-.14.01-.29.2-.29.18,0,.31.09.33.29.03.32-.08.58-.3.87Z"/>
  <path class="cls-1" d="M250.69,91.79c.31.35.4.65.08.91-.12.1-.35.09-.43-.06-.2-.38.08-.59.35-.85Z"/>
  <path class="cls-1" d="M168.75,9.88c-.13.02-.21-.05-.23-.17-.01-.09.56-.57.66-.56.13,0,.19.1.19.23,0,.31-.23.5-.63.51Z"/>
  <path class="cls-1" d="M109.14,63.64c0,.25-.18.4-.36.39-.29-.02-.33-.32-.37-.55-.03-.16.09-.26.24-.26.29,0,.44.17.49.43Z"/>
  <path class="cls-1" d="M173.15,70.25c.24-.28.53-.22.78-.29.13-.04.29,0,.3.18.01.17-.14.21-.27.25-.3.1-.55-.08-.82-.14Z"/>
  <path class="cls-1" d="M37.76,51.48c-.07.2-.06.46-.38.43-.18-.02-.32-.07-.31-.29.02-.23.05-.45.36-.43.18.01.31.09.32.29Z"/>
  <path class="cls-1" d="M273.24,38.66c-.24.2-.42.35-.59.5-.09.08-.19.1-.3.03-.08-.05-.11-.12-.08-.2.11-.29.36-.46.62-.58.06-.03.21.14.34.25Z"/>
  <path class="cls-1" d="M89.39,41.42c.38.61.2,1.15-.1,1.68.01-.56.06-1.12.1-1.68Z"/>
  <path class="cls-1" d="M13.76,25.57c-.2.02-.24-.16-.27-.36-.05-.3.22-.26.37-.31.2-.07.18.13.2.25.03.2.05.39-.29.42Z"/>
  <path class="cls-1" d="M50.6,121.1c.13.03.35-.01.34.22-.02.18-.08.4-.3.43-.25.04-.33-.14-.34-.36,0-.2.06-.32.3-.3Z"/>
  <path class="cls-1" d="M2.27,75.71c-.03.18-.18.19-.31.18-.32-.02-.39-.26-.41-.51,0-.13.13-.16.24-.14.25.06.47.15.48.47Z"/>
  <path class="cls-1" d="M97,100.24c.26-.12.56-.17.71-.54q.1.78-.71.54Z"/>
  <path class="cls-1" d="M248.5,47.04c-.19,0-.35-.07-.36-.26,0-.19.08-.41.29-.41.25,0,.32.26.35.46.02.16-.18.15-.29.21Z"/>
  <path class="cls-1" d="M255.92,106.21c-.18-.28-.59-.36-.62-.77,0-.11-.05-.22.09-.27.12-.04.21,0,.27.12.14.28.28.57.42.85-.05.03-.1.05-.15.08Z"/>
  <path class="cls-1" d="M228.56,38.77c.28.39.43.7-.15.96-.08-.33-.11-.62.15-.96Z"/>
  <path class="cls-1" d="M36.34,69.05c.26.13.26.37.23.62-.02.15-.13.3-.26.25-.34-.13-.21-.45-.21-.7,0-.13.11-.16.24-.17Z"/>
  <path class="cls-1" d="M132.39,173.88c.06-.34.3-.33.45-.41.21-.1.41.02.45.22.06.32-.21.23-.38.23-.16,0-.31-.02-.51-.04Z"/>
  <path class="cls-1" d="M166.08,49.78c.04-.14-.14-.44.17-.42.27.02.22.31.23.51,0,.16-.01.36-.23.34-.3-.02-.2-.25-.18-.44Z"/>
  <path class="cls-1" d="M97.64,96.6c.01-.2.12-.35.33-.37.19-.02.18.18.19.29.02.2-.07.41-.27.44-.2.03-.23-.17-.25-.36Z"/>
  <path class="cls-1" d="M162.81,161.38c.24.1.17.26.21.39.04.14.25.27.05.43-.06.05-.16.1-.21.08-.25-.08-.15-.32-.19-.49-.03-.15.06-.26.13-.41Z"/>
  <path class="cls-1" d="M270.54,105.99q.46-.21.85.03-.44.11-.85-.03Z"/>
  <path class="cls-1" d="M159.54,86.14c-.04.17-.14.23-.29.24-.23.01-.27-.14-.26-.32,0-.1,0-.25.15-.25.21,0,.35.12.4.32Z"/>
  <path class="cls-1" d="M257.44,25.1c-.11-.41.07-.73.37-1.12.02.49-.33.75-.37,1.12Z"/>
  <path class="cls-1" d="M14.88,65.16c-.03-.19.03-.31.21-.27.16.03.33.14.27.34-.04.15-.07.35-.29.35-.35-.01-.14-.28-.18-.42Z"/>
  <path class="cls-1" d="M96.56,91.77c-.02.2-.14.33-.34.36-.08.01-.17-.06-.14-.15.05-.17.04-.4.28-.43.11-.01.18.09.2.22Z"/>
  <path class="cls-1" d="M119.47,172.06c-.06-.35-.27-.69-.18-1.26.28.49.24.87.18,1.26Z"/>
  <path class="cls-1" d="M184.94,16.35s.1.07.11.11c.07.18.12.37-.02.54-.05.07-.15.02-.2-.05-.16-.23-.17-.45.11-.61Z"/>
  <path class="cls-1" d="M115.65,161.03s-.05.06-.07.06c-.23-.01-.45.27-.68,0-.05-.06-.05-.17.02-.22.28-.17.5-.01.72.15Z"/>
  <path class="cls-1" d="M134.19,148.81c.13-.23.19-.51.45-.65.27.13.23.37.13.56-.13.25-.37.14-.58.09h0Z"/>
  <path class="cls-1" d="M102.4,106.98q.48-.04.61-.5c.17.62.15.64-.61.5Z"/>
  <path class="cls-1" d="M255.9,100.78s.12-.01.23,0c.09.01.15.09.14.17-.01.07-.08.17-.13.18-.13.02-.27,0-.4-.02-.11-.02-.23-.08-.22-.21,0-.2.15-.18.39-.12Z"/>
  <path class="cls-1" d="M34.5,73.62c.11.44.14.74-.24,1.08,0-.42-.06-.73.24-1.08Z"/>
  <path class="cls-1" d="M154.36,136.34c-.19.05-.37.05-.56,0q.29-.34.56,0Z"/>
  <path class="cls-1" d="M133.93,5.93c-.11-.04-.24-.11-.21-.27.03-.12.17-.12.27-.08.09.04.32-.02.23.21-.04.1-.14.17-.29.14Z"/>
  <path class="cls-1" d="M49.33,51.84c.01.26-.06.34-.22.35-.15,0-.29-.08-.29-.21,0-.24.22-.28.39-.29.13,0,.12.14.12.15Z"/>
  <path class="cls-1" d="M219.86,154.84c.13.32.57.54.35,1.07-.31-.35-.58-.62-.34-1.08h0Z"/>
  <path class="cls-1" d="M259.83,38.47c-.15,0-.2-.06-.2-.14,0-.21.14-.27.31-.27.07,0,.21.05.2.06-.03.21-.23.25-.31.36Z"/>
  <path class="cls-1" d="M149.08,139.75c-.06.15-.04.4-.3.38-.11,0-.14-.14-.11-.25.03-.15.03-.34.24-.35.13-.01.17.1.17.23Z"/>
  <path class="cls-1" d="M182.65,38.79c.09.06.12.08.13.1.04.18.14.37.02.55-.02.03-.13.04-.14.02-.13-.22-.1-.43,0-.66Z"/>
  <path class="cls-1" d="M118.41,143.23c.06-.32.09-.47.13-.63.03-.14.09-.28.27-.19.14.07.21.22.11.34-.11.15-.27.26-.52.48Z"/>
  <path class="cls-1" d="M158.34,138.39c-.18,0-.26-.08-.24-.2.02-.2.11-.38.34-.4.11,0,.24.03.26.15.04.29-.23.33-.35.45Z"/>
  <path class="cls-1" d="M18.63,156.09c.15-.33.3-.55.67-.61-.1.34-.21.61-.67.61Z"/>
  <path class="cls-1" d="M180.25,2.17c.46.2.57.5.74.74-.25-.15-.49-.32-.74-.74Z"/>
  <path class="cls-1" d="M36.76,3.12s-.09-.09-.09-.13c0-.18-.05-.39.14-.51.07-.04.17,0,.19.08.08.25.07.47-.24.55Z"/>
  <path class="cls-1" d="M241.97,68.55c0,.14-.03.27-.21.29-.13.01-.19-.09-.22-.2-.06-.19.07-.24.21-.26.12-.02.22.02.22.17Z"/>
  <path class="cls-1" d="M57.23,102.38s.07.05.07.07c0,.23.11.49-.15.65-.02.01-.11-.03-.13-.07-.1-.27.02-.47.2-.65Z"/>
  <path class="cls-1" d="M73,16.94c-.06.07-.09.13-.13.13-.21.02-.43.1-.61-.07-.07-.06-.02-.17.05-.21.28-.17.49-.06.68.15Z"/>
  <path class="cls-1" d="M219.08,15.52c-.01.15-.07.25-.25.23-.15-.02-.27-.04-.2-.24.04-.13.08-.27.25-.27.17,0,.22.12.2.28Z"/>
  <path class="cls-1" d="M270.85,33.36c-.24.08-.32.4-.58.23-.1-.06-.11-.19-.04-.28.18-.27.36-.11.63.06Z"/>
  <path class="cls-1" d="M30.11,37.43c-.02.15.05.37-.17.4-.17.02-.2-.16-.19-.29,0-.16,0-.35.23-.35.15,0,.12.14.13.24Z"/>
  <path class="cls-1" d="M78.34,23.04c-.07.26-.13.52-.2.78-.18-.33-.09-.59.03-.85.06.02.11.04.17.07Z"/>
  <path class="cls-1" d="M259.56,63.21c0,.13-.05.22-.17.24-.12.02-.24-.01-.25-.15,0-.15.07-.29.21-.31.1-.01.18.11.21.23Z"/>
  <path class="cls-1" d="M241.71,50.47c-.03.16-.08.33-.25.38-.13.04-.19-.07-.19-.19,0-.18.06-.33.27-.34.08,0,.15.05.17.15Z"/>
  <path class="cls-1" d="M259.07,60.09c-.07.21-.25.17-.39.16-.11,0-.2-.09-.14-.23.05-.13.15-.23.3-.22.15.02.21.14.24.29Z"/>
  <path class="cls-1" d="M113.01,125.86c.18.24.37.47.4.79-.35-.34-.35-.34-.4-.79Z"/>
  <path class="cls-1" d="M67.75,41.96c.09.06.14.09.18.12.09.1.21.19.15.34-.01.03-.1.06-.14.05-.2-.05-.19-.25-.23-.4,0-.02.02-.05.05-.13Z"/>
  <path class="cls-1" d="M118.79,21.01c0-.44-.01-.68.2-.87.03.09.07.13.07.19.02.21-.17.33-.27.69Z"/>
  <path class="cls-1" d="M178.38,18.72c-.03.1-.07.22-.19.22-.16,0-.23-.15-.22-.27.01-.11.05-.29.22-.26.13.03.21.15.19.31Z"/>
  <path class="cls-1" d="M31.58,127.67c.15-.17.29-.34.44-.51.05.34-.12.49-.44.51Z"/>
  <path class="cls-1" d="M75.81,167.02v.93c-.3-.31-.22-.53,0-.93Z"/>
  <path class="cls-1" d="M124.2,51.46c-.45.2-.72.08-1.15.03.45-.29.71-.16,1.15-.03Z"/>
  <path class="cls-1" d="M24.39,106.18c0,.12-.07.2-.19.2-.11,0-.19-.08-.19-.2,0-.1.08-.13.16-.15.12-.02.21.01.23.15Z"/>
  <path class="cls-1" d="M105.22,8.14c.09.07.27.04.28.21,0,.04-.12.11-.19.12-.15.02-.27-.04-.27-.21,0-.09.08-.12.18-.12Z"/>
  <path class="cls-1" d="M135.24,147.38c-.04.11-.11.18-.24.17-.11-.01-.22-.1-.22-.19,0-.15.11-.24.27-.2.1.03.18.09.19.22Z"/>
  <path class="cls-1" d="M248.64,90.4c-.13,0-.12-.1-.15-.16-.05-.1-.1-.22.07-.25.03,0,.12.06.12.09,0,.11-.02.21-.03.32Z"/>
  <path class="cls-1" d="M5.41,147.9c-.09-.01-.2-.06-.22-.17-.03-.1.06-.14.14-.14.11,0,.23.01.25.15.01.09-.06.14-.16.16Z"/>
  <path class="cls-1" d="M137.41,97.13c0,.12-.07.21-.19.21-.12,0-.18-.09-.17-.21,0-.12.07-.22.18-.21.12,0,.16.11.18.22Z"/>
  <path class="cls-1" d="M93.74,138.92c-.05-.06-.08-.08-.08-.1-.02-.16-.11-.31-.02-.47.01-.02.13-.02.14,0,.07.15.07.31.04.47,0,.02-.03.04-.08.1Z"/>
  <path class="cls-1" d="M133.3,31.85c.12.02.19.09.21.2.01.08-.03.17-.12.17-.14,0-.27-.04-.25-.22,0-.08.06-.15.16-.15Z"/>
  <path class="cls-1" d="M132.66,155.14c.18-.04.34-.05.45.09.02.02-.02.12-.05.12-.19.04-.27-.12-.4-.22Z"/>
  <path class="cls-1" d="M260.97,49.5c.17-.13.34-.12.54-.04-.17.3-.37.02-.54.04Z"/>
  <path class="cls-1" d="M130.72,57.84c-.14-.08-.18-.2-.15-.34.02-.12.11-.21.22-.17.12.04.1.18.08.28-.02.09.02.23-.15.23Z"/>
  <path class="cls-1" d="M107.09,125.87c.12.02.29,0,.27.19-.01.12-.14.13-.25.12-.1-.01-.23-.01-.24-.15-.02-.14.11-.15.22-.17Z"/>
  <path class="cls-1" d="M250.72,135.77c.1.1.18.21.18.35,0,.1-.06.15-.15.12-.15-.05-.21-.16-.17-.32.02-.07.05-.15.15-.16Z"/>
  <path class="cls-1" d="M170.78,121.07c0,.08.03.17,0,.24-.07.16-.19.29-.36.13-.11-.11-.05-.25.07-.34.09-.07.2-.06.3-.01v-.02Z"/>
  <path class="cls-1" d="M32.2,129.4c0,.16-.12.16-.23.14-.11-.01-.23-.04-.23-.18,0-.14.13-.17.24-.16.11,0,.21.05.22.19Z"/>
  <path class="cls-1" d="M270.09,161.62c-.03.08-.03.22-.17.2-.19-.02-.17-.18-.15-.31.02-.12.1-.21.22-.18.12.03.14.15.11.29Z"/>
  <path class="cls-1" d="M169.67,68.51c-.05-.06-.11-.11-.14-.18-.06-.15-.01-.26.15-.29.08-.01.17.02.18.11.01.14-.07.25-.19.36Z"/>
  <path class="cls-1" d="M88.17,55.06c0,.12-.05.21-.17.23-.16.03-.26-.07-.27-.22,0-.12.09-.2.2-.2.11,0,.2.05.23.18Z"/>
  <path class="cls-1" d="M113.16,184.81c.2.09.28.23.18.44-.03.07-.14.12-.19.06-.14-.16-.11-.33.01-.5Z"/>
  <path class="cls-1" d="M109.23,115.46c.09.07.14.17.12.28,0,.04-.08.1-.1.09-.13-.05-.1-.17-.1-.27,0-.07.03-.1.08-.09Z"/>
  <path class="cls-1" d="M194.97,73c.03.15,0,.25-.13.27-.14.03-.18-.09-.19-.2-.01-.11.01-.23.13-.26.15-.03.14.12.18.18Z"/>
  <path class="cls-1" d="M18.06,13.63c-.09.01-.16-.02-.15-.12.01-.14.09-.25.25-.27.07,0,.18.02.17.11-.02.14-.13.23-.26.28Z"/>
  <path class="cls-1" d="M119.37,127.91c.02.21-.11.36-.27.6-.02-.32,0-.52.27-.6Z"/>
  <path class="cls-1" d="M232.59.93c.07-.09.07-.26.24-.24.03,0,.07.09.06.12-.04.11-.04.28-.23.24-.03,0-.05-.08-.08-.12Z"/>
  <path class="cls-1" d="M255.05,158.88c-.08.1-.14.25-.3.19-.11-.03-.16-.13-.12-.25.03-.11.11-.18.23-.16.12.02.17.11.2.21Z"/>
  <path class="cls-1" d="M210.26,159.07c.12-.05.14.05.15.12.03.14.02.27-.13.33-.1.04-.15-.04-.17-.12-.04-.15,0-.26.15-.33Z"/>
  <path class="cls-1" d="M241.27,159.4c0,.09-.02.17-.12.16-.15,0-.15-.14-.15-.25,0-.07.04-.21.06-.21.18,0,.2.15.21.29Z"/>
  <path class="cls-1" d="M19.9,161.38c-.2-.01-.37-.06-.35-.3.01-.15.27-.06.35.14.02.04,0,.1,0,.16Z"/>
  <path class="cls-1" d="M64.37,175.28c-.04.08-.1.13-.18.09-.11-.05-.16-.14-.12-.26.03-.08.11-.12.19-.09.12.05.15.14.12.26Z"/>
  <path class="cls-1" d="M194.46,186.29c-.08,0-.17,0-.19-.09-.03-.14.07-.19.18-.21.08-.02.17-.01.19.08.03.13-.06.19-.17.22Z"/>
  <path class="cls-1" d="M29.83,188.38c.06.21.04.37-.15.44-.03.01-.13-.04-.13-.06,0-.19.17-.26.27-.37Z"/>
  <path class="cls-1" d="M219.09,17.63c.02.12-.06.14-.14.13-.15-.02-.24-.12-.23-.27,0-.07.06-.2.08-.19.18.03.19.23.29.34Z"/>
  <path class="cls-1" d="M142.81,24.97c.23-.13.42-.03.61.03.02.1-.04.16-.12.17-.19.03-.36,0-.49-.2Z"/>
  <path class="cls-1" d="M153.04,28.65c.07.23.05.39-.11.49-.03.02-.12,0-.14-.03-.11-.26.13-.29.25-.45Z"/>
  <path class="cls-1" d="M73.43,21.76c-.05-.01-.14-.01-.14-.03-.05-.17.08-.23.2-.28.04-.01.14,0,.14.02.03.16-.08.23-.2.29Z"/>
  <path class="cls-1" d="M231.58,43.42c-.04.12-.1.21-.23.2-.13-.01-.18-.12-.17-.23.01-.12.11-.18.22-.18.14,0,.16.11.17.21Z"/>
  <path class="cls-1" d="M186.04,48.46c-.14.01-.2-.07-.22-.18-.02-.11-.03-.22.11-.25.13-.02.19.07.22.18.02.1.03.21-.1.25Z"/>
  <path class="cls-1" d="M82.13,57.17c.34.11.52.16.79.25-.32.18-.5.15-.79-.25Z"/>
  <path class="cls-1" d="M125.91,67.6c.11.02.22.07.24.17.03.16-.12.13-.21.13-.12,0-.21-.05-.2-.18,0-.09.08-.12.17-.12Z"/>
  <path class="cls-1" d="M164.23,120.23c-.02.16-.12.24-.26.26-.09.01-.17-.03-.17-.12,0-.18.1-.31.3-.31.09,0,.14.07.13.17Z"/>
  <path class="cls-1" d="M251.26,94.99c.1,0,.15.05.14.14,0,.12-.09.2-.2.23-.1.02-.15-.06-.14-.15,0-.11.07-.2.19-.22Z"/>
  <path class="cls-1" d="M72.61,122.9c0,.12-.05.21-.16.23-.13.03-.2-.08-.21-.18-.01-.14.05-.27.21-.27.14,0,.14.12.16.23Z"/>
  <path class="cls-1" d="M251.71,126.86c-.11-.06-.28-.09-.19-.28.02-.04.1-.08.14-.06.14.06.16.21.18.34,0,.04-.08.05-.13,0Z"/>
  <path class="cls-1" d="M8.42,128.27c.09,0,.14.06.14.15,0,.11-.02.21-.13.24-.1.02-.13-.06-.13-.14,0-.1,0-.2.12-.25Z"/>
  <path class="cls-1" d="M2.82,129.06c.1.02.12.1.09.17-.02.06-.08.14-.14.16-.08.03-.16-.04-.15-.12,0-.11.08-.18.19-.2Z"/>
  <path class="cls-1" d="M159.62,131.69c-.15-.28-.19-.45-.12-.69.14.2.16.38.12.69Z"/>
  <path class="cls-1" d="M153.38,134.01c-.12-.04-.16-.14-.15-.25,0-.11.06-.22.2-.2.11.01.2.08.16.21-.04.1-.09.2-.21.23Z"/>
  <path class="cls-1" d="M262.82,135.07c-.03-.18-.12-.46.13-.45.24.01.07.22,0,.34-.03.04-.08.07-.12.11Z"/>
  <path class="cls-1" d="M95.87,139.95s-.12-.03-.13-.06c-.04-.17.09-.22.22-.26.04-.01.13.02.13.04,0,.15-.1.22-.22.28Z"/>
  <path class="cls-1" d="M101.9,146.39c-.1.12-.21.16-.34.05-.06-.05-.12-.12-.06-.2.09-.13.22-.14.34-.06.07.05.11.12.05.21Z"/>
  <path class="cls-1" d="M244.07,2.44c-.26-.21-.12-.39-.06-.62.2.23.18.41.06.62Z"/>
  <path class="cls-1" d="M107.54,3.53s.1.07.16.11c-.06.05-.12.11-.19.13-.08.02-.18-.02-.18-.12,0-.1.07-.14.21-.13Z"/>
  <path class="cls-1" d="M258.03,180.16c.08-.02.12,0,.12.07,0,.05-.02.11-.05.15-.04.07-.1.06-.11,0,0-.08.02-.15.04-.22Z"/>
  <path class="cls-1" d="M218.86,10.12c.1.18.04.41-.12.39-.23-.02,0-.19,0-.3,0-.03.07-.06.11-.09Z"/>
  <path class="cls-1" d="M8.26,11.46c-.11-.03-.14-.1-.16-.18-.03-.15.06-.19.18-.17.09.01.15.08.11.17-.03.07-.09.13-.13.19Z"/>
  <path class="cls-1" d="M69.23,46.39c0,.08-.06.13-.15.1-.11-.03-.17-.11-.15-.23.01-.08.04-.16.15-.13.11.04.15.13.16.26Z"/>
  <path class="cls-1" d="M100.41,181.96c-.11,0-.2-.04-.21-.17,0-.09.07-.14.15-.13.1,0,.22.01.21.16,0,.08-.05.15-.15.15Z"/>
  <path class="cls-2" d="M178.33,109.78c.05-.06.1-.13.16-.18.11-.08.22-.18.34-.03.02.03.01.1,0,.15-.05.12-.17.12-.27.1-.08-.01-.15-.05-.23-.07v.03Z"/>
  <path class="cls-1" d="M170.97,14.18s-.06.11-.1.12c-.09.02-.15-.04-.17-.12-.02-.08.03-.18.12-.16.06,0,.1.1.15.16Z"/>
  <path class="cls-1" d="M158.02,185.14c.09,0,.16.05.15.13,0,.07-.07.13-.1.19-.05-.05-.11-.09-.14-.15-.04-.08.02-.13.09-.17Z"/>
  <path class="cls-1" d="M177.36,76.54s-.07.12-.08.12c-.16-.05-.27-.16-.3-.33,0-.03.07-.11.08-.11.13.07.26.15.29.32Z"/>
  <path class="cls-1" d="M29.05,113.21c-.11,0-.14-.07-.12-.16.02-.11.08-.2.19-.23.08-.02.15.04.16.12.01.16-.1.23-.23.26Z"/>
  <path class="cls-1" d="M73.02,35.3s-.04.03-.13.02c-.09-.01-.12-.09-.1-.17.01-.04.06-.1.09-.1.09-.02.15.03.14.25Z"/>
  <path class="cls-1" d="M181.54,114.21c.01.07.04.14.05.21,0,.08-.02.17-.12.1-.04-.03-.04-.14-.05-.22,0-.07.03-.1.11-.09Z"/>
  <path class="cls-1" d="M150.67,85.68c-.02.06.04.24-.14.24-.05,0-.12-.17-.13-.26-.01-.1.04-.21.18-.2.09.01.12.09.09.22Z"/>
  <path class="cls-1" d="M136.21,72.74c.09-.02.16.03.15.12,0,.07-.05.18-.1.2-.09.04-.14-.06-.16-.14-.02-.08,0-.16.11-.18Z"/>
  <path class="cls-1" d="M212.51,34.41c-.05.09-.12.18-.25.14-.08-.03-.14-.1-.11-.18.04-.1.11-.18.24-.14.08.03.12.09.12.18Z"/>
  <path class="cls-1" d="M254.26,146.68c-.07.04-.11.02-.11-.05,0-.07,0-.17.04-.21.07-.06.15,0,.15.08,0,.07-.06.13-.08.18Z"/>
  <path class="cls-1" d="M165.82,68.21s-.05.1-.08.11c-.08.03-.16,0-.14-.1,0-.03.07-.08.11-.08.04,0,.08.05.12.07Z"/>
  <path class="cls-1" d="M73.57,33.06c.09.03.12.11.11.19,0,.09-.05.17-.15.12-.04-.02-.06-.09-.07-.14-.01-.08,0-.16.11-.17Z"/>
  <path class="cls-1" d="M154.04,93.03c.08-.01.18,0,.18.08,0,.18-.17.18-.29.21-.09.02-.16-.03-.13-.13.03-.12.14-.14.24-.16Z"/>
  <path class="cls-1" d="M133.48,123.52s-.06-.06-.05-.15c0-.09.06-.15.15-.15.09,0,.15.05.14.15-.01.08-.07.14-.23.15Z"/>
  <path class="cls-1" d="M117.88,124.56c-.01.08.02.18-.09.17-.02,0-.06-.09-.05-.13.01-.08.05-.15.07-.22.03.06.05.13.07.18Z"/>
  <path class="cls-1" d="M137.11,124.94c-.03.08-.11.1-.19.11-.09.01-.19-.02-.15-.13.02-.06.11-.13.18-.14.08-.01.16.04.16.16Z"/>
  <path class="cls-1" d="M274.88,125.47c-.01.1-.06.14-.1.11-.06-.05-.13-.12-.14-.19-.03-.1.06-.16.14-.11.06.04.08.13.1.19Z"/>
  <path class="cls-1" d="M198.99,31.97c.02.1-.03.15-.11.16-.08,0-.16-.03-.17-.12,0-.07.02-.2.05-.21.12-.02.19.07.24.16Z"/>
  <path class="cls-1" d="M158.88,60.75c.04-.09.06-.22.2-.2.09.01.12.1.11.19-.01.09-.07.16-.16.17-.09,0-.15-.05-.15-.16Z"/>
  <path class="cls-1" d="M18.09,156.69c.1.03.11.1.08.18-.03.07-.08.15-.14.17-.1.04-.14-.05-.12-.13.02-.1.05-.2.17-.21Z"/>
  <path class="cls-1" d="M41.54,91.07c.02-.1.04-.19.12-.19.13,0,.16.12.15.22,0,.08-.06.15-.15.11-.06-.03-.09-.11-.12-.15Z"/>
  <path class="cls-1" d="M51.45,157.55c-.01.08-.05.15-.14.15-.1,0-.11-.09-.1-.17,0-.05.05-.11.08-.12.1-.03.14.03.15.14Z"/>
  <path class="cls-1" d="M88.6,104.59c0,.11-.04.18-.13.18-.12,0-.19-.09-.2-.21,0-.09.06-.16.15-.17.13,0,.16.11.19.2Z"/>
  <path class="cls-1" d="M204.37,84.99s-.13-.1-.12-.14c.03-.11.14-.14.25-.14.09,0,.14.07.13.15-.02.11-.1.18-.26.14Z"/>
  <path class="cls-1" d="M183.59,89.9c.13.18.13.34.01.47-.05.06-.16.01-.19-.06-.08-.2.08-.27.17-.41Z"/>
  <path class="cls-1" d="M212.27,161.25c-.07,0-.15-.07-.17-.18-.02-.09.04-.15.13-.14.1.01.22.03.23.16,0,.08-.05.15-.19.16Z"/>
  <path class="cls-1" d="M259.9,129.56s-.1-.04-.11-.08c-.02-.09.03-.16.12-.15.03,0,.08.07.08.11,0,.04-.05.08-.09.12Z"/>
  <path class="cls-1" d="M210.18,81.26c-.04.11-.11.19-.23.17-.1-.01-.08-.11-.06-.18.02-.08.06-.15.15-.14.08,0,.15.05.13.16Z"/>
  <path class="cls-1" d="M163.8,100.54c-.1-.05-.18-.13-.13-.25.04-.11.1-.19.24-.16.13.03.17.12.12.24-.04.1-.08.2-.22.17Z"/>
  <path class="cls-1" d="M268.05,131.78c.08.04.06.13.04.2-.02.06-.05.16-.15.09-.03-.02-.04-.1-.04-.15,0-.08.04-.15.15-.14Z"/>
  <path class="cls-1" d="M135.9,100.49c-.02.08-.08.13-.16.1-.08-.02-.12-.1-.09-.18.01-.04.08-.07.12-.07.09,0,.13.06.14.15Z"/>
  <path class="cls-1" d="M59.29,189.41c0,.11-.05.16-.14.18-.08.01-.17-.02-.19-.1-.04-.1.04-.15.12-.15.07,0,.14.04.21.07Z"/>
  <path class="cls-1" d="M222.49,101.26c.04-.06.1-.18.12-.18.09.02.05.12.04.18,0,.07-.01.17-.13.14-.02,0-.03-.09-.04-.15Z"/>
  <path class="cls-1" d="M25.07,135.79c0,.16-.02.28-.2.28-.09,0-.16-.04-.15-.14,0-.14.07-.25.22-.29.12-.02.11.08.13.14Z"/>
  <path class="cls-1" d="M233.07,166.04c-.1-.05-.18-.12-.19-.24,0-.04.05-.11.08-.11.09,0,.15.06.16.14.02.08.04.16-.05.2Z"/>
  <path class="cls-1" d="M2.75,5.24c.09,0,.16.05.18.13.03.1-.03.17-.13.13-.07-.03-.11-.11-.16-.17.03-.03.07-.06.1-.09Z"/>
  <path class="cls-1" d="M203.9,11.95c-.1-.01-.14-.08-.14-.16,0-.09.05-.16.14-.15.09,0,.15.07.15.16,0,.09-.06.14-.15.15Z"/>
  <path class="cls-1" d="M250.99,13.24c.09.01.13.08.13.16,0,.06,0,.17-.1.12-.05-.03-.08-.12-.11-.19,0-.02.05-.06.08-.09Z"/>
  <path class="cls-1" d="M154.23,111.73s-.04.11-.08.12c-.09.02-.16-.03-.17-.12,0-.04.05-.1.08-.12.09-.03.15.02.16.12Z"/>
  <path class="cls-1" d="M6.27,112.63s-.06-.09-.05-.12c.02-.08.09-.12.16-.07.03.02.04.1.02.14-.02.03-.08.03-.13.05Z"/>
  <path class="cls-1" d="M266.01,112.39c.1.03.18.1.2.21.02.08-.04.16-.12.16-.12,0-.19-.1-.21-.21-.01-.08.03-.15.13-.16Z"/>
  <path class="cls-1" d="M271.31,113.64c-.02.09-.08.15-.17.12-.08-.02-.11-.11-.09-.19.02-.08.05-.16.16-.12.08.03.11.1.1.19Z"/>
  <path class="cls-1" d="M3.71,114.91c-.08-.02-.1-.07-.06-.13.04-.07.08-.14.13-.18.03-.02.08.06.05.12-.03.07-.08.13-.12.19Z"/>
  <path class="cls-1" d="M221.62,116.41s-.12-.04-.13-.07c-.03-.11.06-.15.14-.15.05,0,.13.04.14.06.01.1-.06.14-.15.16Z"/>
  <path class="cls-1" d="M261.35,94.96s-.09.11-.15.12c-.09.02-.12-.07-.12-.14,0-.08.05-.15.14-.15.08,0,.15.04.13.17Z"/>
  <path class="cls-1" d="M170.8,121.08c-.02-.05-.04-.1-.05-.15-.02-.11-.05-.22.08-.28.02,0,.05,0,.07,0,.12.1.02.18-.03.27-.03.04-.06.09-.08.14,0,0,.02.02.02.02Z"/>
  <path class="cls-1" d="M207.47,62.6c.1.02.12.09.11.17,0,.05-.05.12-.08.12-.09.02-.16-.04-.17-.13,0-.09.04-.15.13-.16Z"/>
  <path class="cls-1" d="M275.38,125.73c0,.11-.09.11-.16.14-.08.03-.16.02-.16-.09,0-.04.06-.09.1-.1.08-.03.16-.04.21.05Z"/>
  <path class="cls-1" d="M75.27,57.86c.04.05.09.08.09.12,0,.07-.02.14-.03.21-.03-.03-.08-.06-.09-.1,0-.07.01-.14.02-.23Z"/>
  <path class="cls-1" d="M63.34,56.53c.1.21.19.43.04.49-.15.06-.11-.16-.12-.27,0-.05.03-.1.08-.22Z"/>
  <path class="cls-1" d="M256.79,54.02s.11.05.11.08c0,.12-.08.19-.19.2-.04,0-.11-.05-.11-.08,0-.12.07-.19.19-.2Z"/>
  <path class="cls-1" d="M38.81,99.73s-.02.02-.03.03c0-.02,0-.05,0-.07,0-.03,0-.05,0-.08.01.04.02.08.03.11Z"/>
  <path class="cls-1" d="M204.82,53.05s-.1-.05-.1-.08c0-.05.03-.1.06-.14.04-.06.1-.05.12.01.03.08,0,.15-.07.2Z"/>
  <path class="cls-1" d="M12.25,129.67s-.02.12-.05.13c-.08.04-.15,0-.2-.09-.04-.07-.02-.11.05-.13.08-.02.16-.02.2.08Z"/>
  <path class="cls-1" d="M149.21,89.74c.14.29.12.43-.03.54-.02.02-.13-.02-.13-.04-.05-.19.14-.25.16-.49Z"/>
  <path class="cls-1" d="M183.03,52.45c-.03.08-.09.12-.17.11-.08,0-.14-.07-.11-.16.01-.03.08-.06.13-.07.07,0,.15.01.16.11Z"/>
  <path class="cls-1" d="M277.36,46.4c-.03.05-.05.11-.08.13-.07.04-.15.02-.19-.05-.03-.05-.01-.11.05-.11.07,0,.14.02.22.03Z"/>
  <path class="cls-1" d="M228.86,40.11c-.02.11-.06.21-.19.2-.02,0-.07-.08-.07-.11.02-.1.05-.21.18-.21.02,0,.05.08.07.12Z"/>
  <path class="cls-1" d="M99.44,35.71s-.06.08-.09.11c-.05-.05-.11-.09-.15-.15-.03-.06.01-.12.06-.1.07.03.12.09.18.13Z"/>
  <path class="cls-1" d="M210.6,139.09s0,.12-.04.13c-.09.04-.15-.03-.17-.1-.01-.04.01-.12.04-.13.09-.05.13.03.16.1Z"/>
  <path class="cls-1" d="M249.43,139.22c-.06.04-.12.11-.18.11-.1,0-.1-.09-.08-.16.03-.08.11-.11.19-.08.03,0,.04.07.06.13Z"/>
  <path class="cls-1" d="M129.14,84.34s-.07.09-.1.09c-.09,0-.15-.06-.16-.15,0-.1.03-.16.14-.13.08.03.11.11.11.19Z"/>
  <path class="cls-1" d="M167.53,26.76s-.03-.09-.01-.12c.03-.06.09-.12.13-.17,0,.05.03.1.02.14-.02.07-.04.16-.14.15Z"/>
  <path class="cls-1" d="M51.92,150.54c.01.08-.01.15-.1.17-.09.01-.14-.05-.14-.14,0-.04.03-.12.06-.13.08-.02.15.01.18.1Z"/>
  <path class="cls-1" d="M219.87,154.84c-.22.04-.47.17-.64-.15.29-.22.39.25.62.16,0,0,.01,0,.01,0Z"/>
  <path class="cls-1" d="M33.02,34.22s-.05.1-.09.12c-.06.02-.11-.02-.1-.08,0-.04.05-.1.09-.12.06-.03.1.01.1.08Z"/>
  <path class="cls-1" d="M138.58,24.89c.08.03.12.1.1.18-.02.07-.06.13-.1.2-.04-.07-.08-.13-.1-.2-.03-.09.01-.15.1-.19Z"/>
  <path class="cls-1" d="M246.82,24.09c-.05.02-.12.07-.19.08-.09,0-.15-.08-.1-.15.03-.05.14-.05.22-.05.07,0,.09.04.07.12Z"/>
  <path class="cls-1" d="M3.76,163.83s-.06.08-.1.09c-.06.01-.08-.04-.04-.1.03-.04.06-.1.1-.11.06-.01.07.05.04.12Z"/>
  <path class="cls-1" d="M45.89,27.98c.02.11-.05.15-.13.15-.07,0-.19-.04-.2-.08-.03-.12.05-.2.17-.22.08,0,.14.06.16.14Z"/>
  <path class="cls-1" d="M3.78,166.89c-.01.08-.03.17-.13.17-.1,0-.1-.1-.07-.18.03-.07.07-.15.16-.14.02,0,.02.09.04.15Z"/>
  <path class="cls-1" d="M193.68,22.99c.05-.1.13-.17.24-.15.08.02.1.12.07.2-.03.08-.09.14-.18.11-.08-.02-.13-.08-.13-.16Z"/>
  <path class="cls-1" d="M125.9,168c-.03.14-.13.16-.24.14-.08-.01-.16-.07-.09-.16.04-.06.12-.11.19-.12.11-.03.12.06.13.15Z"/>
  <path class="cls-1" d="M269.99,170.62c.12,0,.19.02.2.12,0,.09-.07.15-.15.15-.11.01-.23-.01-.21-.16,0-.05.12-.08.16-.11Z"/>
  <path class="cls-1" d="M194.26,16.69c-.14-.09-.24-.32-.18-.37.18-.12.18.1.21.22.01.04-.02.1-.04.15Z"/>
  <path class="cls-1" d="M201.9,171.11c-.02.08-.07.14-.16.12-.02,0-.06-.08-.05-.12,0-.08.07-.14.15-.13.02,0,.04.08.06.12Z"/>
  <path class="cls-1" d="M139.2,14.48c.08-.01.11.02.09.09-.01.05-.03.11-.06.14-.05.05-.12.03-.12-.03,0-.07.06-.14.09-.2Z"/>
  <path class="cls-1" d="M251.42,14.23c-.02.09-.06.1-.1.05-.05-.05-.1-.12-.11-.18,0-.05.07-.08.11-.03.05.05.08.12.11.17Z"/>
  <path class="cls-1" d="M214.93,14.11c-.02.08-.04.18-.14.13-.06-.02-.12-.11-.14-.18-.03-.12.07-.13.15-.13.09,0,.13.08.13.17Z"/>
  <path class="cls-1" d="M18.02,175.4s-.05.02-.07,0c-.02-.01-.04-.04-.05-.06-.02-.07,0-.07.07,0,.02.02.03.04.05.05Z"/>
  <path class="cls-1" d="M211.03,77.96c-.06.04-.12.08-.17.12-.02-.04-.05-.09-.05-.13,0-.08.06-.15.15-.12.03,0,.04.08.07.14Z"/>
  <path class="cls-1" d="M169.42,177.17c-.01-.1.03-.16.13-.17.08,0,.18,0,.21.09.03.12-.04.21-.17.22-.09,0-.14-.05-.16-.14Z"/>
  <path class="cls-1" d="M4.57,27.61c-.05-.08-.09-.14-.12-.21-.03-.06,0-.12.06-.12.1,0,.12.1.12.18,0,.04-.03.09-.06.15Z"/>
  <path class="cls-1" d="M221.06,181.56s-.11-.07-.1-.1c.01-.09.1-.12.18-.11.06,0,.09.07.05.13-.02.04-.08.06-.12.08Z"/>
  <path class="cls-1" d="M39.66,85.23c-.06.09-.11.18-.18.26-.03.04-.08,0-.08-.08,0-.11,0-.23.13-.27.02,0,.07.05.13.09Z"/>
  <path class="cls-1" d="M265.93,32.62s-.1.03-.12,0c-.03-.03-.04-.09-.05-.14,0-.07.05-.1.1-.07.07.04.11.11.07.2Z"/>
  <path class="cls-1" d="M79.95,183.09c0,.07-.05.14-.14.14-.11,0-.22-.04-.2-.18.01-.06.11-.12.17-.14.08-.01.14.06.16.17Z"/>
  <path class="cls-1" d="M84.42,13.97c0-.09.04-.16.13-.16.09,0,.13.08.12.16,0,.04-.04.11-.08.12-.08.02-.15-.02-.17-.12Z"/>
  <path class="cls-1" d="M134.19,148.81c.08.07.16.15.24.22.07.07.08.14,0,.21-.02.02-.05.04-.07.04-.13.01-.12-.08-.11-.16.01-.11.03-.22-.06-.31h0Z"/>
  <path class="cls-1" d="M249.91,149.87c-.04.11-.07.22-.2.21-.08,0-.13-.06-.12-.16,0-.1,0-.23.12-.25.13-.02.16.11.2.2Z"/>
  <path class="cls-1" d="M107.68,186.52c.12,0,.17.06.19.14.02.08,0,.15-.1.17-.1.03-.15-.03-.15-.12,0-.07.04-.13.06-.19Z"/>
  <path class="cls-1" d="M135.04,188.1c.06,0,.1.04.08.1-.01.05-.04.1-.07.14-.05.05-.11.03-.12-.04-.01-.08.02-.16.11-.19Z"/>
  <path class="cls-1" d="M172.29,109.75s-.11-.03-.13-.07c-.05-.08-.02-.15.06-.2.06-.04.11-.02.13.04.02.08.01.16-.06.22Z"/>
  <path class="cls-1" d="M267.83,189.54s-.02,0-.03,0c0-.05,0-.1,0-.15,0,0,0,0,.01,0,0,.05.01.1.01.15Z"/>
  <path class="cls-1" d="M57.86,137.5c-.08-.01-.15-.06-.15-.14,0-.09.08-.12.16-.11.04,0,.1.05.11.08.02.08-.03.15-.12.17Z"/>
</svg>