<svg width="80" height="80" viewBox="0 0 80 80" fill="none" xmlns="http://www.w3.org/2000/svg">
<path d="M58.5415 40.459C59.1289 42.8262 59.4116 45.3115 59.3716 47.73L52.834 46.5737C50.7908 46.2124 48.8105 47.4733 48.2735 49.4774L44.3193 64.236C43.7798 66.2502 44.878 68.3412 46.8429 69.0399L48.9377 69.7849C50.3572 70.2897 51.9592 69.9743 53.0367 68.9216C60.4844 61.6445 63.5854 50.1481 60.9683 39.8565L58.5415 40.459ZM50.6255 67.7319L46.3755 66.2207L51.0439 48.7964L59.2221 50.2422C58.5386 57.1011 55.5171 63.2524 50.6255 67.7319ZM56.25 2.75H51.0415C41.7368 2.75 34.1665 10.3203 34.1665 19.625V36.5H56.25C65.5547 36.5 73.125 28.9297 73.125 19.625C73.125 10.3203 65.5547 2.75 56.25 2.75ZM56.25 34H36.6665V19.625C36.6665 11.6987 43.1152 5.25 51.0415 5.25H56.25C64.1763 5.25 70.625 11.6987 70.625 19.625C70.625 27.5513 64.1763 34 56.25 34ZM20.1518 69.6648L21.909 69.0399C23.8739 68.3412 24.9722 66.2502 24.4326 64.2359L20.4783 49.4773C19.9414 47.4732 17.9612 46.2123 15.9181 46.5736L9.3789 47.73C9.37817 47.7294 9.37792 47.7291 9.37719 47.7286C9.21398 34.3273 18.1047 23.0141 30.3965 20.9053L29.9736 18.4414C16.5894 20.7378 6.875 32.9018 6.875 47.3657C6.875 48.0176 6.9082 48.6357 6.94434 49.2871C7.45533 57.4971 11.0212 64.8718 16.9851 70.0627L16.9736 70.0747L23.5752 76.4303C24.3204 77.1479 25.3148 77.5488 26.3494 77.5488H37.938V75.0488H25.7446L20.1518 69.6648ZM9.52978 50.2422L17.708 48.7964L22.3765 66.2207L18.1265 67.7319C13.2378 63.2549 10.2168 57.1079 9.52978 50.2422Z" fill="black"/>
</svg>
