<svg width="124" height="40" viewBox="0 0 124 40" fill="none" xmlns="http://www.w3.org/2000/svg">
<path d="M119.5 0.5H4.50006C2.29092 0.5 0.500061 2.29086 0.500061 4.5V35.5C0.500061 37.7091 2.29092 39.5 4.50006 39.5H119.5C121.709 39.5 123.5 37.7091 123.5 35.5V4.5C123.5 2.29086 121.709 0.5 119.5 0.5Z" stroke="white"/>
<path d="M24.3896 19.0424C24.4123 17.2783 25.3373 15.6487 26.8404 14.7247C25.8878 13.3644 24.3496 12.5329 22.6897 12.481C20.9433 12.2977 19.2503 13.5259 18.3603 13.5259C17.4532 13.5259 16.083 12.4992 14.6076 12.5295C12.6663 12.5922 10.9003 13.6691 9.95584 15.3662C7.94457 18.8482 9.4448 23.9656 11.3715 26.7802C12.3354 28.1584 13.462 29.698 14.9361 29.6434C16.3786 29.5835 16.9174 28.7236 18.6586 28.7236C20.3837 28.7236 20.8891 29.6434 22.3932 29.6087C23.941 29.5835 24.9163 28.2243 25.8464 26.833C26.539 25.851 27.072 24.7656 27.4255 23.6171C25.5871 22.8396 24.3917 21.0384 24.3896 19.0424Z" fill="white"/>
<path d="M21.5488 10.6299C22.3928 9.61682 22.8086 8.31468 22.7079 7C21.4185 7.13541 20.2274 7.75161 19.3721 8.72582C18.5274 9.68701 18.0995 10.9445 18.1826 12.2213C19.4893 12.2348 20.73 11.6482 21.5488 10.6299Z" fill="white"/>
<path d="M41.696 26.2927H36.9622L35.8254 29.6492H33.8204L38.3042 17.2312H40.3873L44.8711 29.6492H42.8318L41.696 26.2927ZM37.4525 24.7439H41.2048L39.3551 19.2966H39.3033L37.4525 24.7439Z" fill="white"/>
<path d="M54.5544 25.1228C54.5544 27.9363 53.0485 29.7439 50.7758 29.7439C49.6011 29.8054 48.4946 29.1901 47.927 28.1599H47.884V32.6443H46.0254V20.5955H47.8244V22.1013H47.8585C48.4514 21.0776 49.5591 20.4626 50.7416 20.5007C53.0397 20.5007 54.5544 22.3171 54.5544 25.1228ZM52.6441 25.1228C52.6441 23.2898 51.6968 22.0847 50.2514 22.0847C48.8313 22.0847 47.8762 23.3152 47.8762 25.1228C47.8762 26.947 48.8313 28.1687 50.2514 28.1687C51.6968 28.1687 52.6441 26.9724 52.6441 25.1228Z" fill="white"/>
<path d="M64.5205 25.1228C64.5205 27.9363 63.0141 29.7439 60.7414 29.7439C59.5667 29.8054 58.4602 29.1901 57.8926 28.1599H57.8496V32.6443H55.991V20.5955H57.79V22.1013H57.8242C58.417 21.0776 59.5247 20.4626 60.7072 20.5007C63.0053 20.5007 64.5205 22.3171 64.5205 25.1228ZM62.6097 25.1228C62.6097 23.2898 61.6624 22.0847 60.217 22.0847C58.7969 22.0847 57.8418 23.3152 57.8418 25.1228C57.8418 26.947 58.7969 28.1687 60.217 28.1687C61.6624 28.1687 62.6097 26.9724 62.6097 25.1228H62.6097Z" fill="white"/>
<path d="M71.106 26.1892C71.2437 27.4207 72.4401 28.2292 74.075 28.2292C75.6415 28.2292 76.7685 27.4206 76.7685 26.3103C76.7685 25.3464 76.0888 24.7693 74.4793 24.3737L72.8698 23.986C70.5894 23.4353 69.5307 22.3689 69.5307 20.6384C69.5307 18.4958 71.398 17.0241 74.0486 17.0241C76.6738 17.0241 78.4728 18.4958 78.5333 20.6384H76.6572C76.5449 19.3991 75.5204 18.6511 74.0232 18.6511C72.526 18.6511 71.5015 19.4079 71.5015 20.5095C71.5015 21.3874 72.1559 21.904 73.7566 22.2995L75.1248 22.6354C77.6729 23.238 78.7306 24.2614 78.7306 26.0778C78.7306 28.401 76.8808 29.8561 73.9372 29.8561C71.1831 29.8561 69.3236 28.4352 69.2035 26.1891L71.106 26.1892Z" fill="white"/>
<path d="M82.7436 18.4529V20.5955H84.4654V22.0671H82.7436V27.0584C82.7436 27.8337 83.0884 28.1951 83.8453 28.1951C84.0497 28.1915 84.2537 28.1772 84.4566 28.1521V29.615C84.1163 29.6785 83.7705 29.7073 83.4243 29.7009C81.5912 29.7009 80.8763 29.0124 80.8763 27.2566V22.0671H79.5598V20.5955H80.8763V18.4529H82.7436Z" fill="white"/>
<path d="M85.4616 25.1228C85.4616 22.2742 87.1395 20.4841 89.7559 20.4841C92.3811 20.4841 94.0511 22.2741 94.0511 25.1228C94.0511 27.9793 92.3899 29.7615 89.7559 29.7615C87.1229 29.7615 85.4616 27.9793 85.4616 25.1228ZM92.1574 25.1228C92.1574 23.1687 91.2618 22.0154 89.7559 22.0154C88.2499 22.0154 87.3543 23.1775 87.3543 25.1228C87.3543 27.0847 88.2499 28.2293 89.7559 28.2293C91.2618 28.2293 92.1574 27.0847 92.1574 25.1228Z" fill="white"/>
<path d="M95.5835 20.5955H97.3561V22.1365H97.3991C97.6463 21.1445 98.5553 20.4617 99.577 20.5007C99.7912 20.5 100.005 20.5232 100.214 20.5701V22.3083C99.9434 22.2257 99.6613 22.1878 99.3787 22.196C98.8323 22.1739 98.3035 22.3916 97.9312 22.7921C97.5588 23.1926 97.3801 23.7358 97.442 24.279V29.6492H95.5835V20.5955Z" fill="white"/>
<path d="M108.783 26.99C108.533 28.6335 106.932 29.7615 104.884 29.7615C102.25 29.7615 100.615 27.9968 100.615 25.1658C100.615 22.3259 102.259 20.4841 104.806 20.4841C107.311 20.4841 108.886 22.2048 108.886 24.95V25.5867H102.491V25.699C102.432 26.373 102.664 27.0402 103.13 27.5309C103.596 28.0215 104.251 28.2883 104.927 28.2634C105.829 28.3479 106.679 27.8301 107.018 26.99L108.783 26.99ZM102.5 24.2879H107.027C107.06 23.6822 106.84 23.0899 106.418 22.6537C105.997 22.2175 105.412 21.977 104.806 21.99C104.195 21.9863 103.607 22.227 103.174 22.6585C102.741 23.09 102.498 23.6766 102.5 24.2879Z" fill="white"/>
<path d="M37.2201 7.88408C38.0091 7.82746 38.7819 8.12761 39.3258 8.70193C39.8697 9.27624 40.1274 10.0642 40.0279 10.8489C40.0279 12.7551 38.9976 13.8509 37.2201 13.8509H35.0646V7.88408H37.2201ZM35.9915 13.0071H37.1165C37.6804 13.0408 38.2295 12.8186 38.6112 12.4023C38.993 11.986 39.1668 11.4199 39.0845 10.8611C39.1608 10.3046 38.9845 9.74312 38.6037 9.33021C38.2228 8.9173 37.6774 8.69616 37.1165 8.72729H35.9915V13.0071Z" fill="white"/>
<path d="M41.0749 11.5974C40.9976 10.7903 41.3847 10.0092 42.0737 9.58168C42.7627 9.15416 43.6345 9.15416 44.3235 9.58168C45.0124 10.0092 45.3995 10.7903 45.3223 11.5974C45.401 12.4054 45.0143 13.188 44.3247 13.6165C43.6351 14.0449 42.7621 14.0449 42.0725 13.6165C41.3829 13.188 40.9962 12.4054 41.0749 11.5974ZM44.4081 11.5974C44.4081 10.6213 43.9696 10.0505 43.2 10.0505C42.4275 10.0505 41.9929 10.6213 41.9929 11.5974C41.9929 12.5813 42.4275 13.1477 43.2 13.1477C43.9696 13.1477 44.4081 12.5774 44.4081 11.5974Z" fill="white"/>
<path d="M50.9682 13.8508H50.0463L49.1155 10.5344H49.0452L48.1184 13.8508H47.2052L45.9639 9.3479H46.8654L47.6721 12.7839H47.7385L48.6643 9.3479H49.5169L50.4428 12.7839H50.5131L51.3159 9.3479H52.2046L50.9682 13.8508Z" fill="white"/>
<path d="M53.2487 9.3479H54.1042V10.0632H54.1706C54.4016 9.53656 54.9412 9.21439 55.5145 9.26098C55.9583 9.22761 56.3933 9.39787 56.6965 9.72368C56.9997 10.0495 57.1383 10.4955 57.0732 10.9358V13.8508H56.1844V11.1589C56.1844 10.4353 55.87 10.0754 55.2127 10.0754C54.9116 10.0614 54.6195 10.1796 54.4128 10.3989C54.2061 10.6182 54.1055 10.9169 54.1374 11.2166V13.8508H53.2487V9.3479Z" fill="white"/>
<path d="M58.4893 7.59008H59.378V13.8508H58.4893V7.59008Z" fill="white"/>
<path d="M60.6135 11.5974C60.5364 10.7903 60.9235 10.0091 61.6125 9.5816C62.3016 9.15408 63.1734 9.15408 63.8624 9.5816C64.5515 10.0091 64.9386 10.7903 64.8614 11.5974C64.94 12.4054 64.5532 13.188 63.8636 13.6165C63.174 14.0449 62.301 14.0449 61.6113 13.6165C60.9217 13.188 60.5349 12.4054 60.6135 11.5974ZM63.9468 11.5974C63.9468 10.6213 63.5083 10.0505 62.7387 10.0505C61.9662 10.0505 61.5316 10.6213 61.5316 11.5974C61.5316 12.5813 61.9662 13.1477 62.7387 13.1477C63.5082 13.1477 63.9468 12.5774 63.9468 11.5974Z" fill="white"/>
<path d="M65.797 12.5774C65.797 11.7669 66.4006 11.2996 67.4719 11.2332L68.6917 11.1629V10.7742C68.6917 10.2986 68.3773 10.03 67.7698 10.03C67.2737 10.03 66.9299 10.2122 66.8313 10.5305H65.9708C66.0617 9.75709 66.7893 9.261 67.8108 9.261C68.9398 9.261 69.5766 9.823 69.5766 10.7742V13.8508H68.7211V13.218H68.6507C68.3602 13.6802 67.8434 13.9502 67.2981 13.925C66.9158 13.9648 66.5345 13.841 66.2485 13.5842C65.9625 13.3275 65.7985 12.9617 65.797 12.5774ZM68.6917 12.1926V11.8162L67.5921 11.8865C66.9719 11.928 66.6906 12.1389 66.6906 12.5359C66.6906 12.9412 67.0422 13.177 67.5257 13.177C67.8119 13.206 68.0976 13.1175 68.3174 12.932C68.5372 12.7464 68.6723 12.4796 68.6917 12.1926Z" fill="white"/>
<path d="M70.7446 11.5974C70.7446 10.1746 71.4761 9.2732 72.6139 9.2732C73.1884 9.24673 73.7265 9.55455 73.9949 10.0632H74.0613V7.59008H74.95V13.8508H74.0984V13.1394H74.0281C73.7395 13.6438 73.1947 13.9464 72.6139 13.925C71.4684 13.9251 70.7446 13.0237 70.7446 11.5974ZM71.6627 11.5974C71.6627 12.5525 72.1129 13.1272 72.8659 13.1272C73.615 13.1272 74.0779 12.5442 74.0779 11.6013C74.0779 10.6629 73.6101 10.0715 72.8659 10.0715C72.1178 10.0715 71.6627 10.6502 71.6627 11.5974H71.6627Z" fill="white"/>
<path d="M78.7345 8.01636C78.7205 7.78085 78.8516 7.56061 79.0653 7.46065C79.279 7.36069 79.5321 7.40123 79.7039 7.56295C79.8757 7.72467 79.9315 7.97483 79.8446 8.19418C79.7577 8.41352 79.5457 8.55765 79.3098 8.55786C79.1608 8.56545 79.0153 8.51196 78.9067 8.40975C78.7981 8.30754 78.7359 8.16546 78.7345 8.01636ZM78.8664 9.3479H79.7522V13.8508H78.8664V9.3479Z" fill="white"/>
<path d="M81.1859 9.3479H82.0414V10.0632H82.1078C82.3388 9.53656 82.8785 9.21439 83.4517 9.26098C83.8955 9.22761 84.3305 9.39787 84.6337 9.72368C84.9369 10.0495 85.0755 10.4955 85.0104 10.9358V13.8508H84.1217V11.1589C84.1217 10.4353 83.8072 10.0754 83.1499 10.0754C82.8488 10.0614 82.5567 10.1796 82.35 10.3989C82.1433 10.6182 82.0427 10.9169 82.0746 11.2166V13.8508H81.1859V9.3479Z" fill="white"/>
<path d="M88.6054 11.5974C88.6054 10.1746 89.3369 9.2732 90.4747 9.2732C91.0492 9.24673 91.5873 9.55455 91.8557 10.0632H91.9221V7.59008H92.8108V13.8508H91.9592V13.1394H91.8889C91.6002 13.6438 91.0555 13.9464 90.4747 13.925C89.3291 13.9251 88.6054 13.0237 88.6054 11.5974ZM89.5235 11.5974C89.5235 12.5525 89.9737 13.1272 90.7267 13.1272C91.4758 13.1272 91.9387 12.5442 91.9387 11.6013C91.9387 10.6629 91.4709 10.0715 90.7267 10.0715C89.9785 10.0715 89.5234 10.6502 89.5234 11.5974H89.5235Z" fill="white"/>
<path d="M98.0768 12.635C97.8276 13.4844 97.0056 14.0332 96.1255 13.9377C95.525 13.9536 94.9479 13.7047 94.5473 13.2571C94.1467 12.8096 93.9631 12.2085 94.0453 11.6135C93.9653 11.0169 94.1482 10.4149 94.5466 9.96351C94.945 9.51216 95.5196 9.25584 96.1216 9.26098C97.3746 9.26098 98.1305 10.117 98.1305 11.531V11.8411H94.9506V11.8909C94.9225 12.225 95.0366 12.5555 95.2649 12.8011C95.4933 13.0467 95.8146 13.1846 96.1499 13.1809C96.5847 13.2331 97.008 13.0174 97.2213 12.635L98.0768 12.635ZM94.9506 11.1838H97.2252C97.2478 10.8782 97.1404 10.5773 96.9293 10.3551C96.7182 10.133 96.4231 10.0103 96.1167 10.0173C95.8062 10.0134 95.5072 10.1351 95.2877 10.3547C95.0681 10.5744 94.9466 10.8733 94.9506 11.1838H94.9506Z" fill="white"/>
</svg>
