<svg width="124" height="148" viewBox="0 0 124 148" fill="none" xmlns="http://www.w3.org/2000/svg">
<g clip-path="url(#clip0_4135_44434)">
<path d="M-67.8733 76.4261L-74.4844 81.2539L12.1743 199.921L18.7853 195.093L-67.8733 76.4261Z" fill="black"/>
<path d="M-50.4808 63.7238L-57.0918 68.5516L29.5668 187.219L36.1779 182.391L-50.4808 63.7238Z" fill="black"/>
<path d="M-33.096 51.0292L-39.707 55.8571L46.9516 174.524L53.5627 169.696L-33.096 51.0292Z" fill="black"/>
<path d="M-15.7015 38.3268L-22.3125 43.1547L64.3461 161.822L70.9572 156.994L-15.7015 38.3268Z" fill="black"/>
<path d="M19.0759 12.93L12.4648 17.7578L99.1235 136.425L105.735 131.597L19.0759 12.93Z" fill="black"/>
<path d="M1.68331 25.6324L-4.92773 30.4602L81.7309 149.127L88.342 144.3L1.68331 25.6324Z" fill="black"/>
<path d="M36.4587 0.235653L29.8477 5.06348L116.506 123.731L123.117 118.903L36.4587 0.235653Z" fill="black"/>
</g>
<defs>
<clipPath id="clip0_4135_44434">
<rect width="137.377" height="146.941" fill="white" transform="translate(-74.4844 81.2539) rotate(-36.1394)"/>
</clipPath>
</defs>
</svg>
