<svg width="83" height="136" viewBox="0 0 83 136" fill="none" xmlns="http://www.w3.org/2000/svg">
<g clip-path="url(#clip0_4135_44430)">
<path d="M93.9288 -38.9954L88.4844 -43.873L0.931429 53.8532L6.37584 58.7308L93.9288 -38.9954Z" fill="black"/>
<path d="M108.255 -26.162L102.811 -31.0397L15.2576 66.6865L20.702 71.5642L108.255 -26.162Z" fill="black"/>
<path d="M122.567 -13.3365L117.123 -18.2141L29.5701 79.5121L35.0145 84.3897L122.567 -13.3365Z" fill="black"/>
<path d="M136.894 -0.502969L131.449 -5.38062L43.8963 92.3456L49.3407 97.2232L136.894 -0.502969Z" fill="black"/>
<path d="M165.534 25.156L160.09 20.2783L72.5369 118.005L77.9813 122.882L165.534 25.156Z" fill="black"/>
<path d="M151.21 12.3225L145.766 7.44482L58.2127 105.171L63.6571 110.049L151.21 12.3225Z" fill="black"/>
</g>
<defs>
<clipPath id="clip0_4135_44430">
<rect width="122.67" height="131.209" fill="white" transform="translate(88.4844 -43.873) rotate(41.8572)"/>
</clipPath>
</defs>
</svg>
