<svg width="80" height="80" viewBox="0 0 80 80" fill="none" xmlns="http://www.w3.org/2000/svg">
<path fill-rule="evenodd" clip-rule="evenodd" d="M73.4254 50.75C75.4204 50.75 76.8597 52.661 76.3088 54.5784L75.2476 58.2722C74.3521 62.3494 70.9907 65.25 67.0933 65.25H32.8223V62.75H67.0933C69.8081 62.75 72.165 60.656 72.8257 57.658L74.0898 53.25H46.7119L46.3647 54.76C46.0757 56.1894 44.8408 57.25 43.4355 57.25H32.8223V54.75H43.4355C43.6528 54.75 43.8613 54.5273 43.9214 54.2319L44.7217 50.75H68.5723V11.25H44.5061L43.5757 14H34.8154L33.885 11.25H10.0723V24H7.57227V12.75C7.57227 10.5409 9.36313 8.75 11.5723 8.75H67.0723C69.2814 8.75 71.0723 10.5409 71.0723 12.75V50.75H73.4254ZM7.57227 26.75H26.0723C28.2814 26.75 30.0723 28.5409 30.0723 30.75V67.25C30.0723 69.4591 28.2814 71.25 26.0723 71.25H7.57227C5.36313 71.25 3.57227 69.4591 3.57227 67.25V30.75C3.57227 28.5409 5.36313 26.75 7.57227 26.75ZM6.07227 68.75H27.5723V29.25H6.07227V68.75ZM16.7207 64.9661C18.9111 64.9661 20.6869 63.1904 20.6868 61H12.7546C12.7546 63.1904 14.5303 64.9661 16.7207 64.9661Z" fill="black"/>
</svg>
