<svg width="80" height="80" viewBox="0 0 80 80" fill="none" xmlns="http://www.w3.org/2000/svg">
<path d="M16.25 7.75V72.25C16.25 74.4591 18.0409 76.25 20.25 76.25H59.75C61.9591 76.25 63.75 74.4591 63.75 72.25V7.75C63.75 5.54086 61.9591 3.75 59.75 3.75H20.25C18.0409 3.75 16.25 5.54086 16.25 7.75ZM61.25 73.75H18.75V6.25H31.9065C32.0688 8.34497 33.8008 10 35.9375 10H44.0625C46.1992 10 47.9312 8.34497 48.0935 6.25H61.25V73.75ZM34.0869 62.5H45.9131C45.9131 65.7658 43.2656 68.4132 40 68.4132C36.7344 68.4132 34.0869 65.7659 34.0869 62.5Z" fill="black"/>
</svg>
