<svg width="80" height="80" viewBox="0 0 80 80" fill="none" xmlns="http://www.w3.org/2000/svg">
<path fill-rule="evenodd" clip-rule="evenodd" d="M14.1191 9.98999H25.7091C25.7291 11.97 27.3391 13.58 29.3291 13.58H36.5891C38.5791 13.58 40.1891 11.98 40.2091 9.98999H51.7991V26.67H54.2991V11.49C54.2991 9.27999 52.5091 7.48999 50.2991 7.48999H15.6191C13.4091 7.48999 11.6191 9.27999 11.6191 11.49V21.67H14.1191V9.98999ZM32.9695 65.38C35.8895 65.38 38.2495 63.02 38.2495 60.1H27.6895C27.6895 63.02 30.0495 65.38 32.9695 65.38ZM50.5091 31.74H68.9291L79.0691 41.88V68.51C79.0691 70.72 77.2791 72.51 75.0691 72.51H15.6191C13.4091 72.51 11.6191 70.72 11.6191 68.51V56.67H14.1191V70.01H46.5091V35.74C46.5091 33.53 48.2991 31.74 50.5091 31.74ZM49.0091 70.01H76.5791V42.92L67.8991 34.24H49.0091V70.01ZM70.9898 53.49H54.5898V64.43H70.9898V53.49ZM25.9199 39.17C25.9199 46.07 20.3199 51.67 13.4199 51.67C6.51992 51.67 0.919922 46.07 0.919922 39.17C0.919922 32.27 6.51992 26.67 13.4199 26.67C20.3199 26.67 25.9199 32.27 25.9199 39.17ZM12.1699 37.92H7.16992V40.42H12.1699V45.42H14.6699V40.42H19.6699V37.92H14.6699V32.92H12.1699V37.92Z" fill="black"/>
</svg>
