<svg width="80" height="80" viewBox="0 0 80 80" fill="none" xmlns="http://www.w3.org/2000/svg">
<path d="M9.36104 46.1377L6.90987 46.6299C4.68135 35.542 8.13057 24.1416 16.1369 16.1343C22.5105 9.76026 30.9851 6.25 40.0002 6.25C49.0153 6.25 57.4899 9.76025 63.8635 16.1343C64.7095 16.9806 65.5056 17.8652 66.2502 18.7791V5H68.7502V23.75H50.0002V21.25H65.0069C64.1244 20.0837 63.1541 18.9604 62.0959 17.9019C56.1945 12 48.3474 8.75 40.0002 8.75C31.653 8.75 23.8059 12 17.9045 17.9019C10.4914 25.3159 7.29757 35.8716 9.36104 46.1377ZM73.0905 33.3701L70.6394 33.8623C72.7028 44.1284 69.509 54.6841 62.0959 62.0981C56.1945 68 48.3474 71.25 40.0002 71.25C31.653 71.25 23.8059 68 17.9045 62.0981C16.8381 61.0311 15.8686 59.9083 14.9951 58.75H30.0002V56.25H11.2502V75H13.7502V61.2208C14.4902 62.1301 15.2861 63.0146 16.1369 63.8657C22.5105 70.2398 30.9851 73.75 40.0002 73.75C49.0153 73.75 57.4899 70.2398 63.8635 63.8657C71.8698 55.8584 75.3191 44.458 73.0905 33.3701Z" fill="black"/>
</svg>
