<svg width="2849" height="1933" viewBox="0 0 2849 1933" fill="none" xmlns="http://www.w3.org/2000/svg">
<g clip-path="url(#clip0_3955_37351)">
<path fill-rule="evenodd" clip-rule="evenodd" d="M-2.02734 902.404C0.00739005 902.404 1.02476 902.404 3.05949 902.404C6.11159 901.387 6.11159 898.335 4.07686 896.3C3.05949 894.265 1.02476 896.3 0.00739005 896.3C0.00739005 896.3 -1.00998 896.3 -2.02734 897.317V902.404Z" fill="black"/>
<path fill-rule="evenodd" clip-rule="evenodd" d="M365.243 1930.96C363.208 1927.91 365.243 1922.82 361.173 1919.77C357.104 1924.86 363.208 1926.89 363.208 1930.96H365.243Z" fill="black"/>
<path fill-rule="evenodd" clip-rule="evenodd" d="M-2.02734 582.952C-2.02734 582.952 -2.02734 582.952 -1.00998 582.952C-1.00998 582.952 1.02476 583.97 2.04212 582.952C2.04212 581.935 2.04212 580.917 2.04212 579.9C2.04212 578.883 0.00739005 577.865 -1.00998 577.865V580.917L-2.02734 582.952Z" fill="black"/>
<path fill-rule="evenodd" clip-rule="evenodd" d="M-2.02734 506.649C-2.02734 506.649 -1.00998 506.649 0.00739005 506.649C0.00739005 506.649 2.04212 506.649 2.04212 505.632C2.04212 504.615 1.02476 504.615 0.00739005 503.597C0.00739005 503.597 -1.00998 503.597 -2.02734 503.597V506.649Z" fill="black"/>
<path fill-rule="evenodd" clip-rule="evenodd" d="M1502.66 78.3361C1502.66 76.3014 1500.62 74.2668 1502.66 72.232C1504.69 70.1973 1502.66 68.1625 1501.64 66.1278C1498.59 63.0757 1495.54 64.093 1492.49 65.1103C1489.43 65.1103 1488.42 67.1451 1488.42 70.1972C1488.42 73.2493 1488.42 77.3187 1489.43 80.3708C1489.43 83.4229 1495.54 86.475 1498.59 85.4577C1501.64 85.4577 1502.66 83.423 1501.64 79.3536L1502.66 78.3361Z" fill="black"/>
<path fill-rule="evenodd" clip-rule="evenodd" d="M1813.96 815.927C1813.96 821.014 1814.97 825.084 1819.04 828.136C1821.08 829.153 1823.11 830.171 1824.13 828.136C1825.15 828.136 1825.15 825.084 1824.13 823.049C1822.1 821.014 1822.1 817.962 1822.1 814.91C1822.1 810.841 1819.04 809.823 1815.99 808.806C1812.94 808.806 1813.96 812.875 1812.94 814.91H1814.97C1815.99 814.91 1817.01 814.91 1818.03 815.927V816.945C1817.01 817.962 1815.99 816.945 1814.97 816.945C1814.97 816.945 1813.96 815.927 1812.94 814.91L1813.96 815.927Z" fill="black"/>
<path fill-rule="evenodd" clip-rule="evenodd" d="M818.984 1057.04C818.984 1060.1 818.984 1064.17 823.054 1065.18C827.123 1065.18 826.106 1060.1 827.123 1058.06C827.123 1058.06 827.123 1056.03 827.123 1055.01C827.123 1052.97 827.123 1048.9 823.054 1049.92C818.984 1049.92 817.967 1052.97 817.967 1056.03C817.967 1056.03 817.967 1057.04 817.967 1058.06L818.984 1057.04Z" fill="black"/>
<path fill-rule="evenodd" clip-rule="evenodd" d="M870.87 258.41C868.835 258.41 867.817 258.41 866.8 258.41C865.783 258.41 863.748 260.445 863.748 262.48C863.748 264.515 865.783 265.532 866.8 265.532C869.852 265.532 872.904 266.549 874.939 268.584C874.939 268.584 875.956 269.601 876.974 268.584C876.974 268.584 877.991 267.567 877.991 266.549C877.991 262.48 874.939 259.428 872.904 256.376C872.904 255.358 870.87 256.376 869.852 256.376L870.87 258.41Z" fill="black"/>
<path fill-rule="evenodd" clip-rule="evenodd" d="M635.854 1575.9C633.82 1572.85 635.854 1571.83 635.854 1569.8C637.889 1567.76 637.889 1565.73 637.889 1563.69C637.889 1561.66 636.872 1560.64 634.837 1560.64C632.802 1560.64 632.802 1562.68 632.802 1563.69C631.785 1568.78 632.802 1573.87 630.768 1578.95C630.768 1578.95 630.768 1580.99 632.802 1582.01C634.837 1582.01 635.854 1582.01 635.854 1579.97C635.854 1577.94 635.854 1576.92 635.854 1575.9Z" fill="black"/>
<path fill-rule="evenodd" clip-rule="evenodd" d="M1094.69 1394.81C1087.57 1396.84 1081.46 1400.91 1077.4 1407.02C1077.4 1407.02 1077.4 1407.02 1078.41 1408.04C1084.52 1403.97 1089.6 1399.9 1095.71 1396.84C1095.71 1396.84 1095.71 1395.83 1094.69 1394.81Z" fill="black"/>
<path fill-rule="evenodd" clip-rule="evenodd" d="M1411.08 1501.63C1409.05 1495.53 1407.01 1494.51 1402.94 1495.53C1400.91 1495.53 1400.91 1497.56 1399.89 1499.6C1399.89 1501.63 1400.91 1502.65 1402.94 1502.65C1404.98 1502.65 1408.03 1502.65 1410.07 1501.63H1411.08Z" fill="black"/>
<path fill-rule="evenodd" clip-rule="evenodd" d="M1898.41 187.194C1894.34 179.055 1892.31 179.055 1888.24 183.125C1886.2 185.16 1888.24 186.177 1890.27 187.194C1890.27 187.194 1891.29 187.194 1892.31 187.194H1899.43H1898.41Z" fill="black"/>
<path fill-rule="evenodd" clip-rule="evenodd" d="M2760.12 1319.52C2765.2 1319.52 2767.24 1316.47 2767.24 1312.4C2767.24 1311.39 2767.24 1310.37 2767.24 1309.35C2766.22 1309.35 2764.19 1309.35 2763.17 1309.35C2761.13 1311.39 2759.1 1314.44 2760.12 1318.51V1319.52Z" fill="black"/>
<path fill-rule="evenodd" clip-rule="evenodd" d="M1276.79 1223.89C1276.79 1221.86 1274.75 1220.84 1272.72 1220.84C1269.67 1220.84 1268.65 1223.89 1268.65 1225.93C1268.65 1227.96 1270.68 1230 1272.72 1228.98C1275.77 1228.98 1276.79 1225.93 1276.79 1222.88V1223.89Z" fill="black"/>
<path fill-rule="evenodd" clip-rule="evenodd" d="M2540.36 1748.85C2545.44 1748.85 2550.53 1750.89 2555.62 1754.96C2555.62 1754.96 2558.67 1754.96 2559.69 1754.96C2560.7 1753.94 2559.69 1751.91 2558.67 1751.91C2553.58 1749.87 2547.48 1748.85 2541.37 1749.87L2540.36 1748.85Z" fill="black"/>
<path fill-rule="evenodd" clip-rule="evenodd" d="M1244.24 1494.51C1244.24 1492.48 1244.24 1490.44 1241.19 1490.44C1238.14 1490.44 1236.1 1492.48 1236.1 1495.53C1236.1 1497.56 1238.14 1499.6 1240.17 1499.6C1243.22 1499.6 1243.22 1496.55 1243.22 1494.51H1244.24Z" fill="black"/>
<path fill-rule="evenodd" clip-rule="evenodd" d="M1893.33 1015.33C1890.28 1018.38 1891.29 1021.44 1891.29 1024.49C1891.29 1025.51 1891.29 1027.54 1893.33 1027.54C1895.36 1027.54 1896.38 1027.54 1896.38 1024.49C1896.38 1021.44 1896.38 1018.38 1893.33 1015.33Z" fill="black"/>
<path fill-rule="evenodd" clip-rule="evenodd" d="M2550.53 999.054C2553.58 994.984 2554.6 992.95 2550.53 989.897C2549.51 988.88 2546.46 989.897 2546.46 989.897C2544.43 993.967 2546.46 996.002 2550.53 998.036V999.054Z" fill="black"/>
<path fill-rule="evenodd" clip-rule="evenodd" d="M1716.3 1832.28C1715.28 1832.28 1714.26 1832.28 1714.26 1834.31C1714.26 1834.31 1720.37 1840.42 1721.39 1840.42C1722.4 1840.42 1723.42 1839.4 1723.42 1838.38C1723.42 1835.33 1721.39 1833.29 1717.32 1833.29L1716.3 1832.28Z" fill="black"/>
<path fill-rule="evenodd" clip-rule="evenodd" d="M1109.96 1285.95C1109.96 1282.9 1107.92 1281.88 1105.89 1281.88C1102.83 1281.88 1102.83 1284.93 1101.82 1286.97C1101.82 1289 1101.82 1290.02 1103.85 1290.02C1106.9 1290.02 1107.92 1287.99 1108.94 1285.95H1109.96Z" fill="black"/>
<path fill-rule="evenodd" clip-rule="evenodd" d="M1762.07 1218.81C1764.11 1221.86 1767.16 1220.84 1770.21 1221.86C1771.23 1221.86 1773.26 1221.86 1773.26 1219.82C1773.26 1217.79 1772.24 1217.79 1770.21 1217.79C1767.16 1217.79 1765.12 1217.79 1762.07 1218.81Z" fill="black"/>
<path fill-rule="evenodd" clip-rule="evenodd" d="M384.561 1409.05C384.561 1407.02 384.561 1403.97 380.492 1404.98C378.457 1404.98 377.439 1404.98 377.439 1408.04C377.439 1410.07 377.439 1413.12 381.509 1412.1C383.544 1412.1 384.561 1412.1 384.561 1409.05Z" fill="black"/>
<path fill-rule="evenodd" clip-rule="evenodd" d="M2779.45 1539.28C2777.41 1537.24 2775.38 1535.21 2773.35 1534.19C2773.35 1534.19 2771.31 1534.19 2770.29 1534.19C2770.29 1534.19 2769.28 1535.21 2770.29 1536.22C2771.31 1539.28 2774.36 1541.31 2776.4 1542.33C2776.4 1542.33 2778.43 1541.31 2779.45 1540.29V1539.28Z" fill="black"/>
<path fill-rule="evenodd" clip-rule="evenodd" d="M909.534 1511.81C913.603 1505.7 911.569 1499.6 908.517 1494.51C908.517 1500.62 908.517 1505.7 909.534 1511.81Z" fill="black"/>
<path fill-rule="evenodd" clip-rule="evenodd" d="M140.397 1672.55C138.362 1672.55 138.362 1674.59 137.345 1676.62C137.345 1679.67 139.379 1679.67 141.414 1679.67C143.449 1679.67 143.449 1678.66 143.449 1676.62C143.449 1674.59 143.449 1672.55 140.397 1672.55Z" fill="black"/>
<path fill-rule="evenodd" clip-rule="evenodd" d="M514.795 700.965C515.813 700.965 518.865 700.965 517.847 698.93C517.847 696.896 517.847 694.861 514.795 694.861C512.761 694.861 511.743 695.878 511.743 698.93C511.743 700.965 511.743 701.982 514.795 701.982V700.965Z" fill="black"/>
<path fill-rule="evenodd" clip-rule="evenodd" d="M23.396 1162.85C23.396 1160.82 21.3612 1160.82 20.3439 1160.82C17.2918 1160.82 16.2744 1163.87 16.2744 1165.9C16.2744 1166.92 17.2918 1167.94 18.3091 1166.92C21.3612 1166.92 23.396 1164.89 23.396 1161.83V1162.85Z" fill="black"/>
<path fill-rule="evenodd" clip-rule="evenodd" d="M986.846 913.596C989.898 914.613 992.95 915.631 993.967 918.683C993.967 913.257 991.593 911.561 986.846 913.596Z" fill="black"/>
<path fill-rule="evenodd" clip-rule="evenodd" d="M2528.15 1454.83C2526.12 1454.83 2525.1 1454.83 2524.08 1457.89C2524.08 1459.92 2524.08 1461.96 2527.14 1461.96C2529.17 1461.96 2530.19 1458.9 2531.21 1456.87C2531.21 1454.83 2529.17 1454.83 2528.15 1454.83Z" fill="black"/>
<path fill-rule="evenodd" clip-rule="evenodd" d="M2603.45 852.553C2601.42 855.605 2597.35 856.623 2597.35 860.692C2597.35 861.709 2597.35 862.727 2597.35 863.744C2598.36 863.744 2599.38 863.744 2600.4 862.727C2601.42 859.675 2603.45 856.623 2604.47 854.588C2604.47 854.588 2603.45 854.588 2602.43 854.588L2603.45 852.553Z" fill="black"/>
<path fill-rule="evenodd" clip-rule="evenodd" d="M2325.7 1538.26C2328.75 1534.19 2329.77 1531.14 2324.68 1528.08C2324.68 1531.14 2323.66 1534.19 2325.7 1538.26Z" fill="black"/>
<path fill-rule="evenodd" clip-rule="evenodd" d="M369.309 1230C372.361 1228.98 372.361 1225.93 371.343 1223.89C371.343 1222.87 370.326 1220.84 368.291 1220.84C365.239 1221.86 366.257 1224.91 366.257 1227.96C366.257 1228.98 367.274 1230 368.291 1230H369.309Z" fill="black"/>
<path fill-rule="evenodd" clip-rule="evenodd" d="M1347 163.796C1347 166.848 1350.05 166.848 1352.08 167.865C1354.12 167.865 1356.15 167.865 1356.15 165.831C1356.15 162.778 1354.12 163.796 1352.08 163.796C1350.05 163.796 1349.03 163.796 1347 163.796Z" fill="black"/>
<path fill-rule="evenodd" clip-rule="evenodd" d="M1689.85 1426.35C1689.85 1427.37 1688.83 1430.42 1691.88 1430.42C1694.93 1430.42 1693.92 1427.37 1693.92 1425.33C1693.92 1423.3 1693.92 1421.26 1691.88 1422.28C1688.83 1422.28 1689.85 1425.33 1689.85 1426.35Z" fill="black"/>
<path fill-rule="evenodd" clip-rule="evenodd" d="M992.946 950.222C992.946 952.256 993.964 953.274 995.998 954.291C998.033 954.291 998.033 952.256 998.033 951.239C998.033 949.204 998.033 947.169 994.981 947.169C992.946 947.169 992.946 949.204 992.946 951.239V950.222Z" fill="black"/>
<path fill-rule="evenodd" clip-rule="evenodd" d="M1656.27 290.969C1658.3 289.952 1658.3 287.917 1658.3 286.899C1658.3 285.882 1660.34 283.847 1658.3 282.83C1658.3 282.83 1656.27 281.813 1656.27 282.83C1653.22 282.83 1655.25 285.882 1654.23 287.917C1654.23 289.952 1654.23 290.969 1655.25 291.986L1656.27 290.969Z" fill="black"/>
<path fill-rule="evenodd" clip-rule="evenodd" d="M2751.98 854.589C2755.37 855.946 2758.08 855.946 2760.12 854.589C2762.15 853.233 2759.44 853.233 2751.98 854.589Z" fill="black"/>
<path fill-rule="evenodd" clip-rule="evenodd" d="M1622.7 1057.04C1622.7 1055.01 1621.69 1055.01 1619.65 1055.01C1617.62 1055.01 1616.6 1056.03 1616.6 1058.06C1616.6 1059.08 1616.6 1060.1 1617.62 1060.1C1619.65 1060.1 1621.69 1059.08 1621.69 1057.04H1622.7Z" fill="black"/>
<path fill-rule="evenodd" clip-rule="evenodd" d="M2618.7 1677.64C2617.68 1681.71 2618.7 1684.76 2622.77 1688.83C2622.77 1683.74 2619.71 1681.71 2618.7 1677.64Z" fill="black"/>
<path fill-rule="evenodd" clip-rule="evenodd" d="M151.592 1269.67C151.592 1271.71 151.592 1272.73 153.627 1272.73C155.661 1272.73 156.679 1271.71 156.679 1269.67C156.679 1268.66 156.679 1265.61 153.627 1266.62C150.574 1266.62 152.609 1269.67 151.592 1270.69V1269.67Z" fill="black"/>
<path fill-rule="evenodd" clip-rule="evenodd" d="M982.775 999.055C982.775 997.02 981.758 996.003 979.723 994.985C979.723 994.985 977.688 994.985 978.706 996.003C978.706 998.038 978.706 1000.07 981.758 1000.07C982.775 1000.07 983.793 1000.07 983.793 998.037L982.775 999.055Z" fill="black"/>
<path fill-rule="evenodd" clip-rule="evenodd" d="M1215.75 182.111C1215.75 185.163 1212.7 189.233 1213.72 195.337C1216.77 190.25 1215.75 186.181 1215.75 182.111Z" fill="black"/>
<path fill-rule="evenodd" clip-rule="evenodd" d="M1881.11 1766.15C1881.11 1766.15 1881.11 1766.15 1882.12 1765.13C1882.12 1763.1 1883.14 1761.06 1882.12 1760.05H1880.09C1878.06 1762.08 1878.06 1764.12 1881.11 1766.15Z" fill="black"/>
<path fill-rule="evenodd" clip-rule="evenodd" d="M1176.08 295.035C1174.05 295.035 1170.99 291.982 1168.96 295.035V297.069C1172.01 299.104 1174.05 297.069 1176.08 295.035Z" fill="black"/>
<path fill-rule="evenodd" clip-rule="evenodd" d="M1365.3 419.154C1366.32 421.189 1367.33 424.241 1370.39 426.275C1373.44 425.258 1372.42 422.206 1371.4 420.171C1370.39 418.137 1367.33 419.154 1365.3 420.171V419.154Z" fill="black"/>
<path fill-rule="evenodd" clip-rule="evenodd" d="M1041.79 844.414C1045.18 844.414 1047.21 846.11 1047.89 849.501C1049.93 843.397 1048.91 843.397 1041.79 844.414Z" fill="black"/>
<path fill-rule="evenodd" clip-rule="evenodd" d="M2603.44 907.49C2603.44 907.49 2604.46 907.49 2605.48 907.49C2605.48 907.49 2607.51 907.49 2606.49 905.456C2606.49 905.456 2606.49 903.421 2605.48 903.421C2604.46 903.421 2602.43 903.421 2601.41 903.421C2600.39 903.421 2599.37 903.421 2599.37 905.456C2599.37 907.49 2601.41 907.49 2603.44 906.473V907.49Z" fill="black"/>
<path fill-rule="evenodd" clip-rule="evenodd" d="M351 1184.21C352.017 1180.14 352.017 1177.09 348.965 1173.02C348.965 1177.09 348.965 1180.14 351 1184.21Z" fill="black"/>
<path fill-rule="evenodd" clip-rule="evenodd" d="M1570.82 546.326C1568.79 546.326 1566.75 546.326 1564.72 546.326C1566.75 548.361 1568.79 548.361 1570.82 546.326Z" fill="black"/>
<path fill-rule="evenodd" clip-rule="evenodd" d="M1362.25 1872.97C1361.23 1872.97 1360.21 1873.99 1360.21 1876.03C1360.21 1877.04 1362.25 1877.04 1363.26 1876.03C1363.26 1876.03 1366.32 1876.03 1365.3 1873.99C1365.3 1873.99 1364.28 1871.96 1362.25 1872.97Z" fill="black"/>
<path fill-rule="evenodd" clip-rule="evenodd" d="M501.57 1406C501.57 1402.95 501.57 1402.95 499.535 1402.95C498.518 1402.95 496.483 1402.95 496.483 1404.98C496.483 1407.02 498.518 1408.04 500.553 1408.04C501.57 1408.04 501.57 1407.02 501.57 1406Z" fill="black"/>
<path fill-rule="evenodd" clip-rule="evenodd" d="M2237.19 358.115C2238.2 355.063 2243.29 353.028 2240.24 346.924C2237.19 349.976 2234.13 353.028 2237.19 358.115Z" fill="black"/>
<path fill-rule="evenodd" clip-rule="evenodd" d="M2643.12 1541.31C2641.08 1541.31 2641.08 1541.31 2641.08 1542.33C2641.08 1544.36 2642.1 1545.38 2644.13 1545.38H2646.17C2646.17 1543.35 2644.13 1542.33 2643.12 1541.31Z" fill="black"/>
<path fill-rule="evenodd" clip-rule="evenodd" d="M1516.89 510.718C1516.89 508.684 1516.89 506.649 1513.83 506.649C1512.82 506.649 1512.82 507.666 1512.82 509.701C1512.82 511.736 1512.82 512.753 1514.85 513.771C1515.87 513.771 1516.89 512.753 1516.89 511.736V510.718Z" fill="black"/>
<path fill-rule="evenodd" clip-rule="evenodd" d="M1857.7 1538.26H1858.72C1858.72 1536.22 1859.74 1534.19 1858.72 1532.15H1857.7C1856.69 1534.19 1857.7 1536.22 1857.7 1539.28V1538.26Z" fill="black"/>
<path fill-rule="evenodd" clip-rule="evenodd" d="M1204.57 476.127C1204.57 479.179 1204.57 481.213 1205.58 482.231C1205.58 483.248 1205.58 485.283 1208.64 484.266C1209.65 484.266 1210.67 482.231 1209.65 481.214C1208.64 480.196 1206.6 478.161 1204.57 476.127Z" fill="black"/>
<path fill-rule="evenodd" clip-rule="evenodd" d="M1610.49 524.961C1608.45 524.961 1607.44 524.961 1608.45 526.996C1608.45 529.031 1609.47 531.065 1611.51 531.065C1612.52 531.065 1613.54 531.065 1614.56 529.031C1614.56 525.979 1612.52 525.979 1611.51 524.961H1610.49Z" fill="black"/>
<path fill-rule="evenodd" clip-rule="evenodd" d="M189.227 344.887C190.244 347.939 192.279 350.991 196.348 350.991C196.348 347.939 194.313 344.887 189.227 344.887Z" fill="black"/>
<path fill-rule="evenodd" clip-rule="evenodd" d="M1834.32 1910.62C1839.41 1908.58 1840.42 1905.53 1841.44 1903.49C1838.39 1904.51 1836.36 1906.55 1834.32 1910.62Z" fill="black"/>
<path fill-rule="evenodd" clip-rule="evenodd" d="M374.399 1901.46C374.399 1901.46 374.399 1901.46 374.399 1902.48C374.399 1904.51 374.399 1906.55 375.417 1907.56H377.452C377.452 1904.51 377.452 1902.48 375.417 1901.46H374.399Z" fill="black"/>
<path fill-rule="evenodd" clip-rule="evenodd" d="M2462.02 1235.08C2462.02 1234.07 2462.02 1232.03 2459.99 1232.03C2458.97 1232.03 2457.95 1232.03 2457.95 1234.07C2457.95 1236.1 2457.95 1236.1 2459.99 1237.12C2461.01 1237.12 2462.02 1237.12 2462.02 1235.08Z" fill="black"/>
<path fill-rule="evenodd" clip-rule="evenodd" d="M581.939 891.215C581.939 889.18 582.957 886.128 579.905 884.093H578.887C577.87 887.145 578.887 889.18 580.922 891.215H581.939Z" fill="black"/>
<path fill-rule="evenodd" clip-rule="evenodd" d="M742.686 1761.06C742.686 1761.06 742.686 1760.05 741.669 1760.05C739.634 1760.05 737.599 1759.03 735.564 1760.05V1762.08C738.617 1764.12 740.651 1762.08 742.686 1761.06Z" fill="black"/>
<path fill-rule="evenodd" clip-rule="evenodd" d="M2229.05 1775.31C2229.05 1774.29 2229.05 1772.25 2225.99 1773.27C2224.98 1773.27 2222.94 1773.27 2223.96 1775.31C2223.96 1776.32 2223.96 1778.36 2227.01 1778.36C2229.05 1778.36 2229.05 1777.34 2229.05 1775.31Z" fill="black"/>
<path fill-rule="evenodd" clip-rule="evenodd" d="M2755.04 1593.2C2753 1593.2 2751.98 1589.13 2748.93 1591.16C2748.93 1591.16 2747.92 1593.2 2748.93 1594.21C2750.97 1597.27 2753 1595.23 2755.04 1594.21V1593.2Z" fill="black"/>
<path fill-rule="evenodd" clip-rule="evenodd" d="M306.219 1552.5C306.219 1551.49 306.219 1548.43 304.184 1548.43C302.149 1548.43 302.149 1550.47 302.149 1551.49C302.149 1553.52 302.149 1554.54 304.184 1554.54C305.202 1554.54 305.202 1553.52 305.202 1552.5H306.219Z" fill="black"/>
<path fill-rule="evenodd" clip-rule="evenodd" d="M796.604 1699C796.604 1695.95 795.587 1693.92 794.569 1690.86C792.535 1693.92 794.569 1696.97 794.569 1699C794.569 1699 795.587 1699 796.604 1699Z" fill="black"/>
<path fill-rule="evenodd" clip-rule="evenodd" d="M2641.08 1290.02C2641.08 1289 2641.08 1287.99 2639.04 1287.99C2638.02 1287.99 2637.01 1287.99 2637.01 1290.02C2637.01 1291.04 2637.01 1293.07 2639.04 1293.07C2640.06 1293.07 2641.08 1292.06 2641.08 1291.04V1290.02Z" fill="black"/>
<path fill-rule="evenodd" clip-rule="evenodd" d="M2458.98 1419.23C2458.98 1417.19 2458.98 1416.18 2456.95 1415.16C2455.93 1415.16 2454.91 1415.16 2454.91 1417.19C2454.91 1419.23 2454.91 1420.25 2457.97 1420.25C2457.97 1420.25 2460 1420.25 2460 1418.21L2458.98 1419.23Z" fill="black"/>
<path fill-rule="evenodd" clip-rule="evenodd" d="M2636 1321.56C2636 1319.53 2632.95 1319.53 2631.93 1319.53C2630.91 1319.53 2629.89 1319.53 2630.91 1321.56C2630.91 1322.58 2632.95 1323.6 2633.96 1323.6C2636 1323.6 2636 1322.58 2636 1320.54V1321.56Z" fill="black"/>
<path fill-rule="evenodd" clip-rule="evenodd" d="M1149.62 652.133C1151.66 650.098 1153.69 647.046 1153.69 643.994C1149.63 647.046 1149.62 647.046 1149.62 652.133Z" fill="black"/>
<path fill-rule="evenodd" clip-rule="evenodd" d="M688.75 1505.7C688.75 1505.7 689.767 1505.7 690.785 1504.69C690.785 1504.69 692.819 1502.65 691.802 1501.63C691.802 1501.63 691.802 1501.63 690.785 1501.63C688.75 1501.63 688.75 1503.67 688.75 1505.7C688.75 1505.7 688.75 1505.7 688.75 1506.72V1505.7Z" fill="black"/>
<path fill-rule="evenodd" clip-rule="evenodd" d="M1208.62 1719.35C1208.62 1723.42 1208.62 1726.47 1210.66 1728.51C1210.66 1728.51 1210.66 1727.49 1210.66 1726.47C1210.66 1724.44 1208.62 1723.42 1207.61 1719.35H1208.62Z" fill="black"/>
<path fill-rule="evenodd" clip-rule="evenodd" d="M1814.98 1742.75C1814.98 1741.73 1814.98 1740.71 1812.95 1740.71C1810.91 1740.71 1810.91 1741.73 1810.91 1743.77C1810.91 1744.78 1810.91 1746.82 1812.95 1746.82C1813.97 1746.82 1814.98 1745.8 1814.98 1743.77V1742.75Z" fill="black"/>
<path fill-rule="evenodd" clip-rule="evenodd" d="M321.483 633.82C322.501 635.855 324.535 636.872 325.553 638.907C325.553 635.855 324.535 633.82 321.483 633.82Z" fill="black"/>
<path fill-rule="evenodd" clip-rule="evenodd" d="M771.171 233.994V224.838C768.119 227.89 769.137 229.925 771.171 233.994Z" fill="black"/>
<path fill-rule="evenodd" clip-rule="evenodd" d="M1263.57 1409.05C1258.48 1407.02 1256.44 1409.05 1252.38 1409.05C1256.44 1412.11 1259.5 1411.09 1263.57 1409.05Z" fill="black"/>
<path fill-rule="evenodd" clip-rule="evenodd" d="M248.238 852.552C248.238 851.535 248.238 850.517 246.204 850.517C245.186 850.517 244.169 850.517 244.169 852.552C244.169 852.552 244.169 853.569 246.204 853.569C247.221 853.569 248.238 853.569 248.238 852.552Z" fill="black"/>
<path fill-rule="evenodd" clip-rule="evenodd" d="M1070.27 1850.59C1070.27 1850.59 1073.32 1850.59 1073.32 1848.55C1073.32 1848.55 1072.3 1847.54 1071.29 1847.54C1069.25 1847.54 1068.24 1847.54 1068.24 1849.57C1068.24 1849.57 1068.24 1850.59 1070.27 1850.59Z" fill="black"/>
<path fill-rule="evenodd" clip-rule="evenodd" d="M1375.49 433.397C1375.49 432.38 1374.47 431.362 1373.45 431.362C1372.44 431.362 1371.42 431.362 1371.42 433.397C1371.42 434.414 1372.44 435.432 1374.47 435.432C1375.49 435.432 1376.51 435.432 1376.51 433.397H1375.49Z" fill="black"/>
<path fill-rule="evenodd" clip-rule="evenodd" d="M2529.17 1013.3C2528.16 1013.3 2528.16 1013.3 2527.14 1015.33C2527.14 1015.33 2526.12 1017.37 2527.14 1017.37H2528.16C2528.16 1016.35 2528.16 1015.33 2528.16 1014.32L2529.17 1013.3Z" fill="black"/>
<path fill-rule="evenodd" clip-rule="evenodd" d="M54.9302 428.31C54.9302 428.31 52.8955 428.31 52.8955 430.345C52.8955 431.362 52.8955 431.362 53.9129 431.362C54.9302 431.362 55.9476 431.362 55.9476 430.345C55.9476 430.345 55.9476 429.328 53.9129 428.31H54.9302Z" fill="black"/>
<path fill-rule="evenodd" clip-rule="evenodd" d="M1397.86 945.135C1397.86 944.118 1397.86 943.1 1395.83 943.1C1394.81 943.1 1393.79 943.1 1393.79 945.135C1393.79 946.153 1393.79 947.17 1395.83 947.17C1396.85 947.17 1397.86 946.153 1397.86 945.135Z" fill="black"/>
<path fill-rule="evenodd" clip-rule="evenodd" d="M953.279 519.874C953.279 519.874 953.279 519.874 953.279 520.892C953.279 522.926 952.262 523.944 953.279 525.979H954.297C954.297 524.961 954.297 522.926 954.297 520.892C954.297 520.892 954.297 520.892 954.297 519.874H953.279Z" fill="black"/>
<path fill-rule="evenodd" clip-rule="evenodd" d="M1356.15 1608.46C1357.16 1608.46 1358.18 1608.46 1358.18 1606.42C1358.18 1606.42 1358.18 1604.39 1357.16 1604.39C1356.15 1604.39 1354.11 1604.39 1354.11 1606.42C1354.11 1606.42 1354.11 1607.44 1356.15 1608.46Z" fill="black"/>
<path fill-rule="evenodd" clip-rule="evenodd" d="M1350.04 355.061C1352.07 355.061 1353.09 355.061 1354.11 355.061V354.043C1352.07 354.043 1351.06 355.061 1350.04 356.078V355.061Z" fill="black"/>
<path fill-rule="evenodd" clip-rule="evenodd" d="M2655.33 1429.4C2657.36 1430.42 2658.38 1430.42 2660.41 1429.4C2658.38 1426.35 2656.35 1429.4 2655.33 1429.4Z" fill="black"/>
<path fill-rule="evenodd" clip-rule="evenodd" d="M1329.7 1344.96C1328.68 1344.96 1327.66 1346.99 1327.66 1348.01C1327.66 1349.03 1328.68 1350.04 1329.7 1350.04C1330.72 1350.04 1330.72 1348.01 1329.7 1346.99C1329.7 1346.99 1329.7 1344.96 1328.68 1344.96H1329.7Z" fill="black"/>
<path fill-rule="evenodd" clip-rule="evenodd" d="M1089.6 652.133C1090.62 652.133 1092.65 652.133 1092.65 650.098C1092.65 649.081 1091.64 649.081 1090.62 649.081C1089.6 649.081 1088.58 649.081 1088.58 650.098C1088.58 651.115 1089.6 651.115 1090.62 652.133H1089.6Z" fill="black"/>
<path fill-rule="evenodd" clip-rule="evenodd" d="M2550.54 551.412C2550.54 550.395 2552.57 549.377 2552.57 547.343C2552.57 545.308 2552.57 545.308 2550.54 546.325C2549.52 546.325 2548.5 548.36 2548.5 549.377C2548.5 549.377 2548.5 551.412 2550.54 551.412Z" fill="black"/>
<path fill-rule="evenodd" clip-rule="evenodd" d="M1737.66 700.965V698.93C1737.66 696.895 1735.63 695.878 1733.59 697.913C1732.58 698.93 1733.59 699.947 1733.59 700.965C1733.59 700.965 1735.63 700.965 1736.64 700.965H1737.66Z" fill="black"/>
<path fill-rule="evenodd" clip-rule="evenodd" d="M327.601 616.523C327.601 614.488 326.583 614.488 325.566 615.506C324.549 615.506 323.531 615.506 323.531 617.54C323.531 618.558 324.549 619.575 325.566 619.575C326.583 619.575 327.601 619.575 327.601 617.54V616.523Z" fill="black"/>
<path fill-rule="evenodd" clip-rule="evenodd" d="M2747.9 288.934C2747.9 288.934 2747.9 286.899 2745.86 286.899C2743.83 286.899 2743.83 288.934 2743.83 289.952C2743.83 290.969 2744.85 291.986 2745.86 291.986C2746.88 291.986 2746.88 290.969 2746.88 288.934H2747.9Z" fill="black"/>
<path fill-rule="evenodd" clip-rule="evenodd" d="M1726.47 1236.1C1726.47 1236.1 1725.45 1237.12 1725.45 1238.14C1725.45 1240.17 1725.45 1241.19 1727.48 1241.19C1727.48 1241.19 1729.52 1241.19 1729.52 1240.17C1729.52 1239.15 1729.52 1237.12 1727.48 1236.1H1726.47Z" fill="black"/>
<path fill-rule="evenodd" clip-rule="evenodd" d="M897.309 1372.43C897.309 1371.41 897.31 1370.39 895.275 1370.39C893.24 1370.39 892.223 1370.39 892.223 1372.43C892.223 1373.45 892.223 1374.46 894.257 1374.46C895.275 1374.46 896.292 1374.46 896.292 1372.43H897.309Z" fill="black"/>
<path fill-rule="evenodd" clip-rule="evenodd" d="M1151.66 52.9015C1153.69 52.9015 1154.71 50.8668 1153.69 48.8321C1153.69 48.8321 1152.68 47.8147 1151.66 48.8321C1150.64 50.8668 1150.64 51.8842 1151.66 53.9189V52.9015Z" fill="black"/>
<path fill-rule="evenodd" clip-rule="evenodd" d="M1110.96 757.938C1110.96 757.938 1111.97 755.904 1111.97 754.886C1110.96 754.886 1111.97 756.921 1110.96 757.938Z" fill="black"/>
<path fill-rule="evenodd" clip-rule="evenodd" d="M1983.86 1190.32C1983.86 1189.3 1983.86 1187.27 1982.84 1187.27C1981.82 1187.27 1980.81 1187.27 1980.81 1189.3C1980.81 1190.32 1980.81 1191.34 1981.82 1192.35C1983.86 1192.35 1982.84 1191.34 1983.86 1190.32Z" fill="black"/>
<path fill-rule="evenodd" clip-rule="evenodd" d="M184.147 1794.64C184.147 1794.64 182.112 1794.64 182.112 1795.65C182.112 1796.67 182.112 1798.71 184.147 1798.71C184.147 1798.71 186.182 1798.71 186.182 1797.69C186.182 1796.67 185.164 1795.65 183.13 1794.64H184.147Z" fill="black"/>
<path fill-rule="evenodd" clip-rule="evenodd" d="M1214.73 631.785C1214.73 629.75 1213.71 627.716 1211.68 625.681C1211.68 628.733 1211.68 630.768 1214.73 631.785Z" fill="black"/>
<path fill-rule="evenodd" clip-rule="evenodd" d="M2366.39 1923.84C2366.39 1923.84 2366.39 1926.89 2368.43 1925.87C2368.43 1925.87 2368.43 1925.87 2368.43 1924.86C2368.43 1923.84 2368.43 1921.8 2366.39 1922.82C2366.39 1922.82 2366.39 1922.82 2366.39 1923.84Z" fill="black"/>
<path fill-rule="evenodd" clip-rule="evenodd" d="M2594.29 316.399C2594.29 316.399 2593.27 314.364 2591.23 314.364C2590.22 314.364 2589.2 315.382 2590.22 316.399C2590.22 317.416 2591.23 318.434 2592.25 318.434C2593.27 318.434 2594.29 317.416 2594.29 316.399Z" fill="black"/>
<path fill-rule="evenodd" clip-rule="evenodd" d="M2139.52 314.365C2140.53 314.365 2140.53 314.365 2141.55 313.348C2141.55 312.331 2141.55 310.296 2140.53 310.296C2140.53 310.296 2138.5 310.296 2138.5 311.313C2138.5 312.331 2138.5 314.365 2140.53 314.365H2139.52Z" fill="black"/>
<path fill-rule="evenodd" clip-rule="evenodd" d="M2454.91 311.312C2454.91 311.312 2454.91 309.277 2453.89 309.277C2452.87 309.277 2452.87 310.295 2451.85 311.312V313.347C2453.89 313.347 2453.89 311.312 2453.89 310.295L2454.91 311.312Z" fill="black"/>
<path fill-rule="evenodd" clip-rule="evenodd" d="M202.456 290.967C200.421 290.967 198.387 290.967 198.387 294.019C198.387 295.036 201.439 294.019 201.439 293.002C201.439 293.002 201.439 293.002 201.439 290.967H202.456Z" fill="black"/>
<path fill-rule="evenodd" clip-rule="evenodd" d="M655.184 149.552C655.184 149.552 654.167 148.535 653.15 149.552C652.132 149.552 651.115 150.57 652.132 152.604C652.132 152.604 653.15 153.622 654.167 152.604C655.184 152.604 655.184 151.587 655.184 149.552Z" fill="black"/>
<path fill-rule="evenodd" clip-rule="evenodd" d="M1978.79 37.6421H1976.75C1976.75 38.6594 1976.75 39.6768 1978.79 39.6768H1980.82C1980.82 38.6594 1980.82 37.6421 1978.79 37.6421Z" fill="black"/>
<path fill-rule="evenodd" clip-rule="evenodd" d="M303.171 16.2783C303.171 14.2436 303.171 12.2088 302.154 12.2088H301.137C301.137 14.2435 303.171 15.261 304.189 16.2783H303.171Z" fill="black"/>
<path fill-rule="evenodd" clip-rule="evenodd" d="M2229.06 1753.94C2229.06 1752.92 2229.06 1752.92 2228.04 1752.92C2227.02 1752.92 2226.01 1753.94 2226.01 1755.98V1758.01C2228.04 1758.01 2228.04 1755.98 2229.06 1754.96V1753.94Z" fill="black"/>
<path fill-rule="evenodd" clip-rule="evenodd" d="M1452.81 1678.66C1454.84 1679.67 1456.88 1678.66 1458.91 1678.66C1458.91 1677.64 1458.91 1676.62 1457.89 1676.62C1455.86 1676.62 1453.82 1676.62 1452.81 1678.66Z" fill="black"/>
<path fill-rule="evenodd" clip-rule="evenodd" d="M1556.58 1641.01C1556.58 1638.98 1556.58 1636.94 1555.56 1635.93H1554.54C1553.53 1638.98 1555.56 1638.98 1556.58 1641.01Z" fill="black"/>
<path fill-rule="evenodd" clip-rule="evenodd" d="M746.756 1711.21H745.738C745.738 1713.25 745.738 1713.25 747.773 1714.26H748.79C748.79 1712.23 748.79 1712.23 746.756 1711.21Z" fill="black"/>
<path fill-rule="evenodd" clip-rule="evenodd" d="M2356.21 1491.46C2356.21 1490.44 2355.2 1489.43 2354.18 1489.43C2353.16 1489.43 2352.14 1490.44 2352.14 1491.46C2352.14 1492.48 2353.16 1493.5 2354.18 1493.5C2355.2 1493.5 2356.21 1492.48 2356.21 1491.46Z" fill="black"/>
<path fill-rule="evenodd" clip-rule="evenodd" d="M1892.31 1439.57C1891.29 1439.57 1890.28 1439.57 1890.28 1441.61C1890.28 1442.63 1890.28 1443.64 1891.29 1443.64C1892.31 1443.64 1893.33 1443.64 1893.33 1441.61C1893.33 1440.59 1893.33 1439.57 1892.31 1439.57Z" fill="black"/>
<path fill-rule="evenodd" clip-rule="evenodd" d="M835.254 1351.06C838.306 1350.05 840.341 1349.03 843.393 1349.03C840.341 1346.99 838.306 1348.01 835.254 1351.06Z" fill="black"/>
<path fill-rule="evenodd" clip-rule="evenodd" d="M1280.86 1245.26C1281.87 1245.26 1282.89 1245.26 1282.89 1243.22C1282.89 1241.19 1281.87 1242.2 1280.86 1242.2C1279.84 1242.2 1278.82 1242.2 1278.82 1244.24C1278.82 1244.24 1278.82 1245.26 1280.86 1245.26Z" fill="black"/>
<path fill-rule="evenodd" clip-rule="evenodd" d="M1670.51 710.121C1670.51 708.087 1669.49 708.087 1667.46 707.069C1667.46 707.069 1665.42 707.069 1665.42 708.087C1665.42 710.121 1665.42 711.139 1668.47 711.139C1668.47 711.139 1669.49 711.139 1669.49 709.104L1670.51 710.121Z" fill="black"/>
<path fill-rule="evenodd" clip-rule="evenodd" d="M2556.64 966.498C2557.66 966.498 2558.67 966.498 2557.66 965.481C2557.66 964.463 2557.66 963.446 2555.62 963.446C2555.62 963.446 2554.6 963.446 2554.6 964.463C2554.6 965.481 2554.6 966.498 2556.64 966.498Z" fill="black"/>
<path fill-rule="evenodd" clip-rule="evenodd" d="M738.601 682.652C738.601 681.635 738.601 680.617 736.566 680.617C735.549 680.617 734.531 680.617 734.531 682.652C734.531 683.669 734.531 685.704 736.566 685.704C737.583 685.704 737.583 684.687 738.601 683.669V682.652Z" fill="black"/>
<path fill-rule="evenodd" clip-rule="evenodd" d="M2560.71 641.958C2559.69 641.958 2557.66 641.958 2558.68 645.01H2559.69C2560.71 645.01 2561.73 642.975 2561.73 641.958C2561.73 641.958 2561.73 641.958 2560.71 641.958Z" fill="black"/>
<path fill-rule="evenodd" clip-rule="evenodd" d="M85.4666 627.715C85.4666 627.715 86.484 627.715 86.484 626.698C86.484 625.68 86.4839 624.663 85.4666 624.663C85.4666 624.663 84.4492 624.663 84.4492 625.68C84.4492 626.698 84.4492 627.715 85.4666 627.715Z" fill="black"/>
<path fill-rule="evenodd" clip-rule="evenodd" d="M28.4895 619.575C28.4895 619.575 29.5069 619.575 28.4895 617.54C28.4895 617.54 28.4895 616.523 27.4722 615.506C27.4722 615.506 25.4374 615.506 26.4548 616.523C26.4548 617.541 26.4548 618.558 28.4895 618.558V619.575Z" fill="black"/>
<path fill-rule="evenodd" clip-rule="evenodd" d="M1623.71 593.125C1621.68 596.177 1621.68 597.194 1622.69 600.246C1623.71 598.211 1624.73 596.177 1623.71 593.125Z" fill="black"/>
<path fill-rule="evenodd" clip-rule="evenodd" d="M1560.63 569.725C1559.62 569.725 1558.6 570.742 1559.62 571.759C1559.62 572.777 1559.62 573.794 1561.65 573.794C1562.67 573.794 1563.69 573.794 1563.69 571.759C1563.69 571.759 1563.69 569.725 1561.65 569.725H1560.63Z" fill="black"/>
<path fill-rule="evenodd" clip-rule="evenodd" d="M2673.64 558.533C2673.64 560.568 2672.63 563.62 2674.66 563.62C2676.7 563.62 2674.66 561.586 2674.66 560.568C2674.66 560.568 2674.66 560.568 2673.64 559.551V558.533Z" fill="black"/>
<path fill-rule="evenodd" clip-rule="evenodd" d="M975.663 508.684H974.646C974.646 510.719 974.645 510.719 976.68 511.736H977.698C977.698 509.702 976.68 509.702 975.663 508.684Z" fill="black"/>
<path fill-rule="evenodd" clip-rule="evenodd" d="M1036.69 443.571C1036.69 442.554 1034.65 441.537 1033.64 443.571C1033.64 443.571 1032.62 444.589 1033.64 445.606C1033.64 446.623 1035.67 446.623 1036.69 445.606C1036.69 445.606 1037.71 444.589 1036.69 443.571Z" fill="black"/>
<path fill-rule="evenodd" clip-rule="evenodd" d="M2483.39 1908.58C2480.34 1910.61 2482.37 1912.65 2483.39 1914.68C2485.43 1912.65 2485.43 1910.61 2483.39 1908.58Z" fill="black"/>
<path fill-rule="evenodd" clip-rule="evenodd" d="M1093.68 1897.39C1093.68 1897.39 1093.68 1897.39 1095.71 1896.37C1095.71 1896.37 1094.69 1895.35 1093.68 1895.35C1093.68 1895.35 1091.64 1895.35 1091.64 1896.37C1091.64 1896.37 1091.64 1897.39 1093.68 1897.39Z" fill="black"/>
<path fill-rule="evenodd" clip-rule="evenodd" d="M2624.81 99.7002H2625.82C2625.82 99.7002 2625.82 98.6829 2625.82 97.6655C2625.82 97.6655 2625.82 97.6655 2624.81 97.6655V99.7002Z" fill="black"/>
<path fill-rule="evenodd" clip-rule="evenodd" d="M2227.01 1830.24C2228.03 1828.21 2227.01 1826.17 2226 1826.17C2223.96 1826.17 2226 1828.21 2226 1829.22C2226 1829.22 2226 1829.22 2227.01 1829.22V1830.24Z" fill="black"/>
<path fill-rule="evenodd" clip-rule="evenodd" d="M84.4381 1816C83.4207 1816 83.4207 1817.02 82.4033 1818.03C82.4033 1820.07 82.4033 1820.07 84.4381 1820.07C84.4381 1820.07 85.4554 1820.07 85.4554 1818.03C85.4554 1818.03 85.4554 1817.02 84.4381 1816Z" fill="black"/>
<path fill-rule="evenodd" clip-rule="evenodd" d="M704.025 1460.94C704.025 1460.94 704.025 1459.92 701.991 1459.92C700.973 1459.92 699.956 1460.94 699.956 1461.95C699.956 1461.95 699.956 1463.99 700.973 1462.97C701.991 1462.97 703.008 1461.95 703.008 1459.92L704.025 1460.94Z" fill="black"/>
<path fill-rule="evenodd" clip-rule="evenodd" d="M1021.43 81.3873C1020.41 81.3873 1019.39 81.3873 1019.39 83.422C1019.39 83.422 1019.39 84.4395 1021.43 84.4395C1022.45 84.4395 1023.46 84.4395 1023.46 82.4048C1023.46 82.4048 1023.46 81.3873 1021.43 81.3873Z" fill="black"/>
<path fill-rule="evenodd" clip-rule="evenodd" d="M1739.71 1788.53V1787.51C1739.71 1787.51 1737.67 1787.51 1737.67 1788.53C1737.67 1788.53 1737.67 1790.57 1738.69 1790.57C1738.69 1790.57 1739.71 1789.55 1740.72 1788.53H1739.71Z" fill="black"/>
<path fill-rule="evenodd" clip-rule="evenodd" d="M1607.44 49.8496C1607.44 49.8496 1609.47 49.8497 1609.47 48.8323C1609.47 48.8323 1609.47 47.815 1608.46 46.7976C1608.46 46.7976 1607.44 46.7975 1607.44 47.8149C1607.44 47.8149 1607.44 48.8322 1607.44 49.8496Z" fill="black"/>
<path fill-rule="evenodd" clip-rule="evenodd" d="M1804.8 1154.71V1153.69C1802.77 1153.69 1801.75 1155.73 1801.75 1156.75V1157.76C1802.77 1157.76 1804.8 1155.73 1804.8 1154.71Z" fill="black"/>
<path fill-rule="evenodd" clip-rule="evenodd" d="M296.054 781.337C295.037 781.337 295.037 781.337 295.037 783.372C295.037 784.389 295.037 785.406 297.072 785.406C297.072 785.406 299.107 785.406 299.107 784.389C299.107 782.354 299.107 782.354 297.072 781.337H296.054Z" fill="black"/>
<path fill-rule="evenodd" clip-rule="evenodd" d="M742.677 1573.87C742.677 1573.87 742.677 1573.87 741.659 1573.87C741.659 1573.87 740.642 1573.87 741.659 1575.9C741.659 1575.9 741.659 1575.9 741.659 1576.92C741.659 1576.92 742.677 1576.92 742.677 1573.87Z" fill="black"/>
<path fill-rule="evenodd" clip-rule="evenodd" d="M1846.53 771.165C1846.53 771.165 1846.53 770.148 1846.53 769.13C1846.53 769.13 1846.53 767.096 1845.51 769.13C1845.51 769.13 1845.51 770.148 1845.51 771.165C1845.51 771.165 1845.51 771.165 1846.53 771.165Z" fill="black"/>
<path fill-rule="evenodd" clip-rule="evenodd" d="M1533.17 1061.11C1533.17 1061.11 1533.17 1059.08 1532.15 1059.08C1532.15 1059.08 1531.14 1061.11 1531.14 1062.13C1531.14 1063.15 1531.14 1064.17 1533.17 1064.17C1533.17 1064.17 1534.19 1064.17 1533.17 1062.13V1061.11Z" fill="black"/>
<path fill-rule="evenodd" clip-rule="evenodd" d="M1385.65 1193.37C1385.65 1193.37 1387.68 1193.37 1387.68 1192.35C1387.68 1192.35 1387.68 1190.32 1386.67 1190.32C1386.67 1190.32 1385.65 1190.32 1384.63 1191.34C1384.63 1191.34 1384.63 1193.37 1385.65 1193.37Z" fill="black"/>
<path fill-rule="evenodd" clip-rule="evenodd" d="M2161.9 1583.02C2161.9 1583.02 2160.88 1580.99 2159.86 1582C2159.86 1582 2158.84 1582 2158.84 1584.04C2158.84 1585.06 2159.86 1586.07 2160.88 1585.06C2160.88 1585.06 2161.9 1585.06 2161.9 1583.02Z" fill="black"/>
<path fill-rule="evenodd" clip-rule="evenodd" d="M2587.16 440.52H2586.14V442.555H2587.16C2587.16 442.555 2587.16 441.537 2587.16 440.52Z" fill="black"/>
<path fill-rule="evenodd" clip-rule="evenodd" d="M1686.79 1239.15C1686.79 1239.15 1686.79 1239.15 1686.79 1238.14C1686.79 1238.14 1684.76 1238.14 1685.78 1239.15C1685.78 1239.15 1685.78 1239.15 1686.79 1239.15C1686.79 1239.15 1686.79 1239.15 1687.81 1239.15H1686.79Z" fill="black"/>
<path fill-rule="evenodd" clip-rule="evenodd" d="M748.782 1596.25C748.782 1596.25 749.799 1595.23 749.799 1594.21C749.799 1594.21 749.799 1592.18 747.765 1593.2C747.765 1593.2 747.765 1593.2 747.765 1594.21C747.765 1594.21 747.765 1596.25 748.782 1596.25Z" fill="black"/>
<path fill-rule="evenodd" clip-rule="evenodd" d="M1566.74 986.847H1568.78C1568.78 984.812 1566.74 984.812 1565.72 984.812C1565.72 984.812 1563.69 984.812 1564.71 985.83C1564.71 986.847 1565.72 986.847 1566.74 987.864V986.847Z" fill="black"/>
<path fill-rule="evenodd" clip-rule="evenodd" d="M1358.19 676.548C1358.19 676.548 1358.19 676.548 1358.19 677.566C1358.19 677.566 1358.19 678.583 1359.2 678.583C1359.2 678.583 1360.22 678.583 1360.22 677.566C1360.22 677.566 1360.22 676.548 1358.19 675.531V676.548Z" fill="black"/>
<path fill-rule="evenodd" clip-rule="evenodd" d="M1394.8 662.306C1394.8 662.306 1393.79 662.306 1392.77 661.289C1392.77 661.289 1390.74 661.289 1391.75 662.306C1391.75 662.306 1392.77 663.323 1393.79 663.323C1393.79 663.323 1395.82 663.323 1395.82 661.289L1394.8 662.306Z" fill="black"/>
<path fill-rule="evenodd" clip-rule="evenodd" d="M2796.75 656.202V655.185C2796.75 655.185 2795.73 656.202 2795.73 657.219C2795.73 658.237 2795.73 659.254 2796.75 658.237C2796.75 658.237 2796.75 657.219 2796.75 656.202Z" fill="black"/>
<path fill-rule="evenodd" clip-rule="evenodd" d="M2024.55 1607.44C2024.55 1607.44 2024.55 1605.41 2023.53 1605.41C2023.53 1605.41 2021.5 1605.41 2021.5 1606.42V1608.46C2022.52 1608.46 2023.53 1608.46 2023.53 1606.42L2024.55 1607.44Z" fill="black"/>
<path fill-rule="evenodd" clip-rule="evenodd" d="M1616.6 1314.44C1616.6 1314.44 1616.6 1316.47 1618.64 1316.47C1618.64 1316.47 1619.66 1315.45 1619.66 1314.44C1619.66 1314.44 1619.66 1312.4 1617.62 1312.4C1617.62 1312.4 1615.59 1312.4 1615.59 1314.44H1616.6Z" fill="black"/>
<path fill-rule="evenodd" clip-rule="evenodd" d="M184.147 338.781C184.147 338.781 185.164 337.764 184.147 336.747C184.147 336.747 184.147 335.729 183.13 334.712C183.13 334.712 182.112 334.712 182.112 335.729C182.112 335.729 182.112 337.764 184.147 337.764V338.781Z" fill="black"/>
<path fill-rule="evenodd" clip-rule="evenodd" d="M422.207 1006.18C422.207 1007.19 422.207 1008.21 423.224 1008.21C424.242 1008.21 425.259 1007.19 424.242 1006.18C424.242 1006.18 424.242 1004.14 423.224 1005.16C423.224 1005.16 423.224 1006.18 422.207 1006.18Z" fill="black"/>
<path fill-rule="evenodd" clip-rule="evenodd" d="M522.93 330.645C522.93 330.645 522.929 328.61 521.912 328.61C521.912 328.61 520.895 328.61 521.912 330.645V331.662C521.912 331.662 522.929 331.662 523.947 330.645H522.93Z" fill="black"/>
<path fill-rule="evenodd" clip-rule="evenodd" d="M901.395 868.832C901.395 867.815 901.395 866.798 900.377 866.798C899.36 866.798 898.343 866.798 898.343 868.832C898.343 868.832 898.343 870.867 899.36 870.867C900.377 870.867 901.395 869.85 901.395 868.832Z" fill="black"/>
<path fill-rule="evenodd" clip-rule="evenodd" d="M2079.51 1068.23L2078.49 1069.25C2078.49 1070.27 2079.51 1070.27 2080.52 1070.27C2080.52 1070.27 2081.54 1070.27 2081.54 1068.23C2081.54 1067.22 2080.52 1066.2 2078.49 1067.22L2079.51 1068.23Z" fill="black"/>
<path fill-rule="evenodd" clip-rule="evenodd" d="M1867.89 1018.38C1868.91 1016.35 1868.91 1015.33 1867.89 1013.3H1865.86C1865.86 1015.33 1865.86 1016.35 1867.89 1017.37V1018.38Z" fill="black"/>
<path fill-rule="evenodd" clip-rule="evenodd" d="M2159.87 291.984C2159.87 291.984 2158.85 291.984 2157.83 294.019C2157.83 294.019 2157.83 295.036 2158.85 295.036C2158.85 295.036 2160.88 295.036 2160.88 293.001C2160.88 293.001 2160.88 291.984 2158.85 290.967L2159.87 291.984Z" fill="black"/>
<path fill-rule="evenodd" clip-rule="evenodd" d="M2644.14 614.49H2643.13C2643.13 614.49 2643.13 616.525 2644.14 615.507C2644.14 615.507 2644.14 615.507 2644.14 614.49C2644.14 614.49 2644.14 614.49 2644.14 613.472V614.49Z" fill="black"/>
<path fill-rule="evenodd" clip-rule="evenodd" d="M2138.51 1105.88C2138.51 1104.86 2137.49 1103.84 2136.47 1103.84C2136.47 1103.84 2136.47 1104.86 2136.47 1105.88C2136.47 1105.88 2136.47 1106.9 2138.51 1106.9C2138.51 1106.9 2140.54 1106.9 2139.52 1104.86L2138.51 1105.88Z" fill="black"/>
<path fill-rule="evenodd" clip-rule="evenodd" d="M1666.44 910.544C1665.43 910.544 1664.41 911.561 1665.43 913.596C1665.43 914.614 1666.44 915.631 1667.46 915.631C1668.48 915.631 1669.5 914.614 1668.48 913.596C1668.48 913.596 1668.48 911.561 1666.44 911.561V910.544Z" fill="black"/>
<path fill-rule="evenodd" clip-rule="evenodd" d="M2726.55 592.108C2726.55 592.108 2726.55 591.09 2726.55 590.073C2726.55 590.073 2726.55 588.038 2725.53 590.073C2725.53 590.073 2725.53 590.073 2725.53 591.09C2725.53 591.09 2725.53 593.125 2727.57 592.108H2726.55Z" fill="black"/>
<path fill-rule="evenodd" clip-rule="evenodd" d="M1382.61 910.544C1382.61 910.544 1382.61 909.527 1380.57 909.527C1380.57 909.527 1379.56 909.527 1380.57 911.562C1380.57 911.562 1380.57 911.562 1381.59 911.562C1381.59 911.562 1382.61 911.562 1382.61 910.544Z" fill="black"/>
<path fill-rule="evenodd" clip-rule="evenodd" d="M603.298 6.10547C603.298 5.0881 603.298 4.07061 602.281 4.07061H600.246C600.246 5.08798 600.246 6.10541 601.263 5.08804C601.263 5.08804 602.281 5.08804 603.298 5.08804V6.10547Z" fill="black"/>
<path fill-rule="evenodd" clip-rule="evenodd" d="M2263.64 902.403C2263.64 902.403 2263.64 904.438 2264.66 904.438C2264.66 904.438 2264.66 903.42 2264.66 902.403C2264.66 902.403 2264.66 900.368 2263.64 901.385C2263.64 901.385 2263.64 901.385 2263.64 902.403Z" fill="black"/>
<path fill-rule="evenodd" clip-rule="evenodd" d="M255.351 551.413C255.351 549.379 255.351 548.361 253.316 548.361C253.316 548.361 251.281 548.361 251.281 549.379C251.281 550.396 251.281 552.431 253.316 552.431C254.333 552.431 254.333 552.431 254.333 551.413H255.351Z" fill="black"/>
<path fill-rule="evenodd" clip-rule="evenodd" d="M2371.49 244.166C2371.49 244.166 2369.45 245.183 2369.45 246.2V247.218C2369.45 247.218 2370.47 247.218 2371.49 246.2V244.166Z" fill="black"/>
<path fill-rule="evenodd" clip-rule="evenodd" d="M27.4656 1880.09C27.4656 1880.09 29.5003 1880.09 29.5003 1879.08C29.5003 1879.08 29.5003 1877.04 28.483 1878.06C28.483 1878.06 27.4656 1879.08 26.4482 1880.09C26.4482 1880.09 26.4482 1880.09 27.4656 1880.09Z" fill="black"/>
<path fill-rule="evenodd" clip-rule="evenodd" d="M2074.42 1810.91C2074.42 1810.91 2073.4 1810.91 2073.4 1812.95C2073.4 1812.95 2073.4 1814.98 2074.42 1814.98C2074.42 1814.98 2075.44 1814.98 2075.44 1812.95C2075.44 1812.95 2075.44 1811.93 2073.4 1810.91H2074.42Z" fill="black"/>
<path fill-rule="evenodd" clip-rule="evenodd" d="M2553.6 1798.71C2553.6 1798.71 2554.61 1798.71 2554.61 1796.67C2554.61 1796.67 2554.61 1794.64 2553.6 1795.65C2553.6 1795.65 2553.6 1796.67 2552.58 1797.69L2553.6 1798.71Z" fill="black"/>
<path fill-rule="evenodd" clip-rule="evenodd" d="M1568.78 796.597V795.579C1568.78 795.579 1566.75 795.58 1566.75 796.597V797.614C1566.75 797.614 1568.78 797.614 1568.78 796.597Z" fill="black"/>
<path fill-rule="evenodd" clip-rule="evenodd" d="M64.1025 787.443C64.1025 787.443 64.1025 787.443 64.1025 788.46C64.1025 788.46 64.1025 789.477 66.1373 788.46V787.443C66.1373 787.443 66.1373 787.443 65.1199 787.443H64.1025Z" fill="black"/>
<path fill-rule="evenodd" clip-rule="evenodd" d="M2706.2 789.478C2707.22 789.478 2708.23 789.478 2708.23 787.443C2708.23 787.443 2708.23 785.408 2707.22 785.408C2706.2 785.408 2705.18 785.408 2705.18 787.443C2705.18 787.443 2705.18 788.46 2706.2 789.478Z" fill="black"/>
<path fill-rule="evenodd" clip-rule="evenodd" d="M2760.11 777.267C2760.11 777.267 2760.11 776.25 2758.07 776.25C2758.07 776.25 2757.06 777.267 2758.07 778.285C2758.07 778.285 2758.07 780.319 2760.11 779.302C2760.11 779.302 2761.13 779.302 2761.13 777.267H2760.11Z" fill="black"/>
<path fill-rule="evenodd" clip-rule="evenodd" d="M37.6348 764.042C37.6348 764.042 37.6348 764.042 37.6348 765.059C37.6348 765.059 37.6348 766.076 38.6521 767.094C38.6521 767.094 38.6521 767.094 38.6521 766.076C38.6521 766.076 38.6521 765.059 37.6348 764.042Z" fill="black"/>
<path fill-rule="evenodd" clip-rule="evenodd" d="M2253.47 748.783C2253.47 749.8 2253.47 749.8 2254.49 750.817H2255.5C2255.5 750.817 2255.5 749.8 2253.47 748.783Z" fill="black"/>
<path fill-rule="evenodd" clip-rule="evenodd" d="M2659.39 966.499C2659.39 966.499 2659.39 965.482 2658.37 965.482C2658.37 965.482 2657.35 965.482 2657.35 966.499C2657.35 966.499 2657.35 967.517 2658.37 967.517C2658.37 967.517 2659.39 967.517 2659.39 965.482V966.499Z" fill="black"/>
<path fill-rule="evenodd" clip-rule="evenodd" d="M1737.67 700.965C1737.67 700.965 1737.67 700.965 1737.67 703C1737.67 704.017 1737.67 705.034 1737.67 706.052C1738.69 705.034 1737.67 704.017 1737.67 703C1737.67 703 1737.67 703 1737.67 701.982V700.965Z" fill="black"/>
<path fill-rule="evenodd" clip-rule="evenodd" d="M2111.04 1296.12C2111.04 1296.12 2112.06 1296.12 2112.06 1294.09V1293.07C2112.06 1293.07 2110.02 1293.07 2110.02 1294.09C2110.02 1294.09 2110.02 1295.11 2111.04 1296.12Z" fill="black"/>
<path fill-rule="evenodd" clip-rule="evenodd" d="M2801.83 654.168C2801.83 653.151 2801.83 653.151 2799.79 653.151H2797.76C2797.76 653.151 2797.76 653.151 2798.78 654.168H2800.81H2801.83Z" fill="black"/>
<path fill-rule="evenodd" clip-rule="evenodd" d="M644.001 1358.18C645.019 1356.15 646.036 1354.12 644.001 1353.1C641.966 1353.1 642.984 1355.13 642.984 1356.15C642.984 1356.15 642.984 1356.15 642.984 1358.18H644.001Z" fill="black"/>
<path fill-rule="evenodd" clip-rule="evenodd" d="M2612.59 1383.62H2613.61C2613.61 1382.6 2613.61 1381.58 2611.58 1381.58H2610.56C2610.56 1382.6 2610.56 1383.62 2612.59 1383.62Z" fill="black"/>
<path fill-rule="evenodd" clip-rule="evenodd" d="M2083.56 1392.78C2083.56 1392.78 2083.56 1392.78 2082.54 1392.78V1393.79C2082.54 1393.79 2082.54 1393.79 2083.56 1393.79V1391.76V1392.78Z" fill="black"/>
<path fill-rule="evenodd" clip-rule="evenodd" d="M124.119 613.473V612.455H122.084V613.473H124.119Z" fill="black"/>
<path fill-rule="evenodd" clip-rule="evenodd" d="M1517.91 1020.42C1518.92 1017.37 1518.92 1016.35 1517.91 1015.33H1516.89C1516.89 1017.37 1517.91 1017.37 1518.92 1020.42H1517.91Z" fill="black"/>
<path fill-rule="evenodd" clip-rule="evenodd" d="M1861.77 1399.9C1861.77 1399.9 1861.77 1398.88 1859.74 1398.88C1859.74 1398.88 1858.72 1398.88 1858.72 1400.91C1858.72 1400.91 1858.72 1400.91 1859.74 1400.91C1859.74 1400.91 1860.76 1400.91 1861.77 1399.9Z" fill="black"/>
<path fill-rule="evenodd" clip-rule="evenodd" d="M2822.17 1460.94V1459.92C2822.17 1459.92 2821.15 1459.92 2820.13 1459.92V1460.94C2820.13 1460.94 2821.15 1460.94 2822.17 1460.94Z" fill="black"/>
<path fill-rule="evenodd" clip-rule="evenodd" d="M2328.74 1525.03C2328.74 1524.02 2328.74 1523 2326.71 1523C2326.71 1523 2326.71 1523 2326.71 1524.02C2326.71 1525.03 2326.71 1526.05 2328.74 1526.05C2328.74 1526.05 2328.74 1526.05 2328.74 1525.03Z" fill="black"/>
<path fill-rule="evenodd" clip-rule="evenodd" d="M1011.27 1569.8C1011.27 1569.8 1011.27 1569.8 1011.27 1568.78C1011.27 1568.78 1010.25 1568.78 1010.25 1569.8C1010.25 1569.8 1011.27 1569.8 1012.29 1568.78L1011.27 1569.8Z" fill="black"/>
<path fill-rule="evenodd" clip-rule="evenodd" d="M2142.58 517.839V516.822C2142.58 516.822 2141.56 516.822 2140.54 516.822V517.839C2140.54 517.839 2141.56 517.839 2142.58 517.839Z" fill="black"/>
<path fill-rule="evenodd" clip-rule="evenodd" d="M2537.31 516.822C2537.31 516.822 2536.3 515.804 2535.28 515.804C2534.26 515.804 2534.26 515.804 2535.28 517.839C2535.28 517.839 2536.3 518.856 2537.31 517.839C2537.31 517.839 2537.31 517.839 2537.31 516.822Z" fill="black"/>
<path fill-rule="evenodd" clip-rule="evenodd" d="M1313.42 1075.36C1313.42 1075.36 1312.41 1075.36 1311.39 1077.39C1311.39 1077.39 1311.39 1079.43 1312.41 1078.41C1312.41 1078.41 1313.42 1077.39 1313.42 1076.37V1075.36Z" fill="black"/>
<path fill-rule="evenodd" clip-rule="evenodd" d="M1704.09 1660.34C1704.09 1660.34 1704.09 1660.34 1704.09 1661.36C1704.09 1661.36 1704.09 1662.38 1705.11 1663.39V1662.38C1705.11 1662.38 1705.11 1660.34 1704.09 1660.34Z" fill="black"/>
<path fill-rule="evenodd" clip-rule="evenodd" d="M528.005 401.86C528.005 401.86 528.005 399.826 526.988 399.826C526.988 399.826 525.971 399.826 525.971 400.843V401.86C525.971 401.86 526.988 401.86 528.005 400.843V401.86Z" fill="black"/>
<path fill-rule="evenodd" clip-rule="evenodd" d="M2237.2 358.113C2235.16 358.113 2232.11 356.079 2231.09 360.148C2234.15 362.183 2235.16 358.113 2237.2 358.113Z" fill="black"/>
<path fill-rule="evenodd" clip-rule="evenodd" d="M335.735 1585.06V1584.04H334.718C334.718 1584.04 334.718 1584.04 334.718 1585.06C334.718 1585.06 334.718 1585.06 335.735 1585.06Z" fill="black"/>
<path fill-rule="evenodd" clip-rule="evenodd" d="M1410.07 1679.67C1410.07 1679.67 1411.08 1678.66 1411.08 1677.64C1411.08 1677.64 1411.08 1676.62 1411.08 1675.6C1411.08 1675.6 1411.08 1676.62 1410.07 1677.64V1679.67Z" fill="black"/>
<path fill-rule="evenodd" clip-rule="evenodd" d="M2510.87 1687.81C2510.87 1687.81 2509.85 1687.81 2508.83 1687.81C2508.83 1687.81 2506.8 1687.81 2508.83 1688.83C2508.83 1688.83 2509.85 1688.83 2510.87 1688.83C2510.87 1688.83 2510.87 1688.83 2510.87 1687.81Z" fill="black"/>
<path fill-rule="evenodd" clip-rule="evenodd" d="M38.6521 266.549C38.6521 266.549 38.6521 266.549 37.6348 266.549C37.6348 266.549 37.6348 266.549 37.6348 267.567C37.6348 267.567 37.6348 267.567 38.6521 268.584C38.6521 268.584 38.6521 268.584 38.6521 267.567V266.549Z" fill="black"/>
<path fill-rule="evenodd" clip-rule="evenodd" d="M466.968 1648.13C466.968 1647.12 466.968 1646.1 465.951 1646.1H463.916C463.916 1647.12 463.916 1648.13 465.951 1648.13C465.951 1648.13 466.968 1648.13 467.985 1647.12L466.968 1648.13Z" fill="black"/>
<path fill-rule="evenodd" clip-rule="evenodd" d="M38.6521 235.012C38.6521 235.012 38.6521 232.977 37.6348 232.977C37.6348 232.977 37.6348 232.978 37.6348 235.012C37.6348 235.012 37.6348 237.047 39.6695 236.03C39.6695 236.03 39.6695 236.03 39.6695 235.012H38.6521Z" fill="black"/>
<path fill-rule="evenodd" clip-rule="evenodd" d="M1970.64 1699C1970.64 1699 1971.65 1701.04 1972.67 1700.02C1972.67 1700.02 1972.67 1699 1972.67 1697.99C1972.67 1697.99 1972.67 1696.97 1970.64 1696.97C1970.64 1696.97 1969.62 1696.97 1969.62 1699H1970.64Z" fill="black"/>
<path fill-rule="evenodd" clip-rule="evenodd" d="M1280.87 223.823C1280.87 222.805 1279.85 221.788 1278.83 222.805C1278.83 222.805 1276.8 222.805 1278.83 224.84C1278.83 224.84 1279.85 225.857 1280.87 225.857C1281.88 225.857 1281.88 225.858 1281.88 224.84L1280.87 223.823Z" fill="black"/>
<path fill-rule="evenodd" clip-rule="evenodd" d="M2746.9 197.368C2747.92 197.368 2748.93 197.368 2748.93 196.351C2748.93 196.351 2748.93 195.334 2746.9 194.316C2745.88 194.316 2744.86 194.316 2744.86 196.351C2744.86 196.351 2745.88 196.351 2746.9 197.368Z" fill="black"/>
<path fill-rule="evenodd" clip-rule="evenodd" d="M1976.74 1763.1C1975.72 1763.1 1974.71 1766.15 1974.71 1767.17C1976.74 1768.18 1976.74 1766.15 1976.74 1765.13C1976.74 1765.13 1976.74 1765.13 1976.74 1764.11V1763.1Z" fill="black"/>
<path fill-rule="evenodd" clip-rule="evenodd" d="M2054.06 192.282C2054.06 192.282 2054.06 191.265 2052.02 191.265C2052.02 191.265 2052.02 191.265 2052.02 192.282C2052.02 192.282 2052.02 193.3 2054.06 193.3C2054.06 193.3 2054.06 193.3 2054.06 192.282Z" fill="black"/>
<path fill-rule="evenodd" clip-rule="evenodd" d="M1416.17 1785.48V1784.46H1415.15C1415.15 1784.46 1415.15 1785.48 1415.15 1786.5L1416.17 1785.48Z" fill="black"/>
<path fill-rule="evenodd" clip-rule="evenodd" d="M2557.65 1788.53C2557.65 1788.53 2557.65 1787.51 2556.63 1788.53C2556.63 1788.53 2555.62 1789.55 2555.62 1790.57C2555.62 1790.57 2555.62 1790.57 2556.63 1790.57C2556.63 1790.57 2556.63 1789.55 2557.65 1788.53Z" fill="black"/>
<path fill-rule="evenodd" clip-rule="evenodd" d="M2186.31 1789.55C2186.31 1789.55 2186.31 1787.51 2185.3 1788.53C2185.3 1788.53 2184.28 1789.55 2184.28 1790.57C2184.28 1791.58 2184.28 1791.58 2185.3 1791.58C2185.3 1791.58 2186.31 1791.58 2186.31 1789.55Z" fill="black"/>
<path fill-rule="evenodd" clip-rule="evenodd" d="M2146.65 1139.45C2146.65 1139.45 2145.63 1139.45 2144.62 1138.44C2144.62 1138.44 2144.62 1138.44 2144.62 1139.45C2144.62 1139.45 2144.62 1140.47 2145.63 1140.47C2145.63 1140.47 2145.63 1140.47 2145.63 1139.45H2146.65Z" fill="black"/>
<path fill-rule="evenodd" clip-rule="evenodd" d="M1723.43 130.223C1723.43 130.223 1723.43 132.258 1724.44 132.258H1726.48C1726.48 131.24 1726.48 130.223 1724.44 130.223C1724.44 130.223 1723.43 130.223 1722.41 131.24L1723.43 130.223Z" fill="black"/>
<path fill-rule="evenodd" clip-rule="evenodd" d="M46.7986 1652.2C46.7986 1652.2 46.7986 1653.22 45.7812 1654.24V1655.26C45.7812 1655.26 46.7986 1655.26 46.7986 1653.22C46.7986 1653.22 46.7986 1653.22 46.7986 1651.19V1652.2Z" fill="black"/>
<path fill-rule="evenodd" clip-rule="evenodd" d="M2249.4 85.4603C2249.4 85.4603 2248.38 85.4603 2248.38 86.4777C2248.38 86.4777 2248.38 87.4951 2250.42 87.4951C2250.42 87.4951 2250.42 87.4951 2250.42 86.4777C2250.42 86.4777 2250.42 86.4777 2249.4 86.4777V85.4603Z" fill="black"/>
<path fill-rule="evenodd" clip-rule="evenodd" d="M403.895 1066.2C403.895 1066.2 402.878 1064.17 401.86 1063.15C401.86 1064.17 401.86 1065.18 402.878 1066.2C402.878 1066.2 402.878 1066.2 403.895 1066.2Z" fill="black"/>
<path fill-rule="evenodd" clip-rule="evenodd" d="M2705.19 1601.34C2705.19 1601.34 2705.19 1601.34 2704.17 1601.34C2704.17 1601.34 2704.17 1601.34 2704.17 1602.35C2704.17 1602.35 2705.19 1601.34 2704.17 1600.32L2705.19 1601.34Z" fill="black"/>
<path fill-rule="evenodd" clip-rule="evenodd" d="M813.886 70.1995C813.886 70.1995 813.886 69.1822 812.869 69.1822C811.851 69.1822 810.834 69.1822 810.834 71.2169C810.834 71.2169 811.851 72.2344 812.869 72.2344C812.869 72.2344 813.886 72.2343 814.903 70.1995H813.886Z" fill="black"/>
<path fill-rule="evenodd" clip-rule="evenodd" d="M858.662 1790.56C858.662 1790.56 858.662 1792.6 859.679 1792.6C859.679 1792.6 860.697 1792.6 860.697 1790.56V1789.55C860.697 1789.55 859.679 1789.55 858.662 1790.56Z" fill="black"/>
<path fill-rule="evenodd" clip-rule="evenodd" d="M1365.3 419.153C1365.3 419.153 1367.33 418.136 1367.33 417.119C1367.33 417.119 1367.33 416.101 1367.33 415.084C1366.32 415.084 1366.32 415.084 1366.32 417.119C1366.32 418.136 1366.32 419.154 1366.32 420.171L1365.3 419.153Z" fill="black"/>
<path fill-rule="evenodd" clip-rule="evenodd" d="M2542.4 407.962C2542.4 406.945 2542.4 405.928 2540.36 405.928C2540.36 405.928 2539.34 405.928 2539.34 407.962C2539.34 408.98 2539.34 409.997 2540.36 409.997C2541.38 409.997 2542.4 408.98 2542.4 407.962Z" fill="black"/>
<path fill-rule="evenodd" clip-rule="evenodd" d="M1095.7 35.6084C1096.71 35.6084 1097.73 35.6083 1097.73 34.591C1097.73 34.591 1097.73 33.5736 1097.73 32.5563C1097.73 32.5563 1095.7 32.5563 1095.7 33.5737C1095.7 33.5737 1095.7 34.591 1095.7 35.6084Z" fill="black"/>
<path fill-rule="evenodd" clip-rule="evenodd" d="M1373.45 19.3293V18.312H1372.43C1372.43 18.312 1372.43 20.3467 1373.45 20.3467V19.3293Z" fill="black"/>
<path fill-rule="evenodd" clip-rule="evenodd" d="M1752.92 816.946H1751.9C1751.9 816.946 1751.9 817.963 1751.9 818.98H1752.92V816.946Z" fill="black"/>
<path fill-rule="evenodd" clip-rule="evenodd" d="M589.063 534.117C589.063 534.117 588.046 534.117 588.046 535.134C588.046 536.151 588.046 536.151 590.081 536.151H591.098C591.098 536.151 591.098 535.134 590.081 534.117H589.063Z" fill="black"/>
</g>
<defs>
<clipPath id="clip0_3955_37351">
<rect width="2848.63" height="1933" fill="white" transform="matrix(1 0 0 -1 0 1933)"/>
</clipPath>
</defs>
</svg>
