<svg width="2849" height="1933" viewBox="0 0 2849 1933" fill="none" xmlns="http://www.w3.org/2000/svg">
<g clip-path="url(#clip0_3955_37815)">
<path fill-rule="evenodd" clip-rule="evenodd" d="M2851.03 1030.59C2848.99 1030.59 2847.98 1030.59 2845.94 1030.59C2842.89 1031.61 2842.89 1034.66 2844.92 1036.7C2845.94 1038.73 2847.98 1036.7 2848.99 1036.7C2848.99 1036.7 2850.01 1036.7 2851.03 1035.68V1030.59Z" fill="black"/>
<path fill-rule="evenodd" clip-rule="evenodd" d="M2483.76 2.03418C2485.79 5.08628 2483.76 10.1731 2487.83 13.2252C2491.9 8.13838 2485.79 6.10365 2485.79 2.03418H2483.76Z" fill="black"/>
<path fill-rule="evenodd" clip-rule="evenodd" d="M2851.03 1350.04C2851.03 1350.04 2851.03 1350.04 2850.01 1350.04C2850.01 1350.04 2847.98 1349.03 2846.96 1350.04C2846.96 1351.06 2846.96 1352.08 2846.96 1353.1C2846.96 1354.11 2848.99 1355.13 2850.01 1355.13V1352.08L2851.03 1350.04Z" fill="black"/>
<path fill-rule="evenodd" clip-rule="evenodd" d="M2851.03 1426.35C2851.03 1426.35 2850.01 1426.35 2848.99 1426.35C2848.99 1426.35 2846.96 1426.35 2846.96 1427.37C2846.96 1428.38 2847.98 1428.38 2848.99 1429.4C2848.99 1429.4 2850.01 1429.4 2851.03 1429.4V1426.35Z" fill="black"/>
<path fill-rule="evenodd" clip-rule="evenodd" d="M1346.34 1854.66C1346.34 1856.7 1348.38 1858.73 1346.34 1860.77C1344.31 1862.8 1346.34 1864.83 1347.36 1866.87C1350.41 1869.92 1353.46 1868.9 1356.51 1867.89C1359.57 1867.89 1360.58 1865.85 1360.58 1862.8C1360.58 1859.75 1360.58 1855.68 1359.57 1852.63C1359.57 1849.57 1353.46 1846.52 1350.41 1847.54C1347.36 1847.54 1346.34 1849.57 1347.36 1853.64L1346.34 1854.66Z" fill="black"/>
<path fill-rule="evenodd" clip-rule="evenodd" d="M1035.04 1117.07C1035.04 1111.98 1034.03 1107.91 1029.96 1104.86C1027.92 1103.84 1025.89 1102.83 1024.87 1104.86C1023.85 1104.86 1023.85 1107.91 1024.87 1109.95C1026.9 1111.98 1026.9 1115.03 1026.9 1118.09C1026.9 1122.16 1029.96 1123.17 1033.01 1124.19C1036.06 1124.19 1035.04 1120.12 1036.06 1118.09H1034.03C1033.01 1118.09 1031.99 1118.09 1030.97 1117.07V1116.05C1031.99 1115.03 1033.01 1116.05 1034.03 1116.05C1034.03 1116.05 1035.04 1117.07 1036.06 1118.09L1035.04 1117.07Z" fill="black"/>
<path fill-rule="evenodd" clip-rule="evenodd" d="M2030.02 875.953C2030.02 872.901 2030.02 868.832 2025.95 867.814C2021.88 867.814 2022.89 872.901 2021.88 874.936C2021.88 874.936 2021.88 876.971 2021.88 877.988C2021.88 880.023 2021.88 884.092 2025.95 883.075C2030.02 883.075 2031.03 880.023 2031.03 876.971C2031.03 876.971 2031.03 875.953 2031.03 874.936L2030.02 875.953Z" fill="black"/>
<path fill-rule="evenodd" clip-rule="evenodd" d="M1978.13 1674.59C1980.17 1674.59 1981.18 1674.59 1982.2 1674.59C1983.22 1674.59 1985.25 1672.55 1985.25 1670.52C1985.25 1668.48 1983.22 1667.47 1982.2 1667.47C1979.15 1667.47 1976.1 1666.45 1974.06 1664.41C1974.06 1664.41 1973.04 1663.4 1972.03 1664.41C1972.03 1664.41 1971.01 1665.43 1971.01 1666.45C1971.01 1670.52 1974.06 1673.57 1976.1 1676.62C1976.1 1677.64 1978.13 1676.62 1979.15 1676.62L1978.13 1674.59Z" fill="black"/>
<path fill-rule="evenodd" clip-rule="evenodd" d="M2213.15 357.095C2215.18 360.147 2213.15 361.165 2213.15 363.2C2211.11 365.234 2211.11 367.269 2211.11 369.304C2211.11 371.339 2212.13 372.356 2214.16 372.356C2216.2 372.356 2216.2 370.321 2216.2 369.304C2217.22 364.217 2216.2 359.13 2218.23 354.043C2218.23 354.043 2218.23 352.009 2216.2 350.991C2214.16 350.991 2213.15 350.991 2213.15 353.026C2213.15 355.061 2213.15 356.078 2213.15 357.095Z" fill="black"/>
<path fill-rule="evenodd" clip-rule="evenodd" d="M1754.31 538.189C1761.43 536.154 1767.53 532.084 1771.6 525.98C1771.6 525.98 1771.6 525.98 1770.59 524.963C1764.48 529.032 1759.4 533.102 1753.29 536.154C1753.29 536.154 1753.29 537.171 1754.31 538.189Z" fill="black"/>
<path fill-rule="evenodd" clip-rule="evenodd" d="M1437.92 431.364C1439.95 437.468 1441.99 438.486 1446.06 437.468C1448.09 437.468 1448.09 435.434 1449.11 433.399C1449.11 431.364 1448.09 430.347 1446.06 430.347C1444.02 430.347 1440.97 430.347 1438.93 431.364H1437.92Z" fill="black"/>
<path fill-rule="evenodd" clip-rule="evenodd" d="M950.589 1745.8C954.658 1753.94 956.693 1753.94 960.763 1749.87C962.797 1747.84 960.763 1746.82 958.728 1745.8C958.728 1745.8 957.711 1745.8 956.693 1745.8H949.572H950.589Z" fill="black"/>
<path fill-rule="evenodd" clip-rule="evenodd" d="M88.8837 613.473C83.7969 613.473 81.762 616.525 81.762 620.594C81.762 621.612 81.762 622.629 81.762 623.646C82.7794 623.646 84.8141 623.646 85.8314 623.646C87.8662 621.612 89.9011 618.56 88.8837 614.49V613.473Z" fill="black"/>
<path fill-rule="evenodd" clip-rule="evenodd" d="M1572.21 709.104C1572.21 711.138 1574.25 712.156 1576.28 712.156C1579.33 712.156 1580.35 709.104 1580.35 707.069C1580.35 705.034 1578.32 702.999 1576.28 704.017C1573.23 704.017 1572.21 707.069 1572.21 710.121V709.104Z" fill="black"/>
<path fill-rule="evenodd" clip-rule="evenodd" d="M308.643 184.143C303.556 184.143 298.469 182.109 293.382 178.039C293.382 178.039 290.33 178.039 289.313 178.039C288.295 179.056 289.313 181.091 290.33 181.091C295.417 183.126 301.521 184.143 307.625 183.126L308.643 184.143Z" fill="black"/>
<path fill-rule="evenodd" clip-rule="evenodd" d="M1604.76 438.486C1604.76 440.521 1604.76 442.556 1607.81 442.556C1610.86 442.556 1612.9 440.521 1612.9 437.469C1612.9 435.434 1610.86 433.399 1608.83 433.399C1605.78 433.399 1605.78 436.452 1605.78 438.486H1604.76Z" fill="black"/>
<path fill-rule="evenodd" clip-rule="evenodd" d="M955.672 917.664C958.724 914.612 957.706 911.56 957.706 908.508C957.706 907.491 957.706 905.456 955.672 905.456C953.637 905.456 952.62 905.456 952.62 908.508C952.62 911.56 952.619 914.612 955.672 917.664Z" fill="black"/>
<path fill-rule="evenodd" clip-rule="evenodd" d="M298.47 933.943C295.418 938.013 294.401 940.047 298.47 943.1C299.488 944.117 302.54 943.1 302.54 943.1C304.574 939.03 302.54 936.995 298.47 934.961V933.943Z" fill="black"/>
<path fill-rule="evenodd" clip-rule="evenodd" d="M1132.7 100.72C1133.72 100.72 1134.74 100.72 1134.74 98.6853C1134.74 98.6853 1128.63 92.5811 1127.61 92.5811C1126.6 92.5811 1125.58 93.5984 1125.58 94.6158C1125.58 97.6679 1127.61 99.7026 1131.68 99.7026L1132.7 100.72Z" fill="black"/>
<path fill-rule="evenodd" clip-rule="evenodd" d="M1739.04 647.045C1739.04 650.097 1741.08 651.115 1743.11 651.115C1746.17 651.115 1746.17 648.062 1747.18 646.028C1747.18 643.993 1747.18 642.976 1745.15 642.976C1742.1 642.976 1741.08 645.01 1740.06 647.045H1739.04Z" fill="black"/>
<path fill-rule="evenodd" clip-rule="evenodd" d="M1086.93 714.191C1084.89 711.139 1081.84 712.156 1078.79 711.139C1077.77 711.139 1075.74 711.139 1075.74 713.173C1075.74 715.208 1076.75 715.208 1078.79 715.208C1081.84 715.208 1083.88 715.208 1086.93 714.191Z" fill="black"/>
<path fill-rule="evenodd" clip-rule="evenodd" d="M2464.44 523.945C2464.44 525.979 2464.44 529.031 2468.51 528.014C2470.54 528.014 2471.56 528.014 2471.56 524.962C2471.56 522.927 2471.56 519.875 2467.49 520.893C2465.46 520.893 2464.44 520.893 2464.44 523.945Z" fill="black"/>
<path fill-rule="evenodd" clip-rule="evenodd" d="M69.5495 393.72C71.5842 395.755 73.619 397.79 75.6538 398.807C75.6538 398.807 77.6887 398.807 78.706 398.807C78.706 398.807 79.7234 397.79 78.706 396.772C77.6887 393.72 74.6365 391.685 72.6018 390.668C72.6018 390.668 70.5669 391.685 69.5495 392.703V393.72Z" fill="black"/>
<path fill-rule="evenodd" clip-rule="evenodd" d="M1939.47 421.189C1935.4 427.294 1937.43 433.398 1940.48 438.485C1940.48 432.38 1940.48 427.294 1939.47 421.189Z" fill="black"/>
<path fill-rule="evenodd" clip-rule="evenodd" d="M2708.6 260.445C2710.64 260.445 2710.64 258.41 2711.66 256.375C2711.66 253.323 2709.62 253.323 2707.59 253.323C2705.55 253.323 2705.55 254.341 2705.55 256.375C2705.55 258.41 2705.55 260.445 2708.6 260.445Z" fill="black"/>
<path fill-rule="evenodd" clip-rule="evenodd" d="M2334.2 1232.03C2333.19 1232.03 2330.13 1232.03 2331.15 1234.07C2331.15 1236.1 2331.15 1238.14 2334.2 1238.14C2336.24 1238.14 2337.26 1237.12 2337.26 1234.07C2337.26 1232.03 2337.26 1231.01 2334.2 1231.01V1232.03Z" fill="black"/>
<path fill-rule="evenodd" clip-rule="evenodd" d="M2825.6 770.146C2825.6 772.181 2827.64 772.181 2828.66 772.181C2831.71 772.181 2832.73 769.129 2832.73 767.094C2832.73 766.077 2831.71 765.059 2830.69 766.077C2827.64 766.077 2825.6 768.111 2825.6 771.164V770.146Z" fill="black"/>
<path fill-rule="evenodd" clip-rule="evenodd" d="M1862.15 1019.4C1859.1 1018.38 1856.05 1017.37 1855.03 1014.31C1855.03 1019.74 1857.41 1021.44 1862.15 1019.4Z" fill="black"/>
<path fill-rule="evenodd" clip-rule="evenodd" d="M320.847 478.163C322.881 478.163 323.899 478.163 324.916 475.11C324.916 473.076 324.916 471.041 321.864 471.041C319.829 471.041 318.812 474.093 317.794 476.128C317.794 478.163 319.829 478.163 320.847 478.163Z" fill="black"/>
<path fill-rule="evenodd" clip-rule="evenodd" d="M245.55 1080.44C247.585 1077.39 251.654 1076.37 251.654 1072.31C251.654 1071.29 251.654 1070.27 251.654 1069.25C250.637 1069.25 249.62 1069.25 248.602 1070.27C247.585 1073.32 245.55 1076.37 244.533 1078.41C244.533 1078.41 245.55 1078.41 246.567 1078.41L245.55 1080.44Z" fill="black"/>
<path fill-rule="evenodd" clip-rule="evenodd" d="M523.302 394.739C520.25 398.809 519.233 401.861 524.32 404.913C524.32 401.861 525.337 398.809 523.302 394.739Z" fill="black"/>
<path fill-rule="evenodd" clip-rule="evenodd" d="M2479.69 703.001C2476.64 704.018 2476.64 707.07 2477.66 709.105C2477.66 710.123 2478.67 712.157 2480.71 712.157C2483.76 711.14 2482.74 708.088 2482.74 705.036C2482.74 704.018 2481.73 703.001 2480.71 703.001H2479.69Z" fill="black"/>
<path fill-rule="evenodd" clip-rule="evenodd" d="M1502 1769.2C1502 1766.15 1498.95 1766.15 1496.92 1765.13C1494.88 1765.13 1492.85 1765.13 1492.85 1767.17C1492.85 1770.22 1494.88 1769.2 1496.92 1769.2C1498.95 1769.2 1499.97 1769.2 1502 1769.2Z" fill="black"/>
<path fill-rule="evenodd" clip-rule="evenodd" d="M1159.15 506.648C1159.15 505.63 1160.17 502.578 1157.12 502.578C1154.07 502.578 1155.08 505.63 1155.08 507.665C1155.08 509.7 1155.08 511.734 1157.12 510.717C1160.17 510.717 1159.15 507.665 1159.15 506.648Z" fill="black"/>
<path fill-rule="evenodd" clip-rule="evenodd" d="M1856.05 982.776C1856.05 980.741 1855.04 979.723 1853 978.706C1850.97 978.706 1850.97 980.741 1850.97 981.758C1850.97 983.793 1850.97 985.828 1854.02 985.828C1856.05 985.828 1856.05 983.793 1856.05 981.758V982.776Z" fill="black"/>
<path fill-rule="evenodd" clip-rule="evenodd" d="M1192.73 1642.03C1190.7 1643.05 1190.7 1645.08 1190.7 1646.1C1190.7 1647.11 1188.66 1649.15 1190.7 1650.17C1190.7 1650.17 1192.73 1651.18 1192.73 1650.17C1195.78 1650.17 1193.75 1647.11 1194.77 1645.08C1194.77 1643.05 1194.77 1642.03 1193.75 1641.01L1192.73 1642.03Z" fill="black"/>
<path fill-rule="evenodd" clip-rule="evenodd" d="M97.0234 1078.41C93.6322 1077.05 90.9194 1077.05 88.8846 1078.41C86.8499 1079.76 89.5627 1079.76 97.0234 1078.41Z" fill="black"/>
<path fill-rule="evenodd" clip-rule="evenodd" d="M1226.3 875.953C1226.3 877.988 1227.31 877.988 1229.35 877.988C1231.38 877.988 1232.4 876.971 1232.4 874.936C1232.4 873.919 1232.4 872.901 1231.38 872.901C1229.35 872.901 1227.31 873.919 1227.31 875.953H1226.3Z" fill="black"/>
<path fill-rule="evenodd" clip-rule="evenodd" d="M230.305 255.359C231.322 251.29 230.305 248.237 226.236 244.168C226.236 249.255 229.288 251.29 230.305 255.359Z" fill="black"/>
<path fill-rule="evenodd" clip-rule="evenodd" d="M2697.41 663.323C2697.41 661.288 2697.41 660.271 2695.37 660.271C2693.34 660.271 2692.32 661.288 2692.32 663.323C2692.32 664.34 2692.32 667.392 2695.37 666.375C2698.43 666.375 2696.39 663.323 2697.41 662.305V663.323Z" fill="black"/>
<path fill-rule="evenodd" clip-rule="evenodd" d="M1866.22 933.942C1866.22 935.977 1867.24 936.994 1869.28 938.012C1869.28 938.012 1871.31 938.012 1870.29 936.994C1870.29 934.96 1870.29 932.925 1867.24 932.925C1866.22 932.925 1865.21 932.925 1865.21 934.96L1866.22 933.942Z" fill="black"/>
<path fill-rule="evenodd" clip-rule="evenodd" d="M1633.25 1750.89C1633.25 1747.83 1636.3 1743.76 1635.28 1737.66C1632.23 1742.75 1633.25 1746.82 1633.25 1750.89Z" fill="black"/>
<path fill-rule="evenodd" clip-rule="evenodd" d="M967.893 166.847C967.893 166.847 967.893 166.847 966.875 167.864C966.875 169.899 965.858 171.934 966.875 172.951H968.91C970.945 170.916 970.945 168.881 967.893 166.847Z" fill="black"/>
<path fill-rule="evenodd" clip-rule="evenodd" d="M1672.92 1637.96C1674.95 1637.96 1678.01 1641.01 1680.04 1637.96V1635.93C1676.99 1633.89 1674.95 1635.93 1672.92 1637.96Z" fill="black"/>
<path fill-rule="evenodd" clip-rule="evenodd" d="M1483.7 1513.84C1482.68 1511.81 1481.67 1508.76 1478.61 1506.72C1475.56 1507.74 1476.58 1510.79 1477.6 1512.83C1478.61 1514.86 1481.67 1513.84 1483.7 1512.83V1513.84Z" fill="black"/>
<path fill-rule="evenodd" clip-rule="evenodd" d="M1807.21 1088.58C1803.82 1088.58 1801.79 1086.89 1801.11 1083.5C1799.07 1089.6 1800.09 1089.6 1807.21 1088.58Z" fill="black"/>
<path fill-rule="evenodd" clip-rule="evenodd" d="M245.558 1025.51C245.558 1025.51 244.54 1025.51 243.523 1025.51C243.523 1025.51 241.488 1025.51 242.505 1027.54C242.505 1027.54 242.505 1029.58 243.523 1029.58C244.54 1029.58 246.575 1029.58 247.592 1029.58C248.61 1029.58 249.627 1029.58 249.627 1027.54C249.627 1025.51 247.592 1025.51 245.558 1026.52V1025.51Z" fill="black"/>
<path fill-rule="evenodd" clip-rule="evenodd" d="M2498 748.783C2496.98 752.853 2496.98 755.905 2500.04 759.974C2500.04 755.905 2500.04 752.853 2498 748.783Z" fill="black"/>
<path fill-rule="evenodd" clip-rule="evenodd" d="M1278.18 1386.67C1280.21 1386.67 1282.25 1386.67 1284.28 1386.67C1282.25 1384.64 1280.21 1384.64 1278.18 1386.67Z" fill="black"/>
<path fill-rule="evenodd" clip-rule="evenodd" d="M1486.75 60.0241C1487.77 60.0241 1488.79 59.0067 1488.79 56.972C1488.79 55.9546 1486.75 55.9546 1485.74 56.972C1485.74 56.972 1482.68 56.972 1483.7 59.0067C1483.7 59.0067 1484.72 61.0415 1486.75 60.0241Z" fill="black"/>
<path fill-rule="evenodd" clip-rule="evenodd" d="M2347.43 526.998C2347.43 530.05 2347.43 530.05 2349.46 530.05C2350.48 530.05 2352.52 530.05 2352.52 528.015C2352.52 525.98 2350.48 524.963 2348.45 524.963C2347.43 524.963 2347.43 525.98 2347.43 526.998Z" fill="black"/>
<path fill-rule="evenodd" clip-rule="evenodd" d="M611.814 1574.88C610.797 1577.93 605.71 1579.97 608.762 1586.07C611.814 1583.02 614.866 1579.97 611.814 1574.88Z" fill="black"/>
<path fill-rule="evenodd" clip-rule="evenodd" d="M205.885 391.687C207.92 391.687 207.92 391.687 207.92 390.669C207.92 388.635 206.903 387.617 204.868 387.617H202.833C202.833 389.652 204.868 390.669 205.885 391.687Z" fill="black"/>
<path fill-rule="evenodd" clip-rule="evenodd" d="M1332.11 1422.28C1332.11 1424.31 1332.11 1426.35 1335.17 1426.35C1336.18 1426.35 1336.18 1425.33 1336.18 1423.3C1336.18 1421.26 1336.18 1420.24 1334.15 1419.23C1333.13 1419.23 1332.11 1420.24 1332.11 1421.26V1422.28Z" fill="black"/>
<path fill-rule="evenodd" clip-rule="evenodd" d="M991.296 394.738H990.279C990.279 396.773 989.261 398.808 990.279 400.842H991.296C992.313 398.808 991.296 396.773 991.296 393.721V394.738Z" fill="black"/>
<path fill-rule="evenodd" clip-rule="evenodd" d="M1644.43 1456.87C1644.43 1453.82 1644.43 1451.78 1643.42 1450.77C1643.42 1449.75 1643.42 1447.71 1640.36 1448.73C1639.35 1448.73 1638.33 1450.77 1639.35 1451.78C1640.36 1452.8 1642.4 1454.84 1644.43 1456.87Z" fill="black"/>
<path fill-rule="evenodd" clip-rule="evenodd" d="M1238.51 1408.04C1240.54 1408.04 1241.56 1408.04 1240.54 1406C1240.54 1403.97 1239.53 1401.93 1237.49 1401.93C1236.47 1401.93 1235.46 1401.93 1234.44 1403.97C1234.44 1407.02 1236.47 1407.02 1237.49 1408.04H1238.51Z" fill="black"/>
<path fill-rule="evenodd" clip-rule="evenodd" d="M2659.77 1588.11C2658.76 1585.06 2656.72 1582.01 2652.65 1582.01C2652.65 1585.06 2654.69 1588.11 2659.77 1588.11Z" fill="black"/>
<path fill-rule="evenodd" clip-rule="evenodd" d="M1014.68 22.3818C1009.59 24.4166 1008.58 27.4687 1007.56 29.5034C1010.61 28.486 1012.64 26.4513 1014.68 22.3818Z" fill="black"/>
<path fill-rule="evenodd" clip-rule="evenodd" d="M2474.6 31.5378C2474.6 31.5378 2474.6 31.5378 2474.6 30.5204C2474.6 28.4857 2474.6 26.451 2473.58 25.4336H2471.55C2471.55 28.4857 2471.55 30.5204 2473.58 31.5378H2474.6Z" fill="black"/>
<path fill-rule="evenodd" clip-rule="evenodd" d="M386.976 697.913C386.976 698.93 386.975 700.965 389.01 700.965C390.028 700.965 391.045 700.965 391.045 698.93C391.045 696.895 391.045 696.895 389.01 695.878C387.993 695.878 386.976 695.878 386.976 697.913Z" fill="black"/>
<path fill-rule="evenodd" clip-rule="evenodd" d="M2267.06 1041.78C2267.06 1043.82 2266.04 1046.87 2269.1 1048.9H2270.11C2271.13 1045.85 2270.11 1043.82 2268.08 1041.78H2267.06Z" fill="black"/>
<path fill-rule="evenodd" clip-rule="evenodd" d="M2106.31 171.934C2106.31 171.934 2106.31 172.951 2107.33 172.951C2109.37 172.951 2111.4 173.969 2113.44 172.951V170.917C2110.38 168.882 2108.35 170.917 2106.31 171.934Z" fill="black"/>
<path fill-rule="evenodd" clip-rule="evenodd" d="M619.954 157.691C619.954 158.708 619.954 160.743 623.006 159.726C624.024 159.726 626.058 159.726 625.041 157.691C625.041 156.673 625.041 154.639 621.989 154.639C619.954 154.639 619.954 155.656 619.954 157.691Z" fill="black"/>
<path fill-rule="evenodd" clip-rule="evenodd" d="M93.9634 339.801C95.9981 339.801 97.0153 343.871 100.067 341.836C100.067 341.836 101.085 339.801 100.067 338.784C98.0326 335.732 95.9981 337.766 93.9634 338.784V339.801Z" fill="black"/>
<path fill-rule="evenodd" clip-rule="evenodd" d="M2542.78 380.495C2542.78 381.512 2542.78 384.564 2544.81 384.564C2546.85 384.564 2546.85 382.529 2546.85 381.512C2546.85 379.477 2546.85 378.46 2544.81 378.46C2543.8 378.46 2543.8 379.477 2543.8 380.495H2542.78Z" fill="black"/>
<path fill-rule="evenodd" clip-rule="evenodd" d="M2052.39 233.994C2052.39 237.046 2053.41 239.081 2054.43 242.133C2056.46 239.081 2054.43 236.029 2054.43 233.994C2054.43 233.994 2053.41 233.994 2052.39 233.994Z" fill="black"/>
<path fill-rule="evenodd" clip-rule="evenodd" d="M207.923 642.975C207.923 643.992 207.923 645.01 209.958 645.01C210.975 645.01 211.992 645.01 211.992 642.975C211.992 641.958 211.992 639.923 209.958 639.923C208.94 639.923 207.923 640.94 207.923 641.958V642.975Z" fill="black"/>
<path fill-rule="evenodd" clip-rule="evenodd" d="M390.017 513.769C390.017 515.804 390.017 516.821 392.051 517.839C393.069 517.839 394.086 517.839 394.086 515.804C394.086 513.769 394.086 512.752 391.034 512.752C391.034 512.752 388.999 512.752 388.999 514.787L390.017 513.769Z" fill="black"/>
<path fill-rule="evenodd" clip-rule="evenodd" d="M213.003 611.436C213.003 613.471 216.056 613.471 217.073 613.471C218.09 613.471 219.108 613.471 218.09 611.436C218.09 610.419 216.056 609.401 215.038 609.401C213.004 609.401 213.003 610.419 213.003 612.453V611.436Z" fill="black"/>
<path fill-rule="evenodd" clip-rule="evenodd" d="M1699.38 1280.86C1697.34 1282.9 1695.31 1285.95 1695.31 1289C1699.37 1285.95 1699.38 1285.95 1699.38 1280.86Z" fill="black"/>
<path fill-rule="evenodd" clip-rule="evenodd" d="M2160.25 427.293C2160.25 427.293 2159.23 427.293 2158.22 428.31C2158.22 428.31 2156.18 430.345 2157.2 431.362C2157.2 431.362 2157.2 431.362 2158.22 431.362C2160.25 431.362 2160.25 429.327 2160.25 427.293C2160.25 427.293 2160.25 427.293 2160.25 426.275V427.293Z" fill="black"/>
<path fill-rule="evenodd" clip-rule="evenodd" d="M1640.38 213.648C1640.38 209.578 1640.38 206.526 1638.34 204.491C1638.34 204.491 1638.34 205.509 1638.34 206.526C1638.34 208.561 1640.38 209.578 1641.39 213.648H1640.38Z" fill="black"/>
<path fill-rule="evenodd" clip-rule="evenodd" d="M1034.02 190.248C1034.02 191.266 1034.02 192.283 1036.05 192.283C1038.09 192.283 1038.09 191.266 1038.09 189.231C1038.09 188.213 1038.09 186.179 1036.05 186.179C1035.03 186.179 1034.02 187.196 1034.02 189.231V190.248Z" fill="black"/>
<path fill-rule="evenodd" clip-rule="evenodd" d="M2527.52 1299.18C2526.5 1297.14 2524.46 1296.12 2523.45 1294.09C2523.45 1297.14 2524.46 1299.18 2527.52 1299.18Z" fill="black"/>
<path fill-rule="evenodd" clip-rule="evenodd" d="M2077.83 1699V1708.16C2080.88 1705.11 2079.86 1703.07 2077.83 1699Z" fill="black"/>
<path fill-rule="evenodd" clip-rule="evenodd" d="M1585.43 523.943C1590.52 525.978 1592.56 523.943 1596.62 523.943C1592.56 520.891 1589.5 521.908 1585.43 523.943Z" fill="black"/>
<path fill-rule="evenodd" clip-rule="evenodd" d="M2600.76 1080.45C2600.76 1081.46 2600.76 1082.48 2602.8 1082.48C2603.81 1082.48 2604.83 1082.48 2604.83 1080.45C2604.83 1080.45 2604.83 1079.43 2602.8 1079.43C2601.78 1079.43 2600.76 1079.43 2600.76 1080.45Z" fill="black"/>
<path fill-rule="evenodd" clip-rule="evenodd" d="M1778.73 82.4082C1778.73 82.4082 1775.68 82.4082 1775.68 84.4429C1775.68 84.4429 1776.7 85.4603 1777.71 85.4603C1779.75 85.4603 1780.77 85.4603 1780.77 83.4256C1780.77 83.4256 1780.77 82.4082 1778.73 82.4082Z" fill="black"/>
<path fill-rule="evenodd" clip-rule="evenodd" d="M1473.51 1499.6C1473.51 1500.62 1474.53 1501.64 1475.55 1501.64C1476.56 1501.64 1477.58 1501.64 1477.58 1499.6C1477.58 1498.58 1476.56 1497.57 1474.53 1497.57C1473.51 1497.57 1472.5 1497.57 1472.5 1499.6H1473.51Z" fill="black"/>
<path fill-rule="evenodd" clip-rule="evenodd" d="M319.825 919.7C320.843 919.7 320.843 919.7 321.86 917.666C321.86 917.666 322.878 915.631 321.86 915.631H320.843C320.843 916.648 320.843 917.666 320.843 918.683L319.825 919.7Z" fill="black"/>
<path fill-rule="evenodd" clip-rule="evenodd" d="M2794.07 1504.69C2794.07 1504.69 2796.11 1504.69 2796.11 1502.65C2796.11 1501.63 2796.11 1501.63 2795.09 1501.63C2794.07 1501.63 2793.05 1501.63 2793.05 1502.65C2793.05 1502.65 2793.05 1503.67 2795.09 1504.69H2794.07Z" fill="black"/>
<path fill-rule="evenodd" clip-rule="evenodd" d="M1451.14 987.862C1451.14 988.879 1451.14 989.897 1453.17 989.897C1454.19 989.897 1455.21 989.897 1455.21 987.862C1455.21 986.844 1455.21 985.827 1453.17 985.827C1452.15 985.827 1451.14 986.844 1451.14 987.862Z" fill="black"/>
<path fill-rule="evenodd" clip-rule="evenodd" d="M1895.72 1413.12C1895.72 1413.12 1895.72 1413.12 1895.72 1412.11C1895.72 1410.07 1896.74 1409.05 1895.72 1407.02H1894.7C1894.7 1408.04 1894.7 1410.07 1894.7 1412.11C1894.7 1412.11 1894.7 1412.11 1894.7 1413.12H1895.72Z" fill="black"/>
<path fill-rule="evenodd" clip-rule="evenodd" d="M1492.85 324.539C1491.84 324.539 1490.82 324.539 1490.82 326.574C1490.82 326.574 1490.82 328.609 1491.84 328.609C1492.85 328.609 1494.89 328.609 1494.89 326.574C1494.89 326.574 1494.89 325.556 1492.85 324.539Z" fill="black"/>
<path fill-rule="evenodd" clip-rule="evenodd" d="M1498.96 1577.94C1496.93 1577.94 1495.91 1577.94 1494.89 1577.94V1578.95C1496.93 1578.95 1497.94 1577.94 1498.96 1576.92V1577.94Z" fill="black"/>
<path fill-rule="evenodd" clip-rule="evenodd" d="M193.672 503.597C191.637 502.58 190.62 502.58 188.585 503.597C190.62 506.649 192.655 503.597 193.672 503.597Z" fill="black"/>
<path fill-rule="evenodd" clip-rule="evenodd" d="M1519.3 588.039C1520.32 588.039 1521.34 586.004 1521.34 584.987C1521.34 583.97 1520.32 582.952 1519.3 582.952C1518.28 582.952 1518.28 584.987 1519.3 586.004C1519.3 586.004 1519.3 588.039 1520.32 588.039H1519.3Z" fill="black"/>
<path fill-rule="evenodd" clip-rule="evenodd" d="M1759.4 1280.86C1758.38 1280.86 1756.35 1280.86 1756.35 1282.9C1756.35 1283.92 1757.37 1283.92 1758.38 1283.92C1759.4 1283.92 1760.42 1283.92 1760.42 1282.9C1760.42 1281.88 1759.4 1281.88 1758.38 1280.86H1759.4Z" fill="black"/>
<path fill-rule="evenodd" clip-rule="evenodd" d="M298.461 1381.58C298.461 1382.6 296.427 1383.62 296.427 1385.65C296.427 1387.69 296.427 1387.69 298.461 1386.67C299.479 1386.67 300.496 1384.64 300.496 1383.62C300.496 1383.62 300.496 1381.58 298.461 1381.58Z" fill="black"/>
<path fill-rule="evenodd" clip-rule="evenodd" d="M1111.34 1232.03V1234.07C1111.34 1236.1 1113.37 1237.12 1115.41 1235.08C1116.42 1234.07 1115.41 1233.05 1115.41 1232.03C1115.41 1232.03 1113.37 1232.03 1112.36 1232.03H1111.34Z" fill="black"/>
<path fill-rule="evenodd" clip-rule="evenodd" d="M2521.4 1316.47C2521.4 1318.51 2522.42 1318.51 2523.43 1317.49C2524.45 1317.49 2525.47 1317.49 2525.47 1315.46C2525.47 1314.44 2524.45 1313.42 2523.43 1313.42C2522.42 1313.42 2521.4 1313.42 2521.4 1315.46V1316.47Z" fill="black"/>
<path fill-rule="evenodd" clip-rule="evenodd" d="M101.101 1644.06C101.101 1644.06 101.101 1646.1 103.135 1646.1C105.17 1646.1 105.17 1644.06 105.17 1643.05C105.17 1642.03 104.153 1641.01 103.135 1641.01C102.118 1641.01 102.118 1642.03 102.118 1644.06H101.101Z" fill="black"/>
<path fill-rule="evenodd" clip-rule="evenodd" d="M1122.53 696.896C1122.53 696.896 1123.55 695.879 1123.55 694.862C1123.55 692.827 1123.55 691.81 1121.51 691.81C1121.51 691.81 1119.48 691.81 1119.48 692.827C1119.48 693.844 1119.48 695.879 1121.51 696.896H1122.53Z" fill="black"/>
<path fill-rule="evenodd" clip-rule="evenodd" d="M1951.69 560.568C1951.69 561.585 1951.69 562.603 1953.73 562.603C1955.76 562.603 1956.78 562.603 1956.78 560.568C1956.78 559.551 1956.78 558.533 1954.74 558.533C1953.73 558.533 1952.71 558.533 1952.71 560.568H1951.69Z" fill="black"/>
<path fill-rule="evenodd" clip-rule="evenodd" d="M1697.34 1880.1C1695.31 1880.1 1694.29 1882.13 1695.31 1884.16C1695.31 1884.16 1696.32 1885.18 1697.34 1884.16C1698.36 1882.13 1698.36 1881.11 1697.34 1879.08V1880.1Z" fill="black"/>
<path fill-rule="evenodd" clip-rule="evenodd" d="M1738.04 1175.06C1738.04 1175.06 1737.03 1177.09 1737.03 1178.11C1738.04 1178.11 1737.03 1176.08 1738.04 1175.06Z" fill="black"/>
<path fill-rule="evenodd" clip-rule="evenodd" d="M865.143 742.678C865.143 743.696 865.143 745.73 866.161 745.73C867.178 745.73 868.195 745.73 868.195 743.696C868.195 742.678 868.195 741.661 867.178 740.644C865.143 740.644 866.161 741.661 865.143 742.678Z" fill="black"/>
<path fill-rule="evenodd" clip-rule="evenodd" d="M2664.85 138.361C2664.85 138.361 2666.89 138.361 2666.89 137.344C2666.89 136.327 2666.89 134.292 2664.85 134.292C2664.85 134.292 2662.82 134.292 2662.82 135.309C2662.82 136.327 2663.83 137.344 2665.87 138.361H2664.85Z" fill="black"/>
<path fill-rule="evenodd" clip-rule="evenodd" d="M1634.27 1301.21C1634.27 1303.25 1635.29 1305.28 1637.32 1307.32C1637.32 1304.26 1637.32 1302.23 1634.27 1301.21Z" fill="black"/>
<path fill-rule="evenodd" clip-rule="evenodd" d="M482.609 9.1574C482.609 9.1574 482.609 6.1053 480.575 7.12266C480.575 7.12266 480.575 7.12267 480.575 8.14003C480.575 9.1574 480.575 11.1921 482.609 10.1748C482.609 10.1748 482.609 10.1748 482.609 9.1574Z" fill="black"/>
<path fill-rule="evenodd" clip-rule="evenodd" d="M254.714 1616.6C254.714 1616.6 255.732 1618.63 257.766 1618.63C258.784 1618.63 259.801 1617.62 258.784 1616.6C258.784 1615.58 257.766 1614.56 256.749 1614.56C255.732 1614.56 254.714 1615.58 254.714 1616.6Z" fill="black"/>
<path fill-rule="evenodd" clip-rule="evenodd" d="M709.485 1618.63C708.467 1618.63 708.467 1618.63 707.45 1619.65C707.45 1620.67 707.45 1622.7 708.467 1622.7C708.467 1622.7 710.502 1622.7 710.502 1621.68C710.502 1620.67 710.502 1618.63 708.467 1618.63H709.485Z" fill="black"/>
<path fill-rule="evenodd" clip-rule="evenodd" d="M394.092 1621.69C394.092 1621.69 394.092 1623.72 395.11 1623.72C396.127 1623.72 396.127 1622.7 397.145 1621.69V1619.65C395.11 1619.65 395.11 1621.69 395.11 1622.7L394.092 1621.69Z" fill="black"/>
<path fill-rule="evenodd" clip-rule="evenodd" d="M2646.54 1642.03C2648.58 1642.03 2650.61 1642.03 2650.61 1638.98C2650.61 1637.96 2647.56 1638.98 2647.56 1640C2647.56 1640 2647.56 1640 2647.56 1642.03H2646.54Z" fill="black"/>
<path fill-rule="evenodd" clip-rule="evenodd" d="M2193.82 1783.44C2193.82 1783.44 2194.83 1784.46 2195.85 1783.44C2196.87 1783.44 2197.89 1782.43 2196.87 1780.39C2196.87 1780.39 2195.85 1779.38 2194.83 1780.39C2193.82 1780.39 2193.82 1781.41 2193.82 1783.44Z" fill="black"/>
<path fill-rule="evenodd" clip-rule="evenodd" d="M870.213 1895.36H872.248C872.248 1894.34 872.248 1893.32 870.213 1893.32H868.179C868.179 1894.34 868.179 1895.36 870.213 1895.36Z" fill="black"/>
<path fill-rule="evenodd" clip-rule="evenodd" d="M2545.83 1916.72C2545.83 1918.75 2545.83 1920.79 2546.85 1920.79H2547.86C2547.86 1918.75 2545.83 1917.74 2544.81 1916.72H2545.83Z" fill="black"/>
<path fill-rule="evenodd" clip-rule="evenodd" d="M619.94 179.056C619.94 180.073 619.94 180.073 620.957 180.073C621.975 180.073 622.992 179.056 622.992 177.021V174.986C620.957 174.986 620.957 177.021 619.94 178.038V179.056Z" fill="black"/>
<path fill-rule="evenodd" clip-rule="evenodd" d="M1396.19 254.342C1394.16 253.324 1392.12 254.342 1390.09 254.342C1390.09 255.359 1390.09 256.377 1391.1 256.377C1393.14 256.377 1395.17 256.377 1396.19 254.342Z" fill="black"/>
<path fill-rule="evenodd" clip-rule="evenodd" d="M1292.42 291.984C1292.42 294.019 1292.42 296.054 1293.44 297.071H1294.46C1295.47 294.019 1293.44 294.019 1292.42 291.984Z" fill="black"/>
<path fill-rule="evenodd" clip-rule="evenodd" d="M2102.24 221.786H2103.26C2103.26 219.752 2103.26 219.752 2101.23 218.734H2100.21C2100.21 220.769 2100.21 220.769 2102.24 221.786Z" fill="black"/>
<path fill-rule="evenodd" clip-rule="evenodd" d="M492.786 441.537C492.786 442.554 493.803 443.571 494.821 443.571C495.838 443.571 496.855 442.554 496.855 441.537C496.855 440.519 495.838 439.502 494.821 439.502C493.803 439.502 492.786 440.519 492.786 441.537Z" fill="black"/>
<path fill-rule="evenodd" clip-rule="evenodd" d="M956.69 493.424C957.707 493.424 958.725 493.424 958.725 491.389C958.725 490.372 958.725 489.354 957.707 489.354C956.69 489.354 955.672 489.354 955.672 491.389C955.672 492.407 955.673 493.424 956.69 493.424Z" fill="black"/>
<path fill-rule="evenodd" clip-rule="evenodd" d="M2013.75 581.934C2010.69 582.951 2008.66 583.968 2005.61 583.968C2008.66 586.003 2010.69 584.986 2013.75 581.934Z" fill="black"/>
<path fill-rule="evenodd" clip-rule="evenodd" d="M1568.14 687.741C1567.13 687.741 1566.11 687.741 1566.11 689.776C1566.11 691.811 1567.13 690.793 1568.14 690.793C1569.16 690.793 1570.18 690.793 1570.18 688.759C1570.18 688.759 1570.18 687.741 1568.14 687.741Z" fill="black"/>
<path fill-rule="evenodd" clip-rule="evenodd" d="M1178.49 1222.88C1178.49 1224.91 1179.51 1224.91 1181.54 1225.93C1181.54 1225.93 1183.58 1225.93 1183.58 1224.91C1183.58 1222.88 1183.58 1221.86 1180.53 1221.86C1180.53 1221.86 1179.51 1221.86 1179.51 1223.89L1178.49 1222.88Z" fill="black"/>
<path fill-rule="evenodd" clip-rule="evenodd" d="M292.36 966.498C291.342 966.498 290.325 966.498 291.343 967.515C291.343 968.533 291.343 969.55 293.377 969.55C293.377 969.55 294.395 969.55 294.395 968.533C294.395 967.515 294.395 966.498 292.36 966.498Z" fill="black"/>
<path fill-rule="evenodd" clip-rule="evenodd" d="M2110.4 1250.35C2110.4 1251.36 2110.4 1252.38 2112.43 1252.38C2113.45 1252.38 2114.47 1252.38 2114.47 1250.35C2114.47 1249.33 2114.47 1247.29 2112.43 1247.29C2111.42 1247.29 2111.42 1248.31 2110.4 1249.33V1250.35Z" fill="black"/>
<path fill-rule="evenodd" clip-rule="evenodd" d="M288.29 1291.04C289.307 1291.04 291.342 1291.04 290.324 1287.99H289.307C288.289 1287.99 287.272 1290.02 287.272 1291.04C287.272 1291.04 287.272 1291.04 288.29 1291.04Z" fill="black"/>
<path fill-rule="evenodd" clip-rule="evenodd" d="M2763.53 1305.28C2763.53 1305.28 2762.52 1305.28 2762.52 1306.3C2762.52 1307.32 2762.52 1308.33 2763.53 1308.33C2763.53 1308.33 2764.55 1308.33 2764.55 1307.32C2764.55 1306.3 2764.55 1305.28 2763.53 1305.28Z" fill="black"/>
<path fill-rule="evenodd" clip-rule="evenodd" d="M2820.51 1313.42C2820.51 1313.42 2819.49 1313.42 2820.51 1315.46C2820.51 1315.46 2820.51 1316.47 2821.53 1317.49C2821.53 1317.49 2823.56 1317.49 2822.55 1316.47C2822.55 1315.46 2822.55 1314.44 2820.51 1314.44V1313.42Z" fill="black"/>
<path fill-rule="evenodd" clip-rule="evenodd" d="M1225.29 1339.87C1227.32 1336.82 1227.32 1335.8 1226.31 1332.75C1225.29 1334.78 1224.27 1336.82 1225.29 1339.87Z" fill="black"/>
<path fill-rule="evenodd" clip-rule="evenodd" d="M1288.37 1363.27C1289.38 1363.27 1290.4 1362.26 1289.38 1361.24C1289.38 1360.22 1289.38 1359.2 1287.35 1359.2C1286.33 1359.2 1285.31 1359.2 1285.31 1361.24C1285.31 1361.24 1285.31 1363.27 1287.35 1363.27H1288.37Z" fill="black"/>
<path fill-rule="evenodd" clip-rule="evenodd" d="M175.355 1374.46C175.355 1372.43 176.372 1369.38 174.338 1369.38C172.303 1369.38 174.338 1371.41 174.338 1372.43C174.338 1372.43 174.338 1372.43 175.355 1373.45V1374.46Z" fill="black"/>
<path fill-rule="evenodd" clip-rule="evenodd" d="M1873.34 1424.31H1874.35C1874.35 1422.28 1874.35 1422.28 1872.32 1421.26H1871.3C1871.3 1423.3 1872.32 1423.3 1873.34 1424.31Z" fill="black"/>
<path fill-rule="evenodd" clip-rule="evenodd" d="M1812.31 1489.42C1812.31 1490.44 1814.35 1491.46 1815.36 1489.42C1815.36 1489.42 1816.38 1488.41 1815.36 1487.39C1815.36 1486.37 1813.33 1486.37 1812.31 1487.39C1812.31 1487.39 1811.29 1488.41 1812.31 1489.42Z" fill="black"/>
<path fill-rule="evenodd" clip-rule="evenodd" d="M365.609 24.4177C368.661 22.3829 366.626 20.3482 365.609 18.3135C363.574 20.3482 363.574 22.3829 365.609 24.4177Z" fill="black"/>
<path fill-rule="evenodd" clip-rule="evenodd" d="M1755.32 35.6074C1755.32 35.6074 1755.32 35.6074 1753.29 36.6248C1753.29 36.6248 1754.31 37.6422 1755.32 37.6422C1755.32 37.6422 1757.36 37.6422 1757.36 36.6248C1757.36 36.6248 1757.36 35.6074 1755.32 35.6074Z" fill="black"/>
<path fill-rule="evenodd" clip-rule="evenodd" d="M224.193 1833.3H223.176C223.176 1833.3 223.176 1834.31 223.176 1835.33C223.176 1835.33 223.176 1835.33 224.193 1835.33V1833.3Z" fill="black"/>
<path fill-rule="evenodd" clip-rule="evenodd" d="M621.987 102.755C620.969 104.79 621.987 106.824 623.004 106.824C625.039 106.824 623.004 104.79 623.004 103.772C623.004 103.772 623.004 103.772 621.987 103.772V102.755Z" fill="black"/>
<path fill-rule="evenodd" clip-rule="evenodd" d="M2764.56 116.998C2765.58 116.998 2765.58 115.981 2766.6 114.963C2766.6 112.929 2766.6 112.929 2764.56 112.929C2764.56 112.929 2763.55 112.929 2763.55 114.963C2763.55 114.963 2763.55 115.981 2764.56 116.998Z" fill="black"/>
<path fill-rule="evenodd" clip-rule="evenodd" d="M2144.98 472.06C2144.98 472.06 2144.98 473.077 2147.01 473.077C2148.03 473.077 2149.04 472.06 2149.04 471.042C2149.04 471.042 2149.04 469.008 2148.03 470.025C2147.01 470.025 2145.99 471.042 2145.99 473.077L2144.98 472.06Z" fill="black"/>
<path fill-rule="evenodd" clip-rule="evenodd" d="M1827.57 1851.61C1828.59 1851.61 1829.61 1851.61 1829.61 1849.58C1829.61 1849.58 1829.61 1848.56 1827.57 1848.56C1826.55 1848.56 1825.54 1848.56 1825.54 1850.59C1825.54 1850.59 1825.54 1851.61 1827.57 1851.61Z" fill="black"/>
<path fill-rule="evenodd" clip-rule="evenodd" d="M1109.3 144.466V145.484C1109.3 145.484 1111.33 145.484 1111.33 144.466C1111.33 144.466 1111.33 142.432 1110.31 142.432C1110.31 142.432 1109.3 143.449 1108.28 144.466H1109.3Z" fill="black"/>
<path fill-rule="evenodd" clip-rule="evenodd" d="M1241.56 1883.15C1241.56 1883.15 1239.53 1883.15 1239.53 1884.16C1239.53 1884.16 1239.53 1885.18 1240.54 1886.2C1240.54 1886.2 1241.56 1886.2 1241.56 1885.18C1241.56 1885.18 1241.56 1884.16 1241.56 1883.15Z" fill="black"/>
<path fill-rule="evenodd" clip-rule="evenodd" d="M1044.2 778.286V779.303C1046.23 779.303 1047.25 777.268 1047.25 776.251V775.233C1046.23 775.233 1044.2 777.268 1044.2 778.286Z" fill="black"/>
<path fill-rule="evenodd" clip-rule="evenodd" d="M2552.95 1151.66C2553.96 1151.66 2553.96 1151.66 2553.96 1149.62C2553.96 1148.61 2553.96 1147.59 2551.93 1147.59C2551.93 1147.59 2549.89 1147.59 2549.89 1148.61C2549.89 1150.64 2549.89 1150.64 2551.93 1151.66H2552.95Z" fill="black"/>
<path fill-rule="evenodd" clip-rule="evenodd" d="M2106.32 359.13C2106.32 359.13 2106.32 359.13 2107.34 359.13C2107.34 359.13 2108.36 359.13 2107.34 357.095C2107.34 357.095 2107.34 357.095 2107.34 356.078C2107.34 356.078 2106.32 356.078 2106.32 359.13Z" fill="black"/>
<path fill-rule="evenodd" clip-rule="evenodd" d="M1002.47 1161.83C1002.47 1161.83 1002.47 1162.85 1002.47 1163.87C1002.47 1163.87 1002.47 1165.9 1003.49 1163.87C1003.49 1163.87 1003.49 1162.85 1003.49 1161.83C1003.49 1161.83 1003.49 1161.83 1002.47 1161.83Z" fill="black"/>
<path fill-rule="evenodd" clip-rule="evenodd" d="M1315.83 871.882C1315.83 871.882 1315.83 873.917 1316.85 873.917C1316.85 873.917 1317.86 871.882 1317.86 870.865C1317.86 869.847 1317.86 868.83 1315.83 868.83C1315.83 868.83 1314.81 868.83 1315.83 870.865V871.882Z" fill="black"/>
<path fill-rule="evenodd" clip-rule="evenodd" d="M1463.35 739.625C1463.35 739.625 1461.32 739.625 1461.32 740.642C1461.32 740.642 1461.32 742.677 1462.33 742.677C1462.33 742.677 1463.35 742.677 1464.37 741.66C1464.37 741.66 1464.37 739.625 1463.35 739.625Z" fill="black"/>
<path fill-rule="evenodd" clip-rule="evenodd" d="M687.104 349.976C687.104 349.976 688.121 352.01 689.139 350.993C689.139 350.993 690.156 350.993 690.156 348.958C690.156 347.941 689.139 346.924 688.122 347.941C688.122 347.941 687.104 347.941 687.104 349.976Z" fill="black"/>
<path fill-rule="evenodd" clip-rule="evenodd" d="M261.844 1492.48H262.861V1490.44H261.844C261.844 1490.44 261.844 1491.46 261.844 1492.48Z" fill="black"/>
<path fill-rule="evenodd" clip-rule="evenodd" d="M1162.21 693.844C1162.21 693.844 1162.21 693.844 1162.21 694.861C1162.21 694.861 1164.24 694.861 1163.22 693.844C1163.22 693.844 1163.22 693.844 1162.21 693.844C1162.21 693.844 1162.21 693.844 1161.19 693.844H1162.21Z" fill="black"/>
<path fill-rule="evenodd" clip-rule="evenodd" d="M2100.22 336.749C2100.22 336.749 2099.2 337.766 2099.2 338.784C2099.2 338.784 2099.2 340.819 2101.23 339.801C2101.23 339.801 2101.23 339.801 2101.23 338.784C2101.23 338.784 2101.23 336.749 2100.22 336.749Z" fill="black"/>
<path fill-rule="evenodd" clip-rule="evenodd" d="M1282.26 946.15H1280.23C1280.23 948.185 1282.26 948.185 1283.28 948.185C1283.28 948.185 1285.31 948.185 1284.3 947.168C1284.3 946.15 1283.28 946.15 1282.26 945.133V946.15Z" fill="black"/>
<path fill-rule="evenodd" clip-rule="evenodd" d="M1490.82 1256.45C1490.82 1256.45 1490.82 1256.45 1490.82 1255.43C1490.82 1255.43 1490.82 1254.41 1489.8 1254.41C1489.8 1254.41 1488.78 1254.41 1488.78 1255.43C1488.78 1255.43 1488.78 1256.45 1490.82 1257.47V1256.45Z" fill="black"/>
<path fill-rule="evenodd" clip-rule="evenodd" d="M1454.19 1270.69C1454.19 1270.69 1455.21 1270.69 1456.23 1271.71C1456.23 1271.71 1458.26 1271.71 1457.25 1270.69C1457.25 1270.69 1456.23 1269.67 1455.21 1269.67C1455.21 1269.67 1453.18 1269.67 1453.18 1271.71L1454.19 1270.69Z" fill="black"/>
<path fill-rule="evenodd" clip-rule="evenodd" d="M52.2501 1276.79V1277.81C52.2501 1277.81 53.2676 1276.79 53.2676 1275.78C53.2676 1274.76 53.2675 1273.74 52.2501 1274.76C52.2501 1274.76 52.2501 1275.78 52.2501 1276.79Z" fill="black"/>
<path fill-rule="evenodd" clip-rule="evenodd" d="M824.448 325.556C824.448 325.556 824.448 327.591 825.465 327.591C825.465 327.591 827.5 327.591 827.5 326.574V324.539C826.483 324.539 825.465 324.539 825.465 326.574L824.448 325.556Z" fill="black"/>
<path fill-rule="evenodd" clip-rule="evenodd" d="M1232.4 618.56C1232.4 618.56 1232.4 616.525 1230.36 616.525C1230.36 616.525 1229.34 617.543 1229.34 618.56C1229.34 618.56 1229.34 620.595 1231.38 620.595C1231.38 620.595 1233.41 620.595 1233.41 618.56H1232.4Z" fill="black"/>
<path fill-rule="evenodd" clip-rule="evenodd" d="M2664.85 1594.22C2664.85 1594.22 2663.83 1595.23 2664.85 1596.25C2664.85 1596.25 2664.85 1597.27 2665.87 1598.29C2665.87 1598.29 2666.89 1598.29 2666.89 1597.27C2666.89 1597.27 2666.89 1595.23 2664.85 1595.23V1594.22Z" fill="black"/>
<path fill-rule="evenodd" clip-rule="evenodd" d="M2426.79 926.82C2426.79 925.802 2426.79 924.785 2425.78 924.785C2424.76 924.785 2423.74 925.802 2424.76 926.82C2424.76 926.82 2424.76 928.855 2425.78 927.837C2425.78 927.837 2425.78 926.82 2426.79 926.82Z" fill="black"/>
<path fill-rule="evenodd" clip-rule="evenodd" d="M2326.07 1602.35C2326.07 1602.35 2326.07 1604.39 2327.09 1604.39C2327.09 1604.39 2328.1 1604.39 2327.09 1602.35V1601.33C2327.09 1601.33 2326.07 1601.34 2325.05 1602.35H2326.07Z" fill="black"/>
<path fill-rule="evenodd" clip-rule="evenodd" d="M1947.61 1064.16C1947.61 1065.18 1947.61 1066.2 1948.62 1066.2C1949.64 1066.2 1950.66 1066.2 1950.66 1064.16C1950.66 1064.16 1950.66 1062.13 1949.64 1062.13C1948.62 1062.13 1947.61 1063.15 1947.61 1064.16Z" fill="black"/>
<path fill-rule="evenodd" clip-rule="evenodd" d="M769.494 864.762L770.512 863.745C770.512 862.728 769.494 862.728 768.477 862.728C768.477 862.728 767.46 862.728 767.46 864.762C767.46 865.78 768.477 866.797 770.512 865.78L769.494 864.762Z" fill="black"/>
<path fill-rule="evenodd" clip-rule="evenodd" d="M981.11 914.612C980.092 916.647 980.092 917.664 981.11 919.699H983.145C983.145 917.664 983.144 916.647 981.11 915.63V914.612Z" fill="black"/>
<path fill-rule="evenodd" clip-rule="evenodd" d="M689.133 1641.01C689.133 1641.01 690.151 1641.01 691.168 1638.98C691.168 1638.98 691.168 1637.96 690.151 1637.96C690.151 1637.96 688.116 1637.96 688.116 1640C688.116 1640 688.116 1641.01 690.151 1642.03L689.133 1641.01Z" fill="black"/>
<path fill-rule="evenodd" clip-rule="evenodd" d="M204.856 1318.51H205.873C205.873 1318.51 205.873 1316.47 204.856 1317.49C204.856 1317.49 204.856 1317.49 204.856 1318.51C204.856 1318.51 204.856 1318.51 204.856 1319.52V1318.51Z" fill="black"/>
<path fill-rule="evenodd" clip-rule="evenodd" d="M710.495 827.119C710.495 828.136 711.512 829.154 712.529 829.154C712.529 829.154 712.529 828.136 712.529 827.119C712.529 827.119 712.529 826.102 710.495 826.102C710.495 826.102 708.46 826.102 709.477 828.136L710.495 827.119Z" fill="black"/>
<path fill-rule="evenodd" clip-rule="evenodd" d="M1182.56 1022.45C1183.57 1022.45 1184.59 1021.44 1183.57 1019.4C1183.57 1018.38 1182.56 1017.37 1181.54 1017.37C1180.52 1017.37 1179.51 1018.38 1180.52 1019.4C1180.52 1019.4 1180.52 1021.44 1182.56 1021.44V1022.45Z" fill="black"/>
<path fill-rule="evenodd" clip-rule="evenodd" d="M122.451 1340.89C122.451 1340.89 122.451 1341.91 122.451 1342.92C122.451 1342.92 122.451 1344.96 123.469 1342.92C123.469 1342.92 123.469 1342.92 123.469 1341.91C123.469 1341.91 123.469 1339.87 121.434 1340.89H122.451Z" fill="black"/>
<path fill-rule="evenodd" clip-rule="evenodd" d="M1466.39 1022.45C1466.39 1022.45 1466.39 1023.47 1468.43 1023.47C1468.43 1023.47 1469.44 1023.47 1468.43 1021.44C1468.43 1021.44 1468.43 1021.44 1467.41 1021.44C1467.41 1021.44 1466.39 1021.44 1466.39 1022.45Z" fill="black"/>
<path fill-rule="evenodd" clip-rule="evenodd" d="M2245.7 1926.89C2245.7 1927.91 2245.7 1928.93 2246.72 1928.93H2248.75C2248.75 1927.91 2248.75 1926.89 2247.74 1927.91C2247.74 1927.91 2246.72 1927.91 2245.7 1927.91V1926.89Z" fill="black"/>
<path fill-rule="evenodd" clip-rule="evenodd" d="M585.359 1030.59C585.359 1030.59 585.359 1028.56 584.342 1028.56C584.342 1028.56 584.342 1029.58 584.342 1030.59C584.342 1030.59 584.342 1032.63 585.359 1031.61C585.359 1031.61 585.359 1031.61 585.359 1030.59Z" fill="black"/>
<path fill-rule="evenodd" clip-rule="evenodd" d="M2593.65 1381.58C2593.65 1383.62 2593.65 1384.64 2595.68 1384.64C2595.68 1384.64 2597.72 1384.64 2597.72 1383.62C2597.72 1382.6 2597.72 1380.57 2595.68 1380.57C2594.67 1380.57 2594.67 1380.57 2594.67 1381.58H2593.65Z" fill="black"/>
<path fill-rule="evenodd" clip-rule="evenodd" d="M477.514 1688.83C477.514 1688.83 479.549 1687.81 479.549 1686.8V1685.78C479.549 1685.78 478.531 1685.78 477.514 1686.8V1688.83Z" fill="black"/>
<path fill-rule="evenodd" clip-rule="evenodd" d="M2821.54 52.9023C2821.54 52.9023 2819.5 52.9023 2819.5 53.9197C2819.5 53.9197 2819.5 55.9544 2820.52 54.9371C2820.52 54.9371 2821.54 53.9197 2822.55 52.9023C2822.55 52.9023 2822.55 52.9023 2821.54 52.9023Z" fill="black"/>
<path fill-rule="evenodd" clip-rule="evenodd" d="M774.58 122.085C774.58 122.085 775.598 122.085 775.598 120.05C775.598 120.05 775.598 118.016 774.58 118.016C774.58 118.016 773.563 118.016 773.563 120.05C773.563 120.05 773.563 121.068 775.598 122.085H774.58Z" fill="black"/>
<path fill-rule="evenodd" clip-rule="evenodd" d="M295.404 134.292C295.404 134.292 294.387 134.292 294.387 136.327C294.387 136.327 294.387 138.361 295.404 137.344C295.404 137.344 295.405 136.327 296.422 135.309L295.404 134.292Z" fill="black"/>
<path fill-rule="evenodd" clip-rule="evenodd" d="M1280.22 1136.4V1137.42C1280.22 1137.42 1282.25 1137.42 1282.25 1136.4V1135.38C1282.25 1135.38 1280.22 1135.38 1280.22 1136.4Z" fill="black"/>
<path fill-rule="evenodd" clip-rule="evenodd" d="M2784.9 1145.56C2784.9 1145.56 2784.9 1145.56 2784.9 1144.54C2784.9 1144.54 2784.9 1143.52 2782.86 1144.54V1145.56C2782.86 1145.56 2782.86 1145.56 2783.88 1145.56H2784.9Z" fill="black"/>
<path fill-rule="evenodd" clip-rule="evenodd" d="M142.799 1143.52C141.782 1143.52 140.764 1143.52 140.764 1145.55C140.764 1145.55 140.764 1147.59 141.782 1147.59C142.799 1147.59 143.816 1147.59 143.816 1145.55C143.816 1145.55 143.816 1144.54 142.799 1143.52Z" fill="black"/>
<path fill-rule="evenodd" clip-rule="evenodd" d="M88.8922 1155.73C88.8922 1155.73 88.892 1156.75 90.9267 1156.75C90.9267 1156.75 91.9441 1155.73 90.9267 1154.71C90.9267 1154.71 90.9269 1152.68 88.8922 1153.7C88.8922 1153.7 87.8748 1153.69 87.8748 1155.73H88.8922Z" fill="black"/>
<path fill-rule="evenodd" clip-rule="evenodd" d="M2811.37 1168.96C2811.37 1168.96 2811.37 1168.96 2811.37 1167.94C2811.37 1167.94 2811.37 1166.92 2810.35 1165.9C2810.35 1165.9 2810.35 1165.9 2810.35 1166.92C2810.35 1166.92 2810.35 1167.94 2811.37 1168.96Z" fill="black"/>
<path fill-rule="evenodd" clip-rule="evenodd" d="M595.531 1184.21C595.531 1183.2 595.531 1183.2 594.514 1182.18H593.497C593.497 1182.18 593.497 1183.2 595.531 1184.21Z" fill="black"/>
<path fill-rule="evenodd" clip-rule="evenodd" d="M189.612 966.498C189.612 966.498 189.612 967.515 190.629 967.515C190.629 967.515 191.646 967.515 191.646 966.498C191.646 966.498 191.647 965.48 190.629 965.48C190.629 965.48 189.612 965.48 189.612 967.515V966.498Z" fill="black"/>
<path fill-rule="evenodd" clip-rule="evenodd" d="M1111.33 1232.03C1111.33 1232.03 1111.33 1232.03 1111.33 1230C1111.33 1228.98 1111.33 1227.96 1111.33 1226.95C1110.31 1227.96 1111.33 1228.98 1111.33 1230C1111.33 1230 1111.33 1230 1111.33 1231.01V1232.03Z" fill="black"/>
<path fill-rule="evenodd" clip-rule="evenodd" d="M737.959 636.873C737.959 636.873 736.942 636.873 736.942 638.908V639.925C736.942 639.925 738.977 639.925 738.977 638.908C738.977 638.908 738.977 637.89 737.959 636.873Z" fill="black"/>
<path fill-rule="evenodd" clip-rule="evenodd" d="M47.1708 1278.83C47.1708 1279.85 47.1706 1279.85 49.2054 1279.85H51.2402C51.2402 1279.85 51.2402 1279.85 50.2228 1278.83H48.1883H47.1708Z" fill="black"/>
<path fill-rule="evenodd" clip-rule="evenodd" d="M2205 574.812C2203.98 576.847 2202.96 578.882 2205 579.899C2207.03 579.899 2206.02 577.865 2206.02 576.847C2206.02 576.847 2206.02 576.847 2206.02 574.812H2205Z" fill="black"/>
<path fill-rule="evenodd" clip-rule="evenodd" d="M236.405 549.378H235.387C235.387 550.395 235.387 551.413 237.422 551.413H238.439C238.439 550.395 238.44 549.378 236.405 549.378Z" fill="black"/>
<path fill-rule="evenodd" clip-rule="evenodd" d="M765.44 540.221C765.44 540.221 765.44 540.221 766.457 540.221V539.204C766.457 539.204 766.457 539.204 765.44 539.204V541.239V540.221Z" fill="black"/>
<path fill-rule="evenodd" clip-rule="evenodd" d="M2724.88 1319.52V1320.54H2726.92V1319.52H2724.88Z" fill="black"/>
<path fill-rule="evenodd" clip-rule="evenodd" d="M1331.09 912.578C1330.07 915.63 1330.07 916.648 1331.09 917.665H1332.11C1332.11 915.63 1331.09 915.63 1330.07 912.578H1331.09Z" fill="black"/>
<path fill-rule="evenodd" clip-rule="evenodd" d="M987.225 533.1C987.225 533.1 987.225 534.118 989.26 534.118C989.26 534.118 990.277 534.118 990.277 532.083C990.277 532.083 990.277 532.083 989.26 532.083C989.26 532.083 988.243 532.083 987.225 533.1Z" fill="black"/>
<path fill-rule="evenodd" clip-rule="evenodd" d="M26.8326 472.058V473.075C26.8326 473.075 27.8498 473.075 28.8672 473.075V472.058C28.8672 472.058 27.85 472.058 26.8326 472.058Z" fill="black"/>
<path fill-rule="evenodd" clip-rule="evenodd" d="M520.254 407.964C520.254 408.981 520.254 409.998 522.289 409.998C522.289 409.998 522.289 409.998 522.289 408.981C522.289 407.964 522.289 406.946 520.254 406.946C520.254 406.946 520.254 406.946 520.254 407.964Z" fill="black"/>
<path fill-rule="evenodd" clip-rule="evenodd" d="M1837.73 363.2C1837.73 363.2 1837.73 363.2 1837.73 364.218C1837.73 364.218 1838.75 364.218 1838.75 363.2C1838.75 363.2 1837.73 363.2 1836.71 364.218L1837.73 363.2Z" fill="black"/>
<path fill-rule="evenodd" clip-rule="evenodd" d="M706.422 1415.16V1416.18C706.422 1416.18 707.44 1416.18 708.457 1416.18V1415.16C708.457 1415.16 707.44 1415.16 706.422 1415.16Z" fill="black"/>
<path fill-rule="evenodd" clip-rule="evenodd" d="M311.687 1416.18C311.687 1416.18 312.704 1417.19 313.721 1417.19C314.739 1417.19 314.739 1417.19 313.721 1415.16C313.721 1415.16 312.704 1414.14 311.687 1415.16C311.687 1415.16 311.687 1415.16 311.687 1416.18Z" fill="black"/>
<path fill-rule="evenodd" clip-rule="evenodd" d="M1535.58 857.64C1535.58 857.64 1536.59 857.64 1537.61 855.605C1537.61 855.605 1537.61 853.57 1536.59 854.588C1536.59 854.588 1535.58 855.605 1535.58 856.622V857.64Z" fill="black"/>
<path fill-rule="evenodd" clip-rule="evenodd" d="M1144.91 272.655C1144.91 272.655 1144.91 272.655 1144.91 271.637C1144.91 271.637 1144.91 270.62 1143.89 269.603V270.62C1143.89 270.62 1143.89 272.655 1144.91 272.655Z" fill="black"/>
<path fill-rule="evenodd" clip-rule="evenodd" d="M2320.99 1531.14C2320.99 1531.14 2320.99 1533.17 2322.01 1533.17C2322.01 1533.17 2323.03 1533.17 2323.03 1532.15V1531.14C2323.03 1531.14 2322.01 1531.14 2320.99 1532.15V1531.14Z" fill="black"/>
<path fill-rule="evenodd" clip-rule="evenodd" d="M611.802 1574.88C613.837 1574.88 616.889 1576.92 617.906 1572.85C614.854 1570.81 613.837 1574.88 611.802 1574.88Z" fill="black"/>
<path fill-rule="evenodd" clip-rule="evenodd" d="M2513.26 347.939V348.957H2514.28C2514.28 348.957 2514.28 348.957 2514.28 347.939C2514.28 347.939 2514.28 347.939 2513.26 347.939Z" fill="black"/>
<path fill-rule="evenodd" clip-rule="evenodd" d="M1438.93 253.323C1438.93 253.323 1437.92 254.341 1437.92 255.358C1437.92 255.358 1437.92 256.375 1437.92 257.393C1437.92 257.393 1437.92 256.375 1438.93 255.358V253.323Z" fill="black"/>
<path fill-rule="evenodd" clip-rule="evenodd" d="M338.133 245.185C338.133 245.185 339.151 245.185 340.168 245.185C340.168 245.185 342.203 245.185 340.168 244.168C340.168 244.168 339.151 244.168 338.133 244.168C338.133 244.168 338.133 244.168 338.133 245.185Z" fill="black"/>
<path fill-rule="evenodd" clip-rule="evenodd" d="M2810.35 1666.45C2810.35 1666.45 2810.35 1666.45 2811.37 1666.45C2811.37 1666.45 2811.37 1666.45 2811.37 1665.43C2811.37 1665.43 2811.37 1665.43 2810.35 1664.41C2810.35 1664.41 2810.35 1664.41 2810.35 1665.43V1666.45Z" fill="black"/>
<path fill-rule="evenodd" clip-rule="evenodd" d="M2382.03 284.862C2382.03 285.88 2382.03 286.897 2383.05 286.897H2385.08C2385.08 285.88 2385.08 284.862 2383.05 284.862C2383.05 284.862 2382.03 284.862 2381.01 285.88L2382.03 284.862Z" fill="black"/>
<path fill-rule="evenodd" clip-rule="evenodd" d="M2810.35 1697.98C2810.35 1697.98 2810.35 1700.02 2811.37 1700.02C2811.37 1700.02 2811.37 1700.02 2811.37 1697.98C2811.37 1697.98 2811.37 1695.95 2809.33 1696.97C2809.33 1696.97 2809.33 1696.97 2809.33 1697.98H2810.35Z" fill="black"/>
<path fill-rule="evenodd" clip-rule="evenodd" d="M878.366 233.995C878.366 233.995 877.348 231.96 876.331 232.977C876.331 232.977 876.331 233.995 876.331 235.012C876.331 235.012 876.331 236.029 878.366 236.029C878.366 236.029 879.383 236.029 879.383 233.995H878.366Z" fill="black"/>
<path fill-rule="evenodd" clip-rule="evenodd" d="M1568.13 1709.17C1568.13 1710.19 1569.15 1711.21 1570.17 1710.19C1570.17 1710.19 1572.2 1710.19 1570.17 1708.16C1570.17 1708.16 1569.15 1707.14 1568.13 1707.14C1567.12 1707.14 1567.12 1707.14 1567.12 1708.16L1568.13 1709.17Z" fill="black"/>
<path fill-rule="evenodd" clip-rule="evenodd" d="M102.102 1735.63C101.084 1735.63 100.067 1735.63 100.067 1736.65C100.067 1736.65 100.067 1737.66 102.102 1738.68C103.119 1738.68 104.137 1738.68 104.137 1736.65C104.137 1736.65 103.119 1736.65 102.102 1735.63Z" fill="black"/>
<path fill-rule="evenodd" clip-rule="evenodd" d="M872.26 169.9C873.278 169.9 874.295 166.848 874.295 165.831C872.26 164.814 872.26 166.848 872.26 167.866C872.26 167.866 872.26 167.866 872.26 168.883V169.9Z" fill="black"/>
<path fill-rule="evenodd" clip-rule="evenodd" d="M794.944 1740.71C794.944 1740.71 794.944 1741.73 796.979 1741.73C796.979 1741.73 796.979 1741.73 796.979 1740.71C796.979 1740.71 796.979 1739.7 794.944 1739.7C794.944 1739.7 794.944 1739.7 794.944 1740.71Z" fill="black"/>
<path fill-rule="evenodd" clip-rule="evenodd" d="M1432.83 147.517V148.535H1433.85C1433.85 148.535 1433.85 147.517 1433.85 146.5L1432.83 147.517Z" fill="black"/>
<path fill-rule="evenodd" clip-rule="evenodd" d="M291.348 144.466C291.348 144.466 291.348 145.484 292.365 144.466C292.365 144.466 293.383 143.449 293.383 142.432C293.383 142.432 293.383 142.432 292.365 142.432C292.365 142.432 292.365 143.449 291.348 144.466Z" fill="black"/>
<path fill-rule="evenodd" clip-rule="evenodd" d="M662.686 143.448C662.686 143.448 662.686 145.483 663.703 144.465C663.703 144.465 664.721 143.448 664.721 142.43C664.721 141.413 664.721 141.413 663.703 141.413C663.703 141.413 662.686 141.413 662.686 143.448Z" fill="black"/>
<path fill-rule="evenodd" clip-rule="evenodd" d="M702.348 793.545C702.348 793.545 703.365 793.545 704.383 794.562C704.383 794.562 704.383 794.562 704.383 793.545C704.383 793.545 704.383 792.527 703.366 792.527C703.366 792.527 703.366 792.527 703.366 793.545H702.348Z" fill="black"/>
<path fill-rule="evenodd" clip-rule="evenodd" d="M1125.57 1802.77C1125.57 1802.77 1125.57 1800.74 1124.56 1800.74H1122.52C1122.52 1801.76 1122.52 1802.77 1124.56 1802.77C1124.56 1802.77 1125.57 1802.77 1126.59 1801.76L1125.57 1802.77Z" fill="black"/>
<path fill-rule="evenodd" clip-rule="evenodd" d="M2802.2 280.793C2802.2 280.793 2802.2 279.776 2803.22 278.759V277.741C2803.22 277.741 2802.2 277.741 2802.2 279.776C2802.2 279.776 2802.2 279.776 2802.2 281.811V280.793Z" fill="black"/>
<path fill-rule="evenodd" clip-rule="evenodd" d="M599.602 1847.54C599.602 1847.54 600.619 1847.54 600.619 1846.52C600.619 1846.52 600.619 1845.5 598.584 1845.5C598.584 1845.5 598.584 1845.5 598.584 1846.52C598.584 1846.52 598.584 1846.52 599.602 1846.52V1847.54Z" fill="black"/>
<path fill-rule="evenodd" clip-rule="evenodd" d="M2445.11 866.796C2445.11 866.796 2446.12 868.831 2447.14 869.848C2447.14 868.831 2447.14 867.813 2446.12 866.796C2446.12 866.796 2446.12 866.796 2445.11 866.796Z" fill="black"/>
<path fill-rule="evenodd" clip-rule="evenodd" d="M143.813 331.662C143.813 331.662 143.813 331.662 144.83 331.662C144.83 331.662 144.83 331.662 144.83 330.645C144.83 330.645 143.813 331.662 144.83 332.679L143.813 331.662Z" fill="black"/>
<path fill-rule="evenodd" clip-rule="evenodd" d="M2035.11 1862.8C2035.11 1862.8 2035.11 1863.81 2036.13 1863.81C2037.15 1863.81 2038.17 1863.81 2038.17 1861.78C2038.17 1861.78 2037.15 1860.76 2036.13 1860.76C2036.13 1860.76 2035.11 1860.76 2034.1 1862.8H2035.11Z" fill="black"/>
<path fill-rule="evenodd" clip-rule="evenodd" d="M1990.34 142.432C1990.34 142.432 1990.34 140.397 1989.32 140.397C1989.32 140.397 1988.3 140.397 1988.3 142.432V143.45C1988.3 143.45 1989.32 143.45 1990.34 142.432Z" fill="black"/>
<path fill-rule="evenodd" clip-rule="evenodd" d="M1483.7 1513.84C1483.7 1513.84 1481.67 1514.86 1481.67 1515.88C1481.67 1515.88 1481.67 1516.9 1481.67 1517.91C1482.68 1517.91 1482.68 1517.91 1482.68 1515.88C1482.68 1514.86 1482.68 1513.84 1482.68 1512.83L1483.7 1513.84Z" fill="black"/>
<path fill-rule="evenodd" clip-rule="evenodd" d="M306.604 1525.03C306.604 1526.05 306.604 1527.07 308.639 1527.07C308.639 1527.07 309.656 1527.07 309.656 1525.03C309.656 1524.02 309.656 1523 308.639 1523C307.622 1523 306.604 1524.02 306.604 1525.03Z" fill="black"/>
<path fill-rule="evenodd" clip-rule="evenodd" d="M1753.3 1897.39C1752.29 1897.39 1751.27 1897.39 1751.27 1898.41C1751.27 1898.41 1751.27 1899.42 1751.27 1900.44C1751.27 1900.44 1753.3 1900.44 1753.3 1899.42C1753.3 1899.42 1753.3 1898.41 1753.3 1897.39Z" fill="black"/>
<path fill-rule="evenodd" clip-rule="evenodd" d="M1475.55 1913.67V1914.69H1476.57C1476.57 1914.69 1476.57 1912.65 1475.55 1912.65V1913.67Z" fill="black"/>
<path fill-rule="evenodd" clip-rule="evenodd" d="M1096.08 1116.05H1097.1C1097.1 1116.05 1097.1 1115.03 1097.1 1114.02H1096.08V1116.05Z" fill="black"/>
<path fill-rule="evenodd" clip-rule="evenodd" d="M2259.94 1398.88C2259.94 1398.88 2260.96 1398.88 2260.96 1397.86C2260.96 1396.85 2260.96 1396.85 2258.92 1396.85H2257.9C2257.9 1396.85 2257.9 1397.86 2258.92 1398.88H2259.94Z" fill="black"/>
</g>
<defs>
<clipPath id="clip0_3955_37815">
<rect width="2848.63" height="1933" fill="white" transform="matrix(-1 0 0 1 2849 0)"/>
</clipPath>
</defs>
</svg>
