<svg width="2849" height="1933" viewBox="0 0 2849 1933" fill="none" xmlns="http://www.w3.org/2000/svg">
<g clip-path="url(#clip0_3955_37583)">
<path fill-rule="evenodd" clip-rule="evenodd" d="M-2.02734 1030.59C0.00739005 1030.59 1.02476 1030.59 3.05949 1030.59C6.11159 1031.61 6.11159 1034.66 4.07686 1036.7C3.05949 1038.73 1.02476 1036.7 0.00739005 1036.7C0.00739005 1036.7 -1.00998 1036.7 -2.02734 1035.68V1030.59Z" fill="black"/>
<path fill-rule="evenodd" clip-rule="evenodd" d="M365.242 2.03418C363.207 5.08628 365.242 10.1731 361.172 13.2252C357.103 8.13838 363.207 6.10365 363.207 2.03418H365.242Z" fill="black"/>
<path fill-rule="evenodd" clip-rule="evenodd" d="M-2.02734 1350.04C-2.02734 1350.04 -2.02734 1350.04 -1.00998 1350.04C-1.00998 1350.04 1.02476 1349.03 2.04212 1350.04C2.04212 1351.06 2.04212 1352.08 2.04212 1353.1C2.04212 1354.11 0.00739005 1355.13 -1.00998 1355.13V1352.08L-2.02734 1350.04Z" fill="black"/>
<path fill-rule="evenodd" clip-rule="evenodd" d="M-2.02734 1426.35C-2.02734 1426.35 -1.00998 1426.35 0.00739005 1426.35C0.00739005 1426.35 2.04212 1426.35 2.04212 1427.37C2.04212 1428.38 1.02476 1428.38 0.00739005 1429.4C0.00739005 1429.4 -1.00998 1429.4 -2.02734 1429.4V1426.35Z" fill="black"/>
<path fill-rule="evenodd" clip-rule="evenodd" d="M1502.66 1854.66C1502.66 1856.7 1500.62 1858.73 1502.66 1860.77C1504.69 1862.8 1502.66 1864.83 1501.64 1866.87C1498.59 1869.92 1495.54 1868.9 1492.49 1867.89C1489.43 1867.89 1488.42 1865.85 1488.42 1862.8C1488.42 1859.75 1488.42 1855.68 1489.43 1852.63C1489.43 1849.57 1495.54 1846.52 1498.59 1847.54C1501.64 1847.54 1502.66 1849.57 1501.64 1853.64L1502.66 1854.66Z" fill="black"/>
<path fill-rule="evenodd" clip-rule="evenodd" d="M1813.96 1117.07C1813.96 1111.98 1814.97 1107.91 1819.04 1104.86C1821.08 1103.84 1823.11 1102.83 1824.13 1104.86C1825.15 1104.86 1825.15 1107.91 1824.13 1109.95C1822.1 1111.98 1822.1 1115.03 1822.1 1118.09C1822.1 1122.16 1819.04 1123.17 1815.99 1124.19C1812.94 1124.19 1813.96 1120.12 1812.94 1118.09H1814.97C1815.99 1118.09 1817.01 1118.09 1818.03 1117.07V1116.05C1817.01 1115.03 1815.99 1116.05 1814.97 1116.05C1814.97 1116.05 1813.96 1117.07 1812.94 1118.09L1813.96 1117.07Z" fill="black"/>
<path fill-rule="evenodd" clip-rule="evenodd" d="M818.984 875.953C818.984 872.901 818.984 868.832 823.054 867.814C827.123 867.814 826.106 872.901 827.123 874.936C827.123 874.936 827.123 876.971 827.123 877.988C827.123 880.023 827.123 884.092 823.054 883.075C818.984 883.075 817.967 880.023 817.967 876.971C817.967 876.971 817.967 875.953 817.967 874.936L818.984 875.953Z" fill="black"/>
<path fill-rule="evenodd" clip-rule="evenodd" d="M870.87 1674.59C868.835 1674.59 867.817 1674.59 866.8 1674.59C865.783 1674.59 863.748 1672.55 863.748 1670.52C863.748 1668.48 865.783 1667.47 866.8 1667.47C869.852 1667.47 872.904 1666.45 874.939 1664.41C874.939 1664.41 875.956 1663.4 876.974 1664.41C876.974 1664.41 877.991 1665.43 877.991 1666.45C877.991 1670.52 874.939 1673.57 872.904 1676.62C872.904 1677.64 870.87 1676.62 869.852 1676.62L870.87 1674.59Z" fill="black"/>
<path fill-rule="evenodd" clip-rule="evenodd" d="M635.854 357.095C633.82 360.147 635.854 361.165 635.854 363.2C637.889 365.234 637.889 367.269 637.889 369.304C637.889 371.339 636.872 372.356 634.837 372.356C632.802 372.356 632.802 370.321 632.802 369.304C631.785 364.217 632.802 359.13 630.768 354.043C630.768 354.043 630.768 352.009 632.802 350.991C634.837 350.991 635.854 350.991 635.854 353.026C635.854 355.061 635.854 356.078 635.854 357.095Z" fill="black"/>
<path fill-rule="evenodd" clip-rule="evenodd" d="M1094.69 538.189C1087.57 536.154 1081.47 532.084 1077.4 525.98C1077.4 525.98 1077.4 525.98 1078.41 524.963C1084.52 529.032 1089.6 533.102 1095.71 536.154C1095.71 536.154 1095.71 537.171 1094.69 538.189Z" fill="black"/>
<path fill-rule="evenodd" clip-rule="evenodd" d="M1411.08 431.364C1409.05 437.468 1407.01 438.486 1402.94 437.468C1400.91 437.468 1400.91 435.434 1399.89 433.399C1399.89 431.364 1400.91 430.347 1402.94 430.347C1404.98 430.347 1408.03 430.347 1410.07 431.364H1411.08Z" fill="black"/>
<path fill-rule="evenodd" clip-rule="evenodd" d="M1898.41 1745.8C1894.34 1753.94 1892.31 1753.94 1888.24 1749.87C1886.2 1747.84 1888.24 1746.82 1890.27 1745.8C1890.27 1745.8 1891.29 1745.8 1892.31 1745.8H1899.43H1898.41Z" fill="black"/>
<path fill-rule="evenodd" clip-rule="evenodd" d="M2760.12 613.473C2765.2 613.473 2767.24 616.525 2767.24 620.594C2767.24 621.612 2767.24 622.629 2767.24 623.646C2766.22 623.646 2764.19 623.646 2763.17 623.646C2761.13 621.612 2759.1 618.56 2760.12 614.49V613.473Z" fill="black"/>
<path fill-rule="evenodd" clip-rule="evenodd" d="M1276.79 709.104C1276.79 711.138 1274.75 712.156 1272.72 712.156C1269.67 712.156 1268.65 709.104 1268.65 707.069C1268.65 705.034 1270.68 702.999 1272.72 704.017C1275.77 704.017 1276.79 707.069 1276.79 710.121V709.104Z" fill="black"/>
<path fill-rule="evenodd" clip-rule="evenodd" d="M2540.36 184.143C2545.44 184.143 2550.53 182.109 2555.62 178.039C2555.62 178.039 2558.67 178.039 2559.69 178.039C2560.7 179.056 2559.69 181.091 2558.67 181.091C2553.58 183.126 2547.48 184.143 2541.37 183.126L2540.36 184.143Z" fill="black"/>
<path fill-rule="evenodd" clip-rule="evenodd" d="M1244.24 438.486C1244.24 440.521 1244.24 442.556 1241.19 442.556C1238.14 442.556 1236.1 440.521 1236.1 437.469C1236.1 435.434 1238.14 433.399 1240.17 433.399C1243.22 433.399 1243.22 436.452 1243.22 438.486H1244.24Z" fill="black"/>
<path fill-rule="evenodd" clip-rule="evenodd" d="M1893.33 917.664C1890.28 914.612 1891.29 911.56 1891.29 908.508C1891.29 907.491 1891.29 905.456 1893.33 905.456C1895.36 905.456 1896.38 905.456 1896.38 908.508C1896.38 911.56 1896.38 914.612 1893.33 917.664Z" fill="black"/>
<path fill-rule="evenodd" clip-rule="evenodd" d="M2550.53 933.943C2553.58 938.013 2554.6 940.047 2550.53 943.1C2549.51 944.117 2546.46 943.1 2546.46 943.1C2544.43 939.03 2546.46 936.995 2550.53 934.961V933.943Z" fill="black"/>
<path fill-rule="evenodd" clip-rule="evenodd" d="M1716.3 100.72C1715.28 100.72 1714.26 100.72 1714.26 98.6853C1714.26 98.6853 1720.37 92.5811 1721.39 92.5811C1722.4 92.5811 1723.42 93.5984 1723.42 94.6158C1723.42 97.6679 1721.39 99.7026 1717.32 99.7026L1716.3 100.72Z" fill="black"/>
<path fill-rule="evenodd" clip-rule="evenodd" d="M1109.96 647.045C1109.96 650.097 1107.92 651.115 1105.89 651.115C1102.83 651.115 1102.83 648.062 1101.82 646.028C1101.82 643.993 1101.82 642.976 1103.85 642.976C1106.9 642.976 1107.92 645.01 1108.94 647.045H1109.96Z" fill="black"/>
<path fill-rule="evenodd" clip-rule="evenodd" d="M1762.07 714.191C1764.11 711.139 1767.16 712.156 1770.21 711.139C1771.23 711.139 1773.26 711.139 1773.26 713.173C1773.26 715.208 1772.25 715.208 1770.21 715.208C1767.16 715.208 1765.12 715.208 1762.07 714.191Z" fill="black"/>
<path fill-rule="evenodd" clip-rule="evenodd" d="M384.561 523.945C384.561 525.979 384.561 529.031 380.492 528.014C378.457 528.014 377.439 528.014 377.439 524.962C377.439 522.927 377.439 519.875 381.509 520.893C383.544 520.893 384.561 520.893 384.561 523.945Z" fill="black"/>
<path fill-rule="evenodd" clip-rule="evenodd" d="M2779.45 393.72C2777.42 395.755 2775.38 397.79 2773.35 398.807C2773.35 398.807 2771.31 398.807 2770.29 398.807C2770.29 398.807 2769.28 397.79 2770.29 396.772C2771.31 393.72 2774.36 391.685 2776.4 390.668C2776.4 390.668 2778.43 391.685 2779.45 392.703V393.72Z" fill="black"/>
<path fill-rule="evenodd" clip-rule="evenodd" d="M909.533 421.189C913.602 427.294 911.568 433.398 908.516 438.485C908.516 432.38 908.516 427.294 909.533 421.189Z" fill="black"/>
<path fill-rule="evenodd" clip-rule="evenodd" d="M140.396 260.445C138.361 260.445 138.361 258.41 137.344 256.375C137.344 253.323 139.378 253.323 141.413 253.323C143.448 253.323 143.448 254.341 143.448 256.375C143.448 258.41 143.448 260.445 140.396 260.445Z" fill="black"/>
<path fill-rule="evenodd" clip-rule="evenodd" d="M514.796 1232.03C515.814 1232.03 518.866 1232.03 517.848 1234.07C517.848 1236.1 517.848 1238.14 514.796 1238.14C512.761 1238.14 511.744 1237.12 511.744 1234.07C511.744 1232.03 511.744 1231.01 514.796 1231.01V1232.03Z" fill="black"/>
<path fill-rule="evenodd" clip-rule="evenodd" d="M23.395 770.146C23.395 772.181 21.3603 772.181 20.3429 772.181C17.2908 772.181 16.2734 769.129 16.2734 767.094C16.2734 766.077 17.2908 765.059 18.3082 766.077C21.3603 766.077 23.395 768.111 23.395 771.164V770.146Z" fill="black"/>
<path fill-rule="evenodd" clip-rule="evenodd" d="M986.846 1019.4C989.898 1018.38 992.95 1017.37 993.967 1014.31C993.967 1019.74 991.593 1021.44 986.846 1019.4Z" fill="black"/>
<path fill-rule="evenodd" clip-rule="evenodd" d="M2528.15 478.163C2526.12 478.163 2525.1 478.163 2524.08 475.11C2524.08 473.076 2524.08 471.041 2527.14 471.041C2529.17 471.041 2530.19 474.093 2531.21 476.128C2531.21 478.163 2529.17 478.163 2528.15 478.163Z" fill="black"/>
<path fill-rule="evenodd" clip-rule="evenodd" d="M2603.45 1080.44C2601.42 1077.39 2597.35 1076.37 2597.35 1072.31C2597.35 1071.29 2597.35 1070.27 2597.35 1069.25C2598.36 1069.25 2599.38 1069.25 2600.4 1070.27C2601.42 1073.32 2603.45 1076.37 2604.47 1078.41C2604.47 1078.41 2603.45 1078.41 2602.43 1078.41L2603.45 1080.44Z" fill="black"/>
<path fill-rule="evenodd" clip-rule="evenodd" d="M2325.7 394.739C2328.75 398.809 2329.77 401.861 2324.68 404.913C2324.68 401.861 2323.66 398.809 2325.7 394.739Z" fill="black"/>
<path fill-rule="evenodd" clip-rule="evenodd" d="M369.309 703.001C372.361 704.018 372.361 707.07 371.343 709.105C371.343 710.123 370.326 712.157 368.291 712.157C365.239 711.14 366.257 708.088 366.257 705.036C366.257 704.018 367.274 703.001 368.291 703.001H369.309Z" fill="black"/>
<path fill-rule="evenodd" clip-rule="evenodd" d="M1347 1769.2C1347 1766.15 1350.05 1766.15 1352.08 1765.13C1354.12 1765.13 1356.15 1765.13 1356.15 1767.17C1356.15 1770.22 1354.12 1769.2 1352.08 1769.2C1350.05 1769.2 1349.03 1769.2 1347 1769.2Z" fill="black"/>
<path fill-rule="evenodd" clip-rule="evenodd" d="M1689.85 506.648C1689.85 505.63 1688.83 502.578 1691.88 502.578C1694.93 502.578 1693.92 505.63 1693.92 507.665C1693.92 509.7 1693.92 511.734 1691.88 510.717C1688.83 510.717 1689.85 507.665 1689.85 506.648Z" fill="black"/>
<path fill-rule="evenodd" clip-rule="evenodd" d="M992.947 982.776C992.947 980.741 993.965 979.723 995.999 978.706C998.034 978.706 998.034 980.741 998.034 981.758C998.034 983.793 998.034 985.828 994.982 985.828C992.947 985.828 992.947 983.793 992.947 981.758V982.776Z" fill="black"/>
<path fill-rule="evenodd" clip-rule="evenodd" d="M1656.27 1642.03C1658.3 1643.05 1658.3 1645.08 1658.3 1646.1C1658.3 1647.11 1660.34 1649.15 1658.3 1650.17C1658.3 1650.17 1656.27 1651.18 1656.27 1650.17C1653.22 1650.17 1655.25 1647.11 1654.23 1645.08C1654.23 1643.05 1654.23 1642.03 1655.25 1641.01L1656.27 1642.03Z" fill="black"/>
<path fill-rule="evenodd" clip-rule="evenodd" d="M2751.98 1078.41C2755.37 1077.05 2758.08 1077.05 2760.12 1078.41C2762.15 1079.76 2759.44 1079.76 2751.98 1078.41Z" fill="black"/>
<path fill-rule="evenodd" clip-rule="evenodd" d="M1622.7 875.953C1622.7 877.988 1621.69 877.988 1619.65 877.988C1617.62 877.988 1616.6 876.971 1616.6 874.936C1616.6 873.919 1616.6 872.901 1617.62 872.901C1619.65 872.901 1621.69 873.919 1621.69 875.953H1622.7Z" fill="black"/>
<path fill-rule="evenodd" clip-rule="evenodd" d="M2618.7 255.359C2617.68 251.29 2618.7 248.237 2622.76 244.168C2622.76 249.255 2619.71 251.29 2618.7 255.359Z" fill="black"/>
<path fill-rule="evenodd" clip-rule="evenodd" d="M151.592 663.323C151.592 661.288 151.592 660.271 153.627 660.271C155.661 660.271 156.679 661.288 156.679 663.323C156.679 664.34 156.679 667.392 153.627 666.375C150.574 666.375 152.609 663.323 151.592 662.305V663.323Z" fill="black"/>
<path fill-rule="evenodd" clip-rule="evenodd" d="M982.776 933.942C982.776 935.977 981.759 936.994 979.724 938.012C979.724 938.012 977.689 938.012 978.707 936.994C978.707 934.96 978.707 932.925 981.759 932.925C982.776 932.925 983.794 932.925 983.794 934.96L982.776 933.942Z" fill="black"/>
<path fill-rule="evenodd" clip-rule="evenodd" d="M1215.75 1750.89C1215.75 1747.83 1212.7 1743.76 1213.72 1737.66C1216.77 1742.75 1215.75 1746.82 1215.75 1750.89Z" fill="black"/>
<path fill-rule="evenodd" clip-rule="evenodd" d="M1881.11 166.847C1881.11 166.847 1881.11 166.847 1882.12 167.864C1882.12 169.899 1883.14 171.934 1882.12 172.951H1880.09C1878.06 170.916 1878.06 168.881 1881.11 166.847Z" fill="black"/>
<path fill-rule="evenodd" clip-rule="evenodd" d="M1176.08 1637.96C1174.05 1637.96 1170.99 1641.01 1168.96 1637.96V1635.93C1172.01 1633.89 1174.05 1635.93 1176.08 1637.96Z" fill="black"/>
<path fill-rule="evenodd" clip-rule="evenodd" d="M1365.3 1513.84C1366.32 1511.81 1367.33 1508.76 1370.39 1506.72C1373.44 1507.74 1372.42 1510.79 1371.4 1512.83C1370.39 1514.86 1367.33 1513.84 1365.3 1512.83V1513.84Z" fill="black"/>
<path fill-rule="evenodd" clip-rule="evenodd" d="M1041.79 1088.58C1045.18 1088.58 1047.21 1086.89 1047.89 1083.5C1049.93 1089.6 1048.91 1089.6 1041.79 1088.58Z" fill="black"/>
<path fill-rule="evenodd" clip-rule="evenodd" d="M2603.44 1025.51C2603.44 1025.51 2604.46 1025.51 2605.48 1025.51C2605.48 1025.51 2607.51 1025.51 2606.49 1027.54C2606.49 1027.54 2606.49 1029.58 2605.48 1029.58C2604.46 1029.58 2602.43 1029.58 2601.41 1029.58C2600.39 1029.58 2599.37 1029.58 2599.37 1027.54C2599.37 1025.51 2601.41 1025.51 2603.44 1026.52V1025.51Z" fill="black"/>
<path fill-rule="evenodd" clip-rule="evenodd" d="M351 748.783C352.017 752.853 352.017 755.905 348.965 759.974C348.965 755.905 348.965 752.853 351 748.783Z" fill="black"/>
<path fill-rule="evenodd" clip-rule="evenodd" d="M1570.82 1386.67C1568.79 1386.67 1566.75 1386.67 1564.72 1386.67C1566.75 1384.64 1568.79 1384.64 1570.82 1386.67Z" fill="black"/>
<path fill-rule="evenodd" clip-rule="evenodd" d="M1362.25 60.0241C1361.23 60.0241 1360.21 59.0067 1360.21 56.972C1360.21 55.9546 1362.25 55.9546 1363.26 56.972C1363.26 56.972 1366.32 56.972 1365.3 59.0067C1365.3 59.0067 1364.28 61.0415 1362.25 60.0241Z" fill="black"/>
<path fill-rule="evenodd" clip-rule="evenodd" d="M501.571 526.998C501.571 530.05 501.571 530.05 499.536 530.05C498.519 530.05 496.484 530.05 496.484 528.015C496.484 525.98 498.519 524.963 500.554 524.963C501.571 524.963 501.571 525.98 501.571 526.998Z" fill="black"/>
<path fill-rule="evenodd" clip-rule="evenodd" d="M2237.19 1574.88C2238.2 1577.93 2243.29 1579.97 2240.24 1586.07C2237.19 1583.02 2234.13 1579.97 2237.19 1574.88Z" fill="black"/>
<path fill-rule="evenodd" clip-rule="evenodd" d="M2643.11 391.687C2641.08 391.687 2641.08 391.687 2641.08 390.669C2641.08 388.635 2642.1 387.617 2644.13 387.617H2646.17C2646.17 389.652 2644.13 390.669 2643.11 391.687Z" fill="black"/>
<path fill-rule="evenodd" clip-rule="evenodd" d="M1516.89 1422.28C1516.89 1424.31 1516.89 1426.35 1513.83 1426.35C1512.82 1426.35 1512.82 1425.33 1512.82 1423.3C1512.82 1421.26 1512.82 1420.24 1514.85 1419.23C1515.87 1419.23 1516.89 1420.24 1516.89 1421.26V1422.28Z" fill="black"/>
<path fill-rule="evenodd" clip-rule="evenodd" d="M1857.7 394.738H1858.72C1858.72 396.773 1859.74 398.808 1858.72 400.842H1857.7C1856.68 398.808 1857.7 396.773 1857.7 393.721V394.738Z" fill="black"/>
<path fill-rule="evenodd" clip-rule="evenodd" d="M1204.57 1456.87C1204.57 1453.82 1204.57 1451.78 1205.58 1450.77C1205.58 1449.75 1205.58 1447.71 1208.64 1448.73C1209.65 1448.73 1210.67 1450.77 1209.65 1451.78C1208.64 1452.8 1206.6 1454.84 1204.57 1456.87Z" fill="black"/>
<path fill-rule="evenodd" clip-rule="evenodd" d="M1610.49 1408.04C1608.46 1408.04 1607.44 1408.04 1608.46 1406C1608.46 1403.97 1609.47 1401.93 1611.51 1401.93C1612.53 1401.93 1613.54 1401.93 1614.56 1403.97C1614.56 1407.02 1612.53 1407.02 1611.51 1408.04H1610.49Z" fill="black"/>
<path fill-rule="evenodd" clip-rule="evenodd" d="M189.227 1588.11C190.244 1585.06 192.279 1582.01 196.348 1582.01C196.348 1585.06 194.313 1588.11 189.227 1588.11Z" fill="black"/>
<path fill-rule="evenodd" clip-rule="evenodd" d="M1834.32 22.3818C1839.41 24.4166 1840.42 27.4687 1841.44 29.5034C1838.39 28.486 1836.36 26.4513 1834.32 22.3818Z" fill="black"/>
<path fill-rule="evenodd" clip-rule="evenodd" d="M374.398 31.5378C374.398 31.5378 374.398 31.5378 374.398 30.5204C374.398 28.4857 374.398 26.451 375.416 25.4336H377.451C377.451 28.4857 377.451 30.5204 375.416 31.5378H374.398Z" fill="black"/>
<path fill-rule="evenodd" clip-rule="evenodd" d="M2462.02 697.913C2462.02 698.93 2462.02 700.965 2459.99 700.965C2458.97 700.965 2457.96 700.965 2457.96 698.93C2457.96 696.895 2457.96 696.895 2459.99 695.878C2461.01 695.878 2462.02 695.878 2462.02 697.913Z" fill="black"/>
<path fill-rule="evenodd" clip-rule="evenodd" d="M581.939 1041.78C581.939 1043.82 582.957 1046.87 579.905 1048.9H578.887C577.87 1045.85 578.887 1043.82 580.922 1041.78H581.939Z" fill="black"/>
<path fill-rule="evenodd" clip-rule="evenodd" d="M742.686 171.934C742.686 171.934 742.686 172.951 741.669 172.951C739.634 172.951 737.599 173.969 735.564 172.951V170.917C738.617 168.882 740.651 170.917 742.686 171.934Z" fill="black"/>
<path fill-rule="evenodd" clip-rule="evenodd" d="M2229.05 157.691C2229.05 158.708 2229.05 160.743 2225.99 159.726C2224.98 159.726 2222.94 159.726 2223.96 157.691C2223.96 156.673 2223.96 154.639 2227.01 154.639C2229.05 154.639 2229.05 155.656 2229.05 157.691Z" fill="black"/>
<path fill-rule="evenodd" clip-rule="evenodd" d="M2755.04 339.801C2753 339.801 2751.98 343.871 2748.93 341.836C2748.93 341.836 2747.92 339.801 2748.93 338.784C2750.97 335.732 2753 337.766 2755.04 338.784V339.801Z" fill="black"/>
<path fill-rule="evenodd" clip-rule="evenodd" d="M306.22 380.495C306.22 381.512 306.22 384.564 304.185 384.564C302.15 384.564 302.15 382.529 302.15 381.512C302.15 379.477 302.15 378.46 304.185 378.46C305.202 378.46 305.202 379.477 305.202 380.495H306.22Z" fill="black"/>
<path fill-rule="evenodd" clip-rule="evenodd" d="M796.605 233.994C796.605 237.046 795.588 239.081 794.57 242.133C792.536 239.081 794.57 236.029 794.57 233.994C794.57 233.994 795.588 233.994 796.605 233.994Z" fill="black"/>
<path fill-rule="evenodd" clip-rule="evenodd" d="M2641.08 642.975C2641.08 643.992 2641.08 645.01 2639.04 645.01C2638.02 645.01 2637.01 645.01 2637.01 642.975C2637.01 641.958 2637.01 639.923 2639.04 639.923C2640.06 639.923 2641.08 640.94 2641.08 641.958V642.975Z" fill="black"/>
<path fill-rule="evenodd" clip-rule="evenodd" d="M2458.98 513.769C2458.98 515.804 2458.98 516.821 2456.95 517.839C2455.93 517.839 2454.91 517.839 2454.91 515.804C2454.91 513.769 2454.91 512.752 2457.97 512.752C2457.97 512.752 2460 512.752 2460 514.787L2458.98 513.769Z" fill="black"/>
<path fill-rule="evenodd" clip-rule="evenodd" d="M2636 611.436C2636 613.471 2632.94 613.471 2631.93 613.471C2630.91 613.471 2629.89 613.471 2630.91 611.436C2630.91 610.419 2632.94 609.401 2633.96 609.401C2636 609.401 2636 610.419 2636 612.453V611.436Z" fill="black"/>
<path fill-rule="evenodd" clip-rule="evenodd" d="M1149.62 1280.86C1151.66 1282.9 1153.69 1285.95 1153.69 1289C1149.63 1285.95 1149.62 1285.95 1149.62 1280.86Z" fill="black"/>
<path fill-rule="evenodd" clip-rule="evenodd" d="M688.75 427.293C688.75 427.293 689.767 427.293 690.785 428.31C690.785 428.31 692.819 430.345 691.802 431.362C691.802 431.362 691.802 431.362 690.785 431.362C688.75 431.362 688.75 429.327 688.75 427.293C688.75 427.293 688.75 427.293 688.75 426.275V427.293Z" fill="black"/>
<path fill-rule="evenodd" clip-rule="evenodd" d="M1208.62 213.648C1208.62 209.578 1208.62 206.526 1210.66 204.491C1210.66 204.491 1210.66 205.509 1210.66 206.526C1210.66 208.561 1208.62 209.578 1207.61 213.648H1208.62Z" fill="black"/>
<path fill-rule="evenodd" clip-rule="evenodd" d="M1814.98 190.248C1814.98 191.266 1814.98 192.283 1812.95 192.283C1810.91 192.283 1810.91 191.266 1810.91 189.231C1810.91 188.213 1810.91 186.179 1812.95 186.179C1813.96 186.179 1814.98 187.196 1814.98 189.231V190.248Z" fill="black"/>
<path fill-rule="evenodd" clip-rule="evenodd" d="M321.484 1299.18C322.502 1297.14 324.536 1296.12 325.554 1294.09C325.554 1297.14 324.536 1299.18 321.484 1299.18Z" fill="black"/>
<path fill-rule="evenodd" clip-rule="evenodd" d="M771.17 1699V1708.16C768.118 1705.11 769.136 1703.07 771.17 1699Z" fill="black"/>
<path fill-rule="evenodd" clip-rule="evenodd" d="M1263.57 523.943C1258.48 525.978 1256.44 523.943 1252.38 523.943C1256.44 520.891 1259.5 521.908 1263.57 523.943Z" fill="black"/>
<path fill-rule="evenodd" clip-rule="evenodd" d="M248.237 1080.45C248.237 1081.46 248.237 1082.48 246.203 1082.48C245.185 1082.48 244.168 1082.48 244.168 1080.45C244.168 1080.45 244.168 1079.43 246.203 1079.43C247.22 1079.43 248.237 1079.43 248.237 1080.45Z" fill="black"/>
<path fill-rule="evenodd" clip-rule="evenodd" d="M1070.27 82.4082C1070.27 82.4082 1073.32 82.4082 1073.32 84.4429C1073.32 84.4429 1072.3 85.4603 1071.29 85.4603C1069.25 85.4603 1068.23 85.4603 1068.23 83.4256C1068.23 83.4256 1068.23 82.4082 1070.27 82.4082Z" fill="black"/>
<path fill-rule="evenodd" clip-rule="evenodd" d="M1375.49 1499.6C1375.49 1500.62 1374.47 1501.64 1373.45 1501.64C1372.44 1501.64 1371.42 1501.64 1371.42 1499.6C1371.42 1498.58 1372.44 1497.57 1374.47 1497.57C1375.49 1497.57 1376.5 1497.57 1376.5 1499.6H1375.49Z" fill="black"/>
<path fill-rule="evenodd" clip-rule="evenodd" d="M2529.17 919.7C2528.16 919.7 2528.16 919.7 2527.14 917.666C2527.14 917.666 2526.12 915.631 2527.14 915.631H2528.16C2528.16 916.648 2528.16 917.666 2528.16 918.683L2529.17 919.7Z" fill="black"/>
<path fill-rule="evenodd" clip-rule="evenodd" d="M54.9293 1504.69C54.9293 1504.69 52.8945 1504.69 52.8945 1502.65C52.8945 1501.63 52.8945 1501.63 53.9119 1501.63C54.9293 1501.63 55.9466 1501.63 55.9466 1502.65C55.9466 1502.65 55.9466 1503.67 53.9119 1504.69H54.9293Z" fill="black"/>
<path fill-rule="evenodd" clip-rule="evenodd" d="M1397.86 987.862C1397.86 988.879 1397.86 989.897 1395.83 989.897C1394.81 989.897 1393.79 989.897 1393.79 987.862C1393.79 986.844 1393.79 985.827 1395.83 985.827C1396.85 985.827 1397.86 986.844 1397.86 987.862Z" fill="black"/>
<path fill-rule="evenodd" clip-rule="evenodd" d="M953.28 1413.12C953.28 1413.12 953.28 1413.12 953.28 1412.11C953.28 1410.07 952.263 1409.05 953.28 1407.02H954.298C954.298 1408.04 954.298 1410.07 954.298 1412.11C954.298 1412.11 954.298 1412.11 954.298 1413.12H953.28Z" fill="black"/>
<path fill-rule="evenodd" clip-rule="evenodd" d="M1356.15 324.539C1357.16 324.539 1358.18 324.539 1358.18 326.574C1358.18 326.574 1358.18 328.609 1357.16 328.609C1356.15 328.609 1354.11 328.609 1354.11 326.574C1354.11 326.574 1354.11 325.556 1356.15 324.539Z" fill="black"/>
<path fill-rule="evenodd" clip-rule="evenodd" d="M1350.04 1577.94C1352.07 1577.94 1353.09 1577.94 1354.11 1577.94V1578.95C1352.07 1578.95 1351.06 1577.94 1350.04 1576.92V1577.94Z" fill="black"/>
<path fill-rule="evenodd" clip-rule="evenodd" d="M2655.33 503.597C2657.36 502.58 2658.38 502.58 2660.41 503.597C2658.38 506.649 2656.35 503.597 2655.33 503.597Z" fill="black"/>
<path fill-rule="evenodd" clip-rule="evenodd" d="M1329.7 588.039C1328.68 588.039 1327.66 586.004 1327.66 584.987C1327.66 583.97 1328.68 582.952 1329.7 582.952C1330.72 582.952 1330.72 584.987 1329.7 586.004C1329.7 586.004 1329.7 588.039 1328.68 588.039H1329.7Z" fill="black"/>
<path fill-rule="evenodd" clip-rule="evenodd" d="M1089.6 1280.86C1090.62 1280.86 1092.65 1280.86 1092.65 1282.9C1092.65 1283.92 1091.63 1283.92 1090.62 1283.92C1089.6 1283.92 1088.58 1283.92 1088.58 1282.9C1088.58 1281.88 1089.6 1281.88 1090.62 1280.86H1089.6Z" fill="black"/>
<path fill-rule="evenodd" clip-rule="evenodd" d="M2550.54 1381.58C2550.54 1382.6 2552.57 1383.62 2552.57 1385.65C2552.57 1387.69 2552.57 1387.69 2550.54 1386.67C2549.52 1386.67 2548.5 1384.64 2548.5 1383.62C2548.5 1383.62 2548.5 1381.58 2550.54 1381.58Z" fill="black"/>
<path fill-rule="evenodd" clip-rule="evenodd" d="M1737.66 1232.03V1234.07C1737.66 1236.1 1735.63 1237.12 1733.59 1235.08C1732.58 1234.07 1733.59 1233.05 1733.59 1232.03C1733.59 1232.03 1735.63 1232.03 1736.64 1232.03H1737.66Z" fill="black"/>
<path fill-rule="evenodd" clip-rule="evenodd" d="M327.601 1316.47C327.601 1318.51 326.583 1318.51 325.566 1317.49C324.549 1317.49 323.531 1317.49 323.531 1315.46C323.531 1314.44 324.549 1313.42 325.566 1313.42C326.583 1313.42 327.601 1313.42 327.601 1315.46V1316.47Z" fill="black"/>
<path fill-rule="evenodd" clip-rule="evenodd" d="M2747.9 1644.06C2747.9 1644.06 2747.9 1646.1 2745.87 1646.1C2743.83 1646.1 2743.83 1644.06 2743.83 1643.05C2743.83 1642.03 2744.85 1641.01 2745.87 1641.01C2746.88 1641.01 2746.88 1642.03 2746.88 1644.06H2747.9Z" fill="black"/>
<path fill-rule="evenodd" clip-rule="evenodd" d="M1726.47 696.896C1726.47 696.896 1725.45 695.879 1725.45 694.862C1725.45 692.827 1725.45 691.81 1727.49 691.81C1727.49 691.81 1729.52 691.81 1729.52 692.827C1729.52 693.844 1729.52 695.879 1727.49 696.896H1726.47Z" fill="black"/>
<path fill-rule="evenodd" clip-rule="evenodd" d="M897.309 560.568C897.309 561.585 897.31 562.603 895.275 562.603C893.24 562.603 892.223 562.603 892.223 560.568C892.223 559.551 892.223 558.533 894.257 558.533C895.275 558.533 896.292 558.533 896.292 560.568H897.309Z" fill="black"/>
<path fill-rule="evenodd" clip-rule="evenodd" d="M1151.66 1880.1C1153.69 1880.1 1154.71 1882.13 1153.69 1884.16C1153.69 1884.16 1152.68 1885.18 1151.66 1884.16C1150.64 1882.13 1150.64 1881.11 1151.66 1879.08V1880.1Z" fill="black"/>
<path fill-rule="evenodd" clip-rule="evenodd" d="M1110.96 1175.06C1110.96 1175.06 1111.97 1177.09 1111.97 1178.11C1110.96 1178.11 1111.97 1176.08 1110.96 1175.06Z" fill="black"/>
<path fill-rule="evenodd" clip-rule="evenodd" d="M1983.86 742.678C1983.86 743.696 1983.86 745.73 1982.84 745.73C1981.82 745.73 1980.8 745.73 1980.8 743.696C1980.8 742.678 1980.8 741.661 1981.82 740.644C1983.86 740.644 1982.84 741.661 1983.86 742.678Z" fill="black"/>
<path fill-rule="evenodd" clip-rule="evenodd" d="M184.148 138.361C184.148 138.361 182.113 138.361 182.113 137.344C182.113 136.327 182.113 134.292 184.148 134.292C184.148 134.292 186.183 134.292 186.183 135.309C186.183 136.327 185.165 137.344 183.131 138.361H184.148Z" fill="black"/>
<path fill-rule="evenodd" clip-rule="evenodd" d="M1214.73 1301.21C1214.73 1303.25 1213.71 1305.28 1211.68 1307.32C1211.68 1304.26 1211.68 1302.23 1214.73 1301.21Z" fill="black"/>
<path fill-rule="evenodd" clip-rule="evenodd" d="M2366.39 9.1574C2366.39 9.1574 2366.39 6.1053 2368.43 7.12266C2368.43 7.12266 2368.43 7.12267 2368.43 8.14003C2368.43 9.1574 2368.43 11.1921 2366.39 10.1748C2366.39 10.1748 2366.39 10.1748 2366.39 9.1574Z" fill="black"/>
<path fill-rule="evenodd" clip-rule="evenodd" d="M2594.29 1616.6C2594.29 1616.6 2593.27 1618.63 2591.23 1618.63C2590.22 1618.63 2589.2 1617.62 2590.22 1616.6C2590.22 1615.58 2591.23 1614.56 2592.25 1614.56C2593.27 1614.56 2594.29 1615.58 2594.29 1616.6Z" fill="black"/>
<path fill-rule="evenodd" clip-rule="evenodd" d="M2139.52 1618.63C2140.53 1618.63 2140.53 1618.63 2141.55 1619.65C2141.55 1620.67 2141.55 1622.7 2140.53 1622.7C2140.53 1622.7 2138.5 1622.7 2138.5 1621.68C2138.5 1620.67 2138.5 1618.63 2140.53 1618.63H2139.52Z" fill="black"/>
<path fill-rule="evenodd" clip-rule="evenodd" d="M2454.91 1621.69C2454.91 1621.69 2454.91 1623.72 2453.89 1623.72C2452.87 1623.72 2452.87 1622.7 2451.86 1621.69V1619.65C2453.89 1619.65 2453.89 1621.69 2453.89 1622.7L2454.91 1621.69Z" fill="black"/>
<path fill-rule="evenodd" clip-rule="evenodd" d="M202.456 1642.03C200.421 1642.03 198.387 1642.03 198.387 1638.98C198.387 1637.96 201.439 1638.98 201.439 1640C201.439 1640 201.439 1640 201.439 1642.03H202.456Z" fill="black"/>
<path fill-rule="evenodd" clip-rule="evenodd" d="M655.184 1783.44C655.184 1783.44 654.167 1784.46 653.15 1783.44C652.132 1783.44 651.115 1782.43 652.132 1780.39C652.132 1780.39 653.15 1779.38 654.167 1780.39C655.184 1780.39 655.184 1781.41 655.184 1783.44Z" fill="black"/>
<path fill-rule="evenodd" clip-rule="evenodd" d="M1978.79 1895.36H1976.75C1976.75 1894.34 1976.75 1893.32 1978.79 1893.32H1980.82C1980.82 1894.34 1980.82 1895.36 1978.79 1895.36Z" fill="black"/>
<path fill-rule="evenodd" clip-rule="evenodd" d="M303.171 1916.72C303.171 1918.75 303.171 1920.79 302.154 1920.79H301.137C301.137 1918.75 303.171 1917.74 304.189 1916.72H303.171Z" fill="black"/>
<path fill-rule="evenodd" clip-rule="evenodd" d="M2229.06 179.056C2229.06 180.073 2229.06 180.073 2228.04 180.073C2227.03 180.073 2226.01 179.056 2226.01 177.021V174.986C2228.04 174.986 2228.04 177.021 2229.06 178.038V179.056Z" fill="black"/>
<path fill-rule="evenodd" clip-rule="evenodd" d="M1452.81 254.342C1454.84 253.324 1456.88 254.342 1458.91 254.342C1458.91 255.359 1458.91 256.377 1457.9 256.377C1455.86 256.377 1453.83 256.377 1452.81 254.342Z" fill="black"/>
<path fill-rule="evenodd" clip-rule="evenodd" d="M1556.58 291.984C1556.58 294.019 1556.58 296.054 1555.56 297.071H1554.54C1553.53 294.019 1555.56 294.019 1556.58 291.984Z" fill="black"/>
<path fill-rule="evenodd" clip-rule="evenodd" d="M746.756 221.786H745.738C745.738 219.752 745.738 219.752 747.773 218.734H748.79C748.79 220.769 748.79 220.769 746.756 221.786Z" fill="black"/>
<path fill-rule="evenodd" clip-rule="evenodd" d="M2356.21 441.537C2356.21 442.554 2355.2 443.571 2354.18 443.571C2353.16 443.571 2352.14 442.554 2352.14 441.537C2352.14 440.519 2353.16 439.502 2354.18 439.502C2355.2 439.502 2356.21 440.519 2356.21 441.537Z" fill="black"/>
<path fill-rule="evenodd" clip-rule="evenodd" d="M1892.31 493.424C1891.29 493.424 1890.28 493.424 1890.28 491.389C1890.28 490.372 1890.28 489.354 1891.29 489.354C1892.31 489.354 1893.33 489.354 1893.33 491.389C1893.33 492.407 1893.33 493.424 1892.31 493.424Z" fill="black"/>
<path fill-rule="evenodd" clip-rule="evenodd" d="M835.254 581.934C838.306 582.951 840.341 583.968 843.393 583.968C840.341 586.003 838.306 584.986 835.254 581.934Z" fill="black"/>
<path fill-rule="evenodd" clip-rule="evenodd" d="M1280.86 687.741C1281.87 687.741 1282.89 687.741 1282.89 689.776C1282.89 691.811 1281.87 690.793 1280.86 690.793C1279.84 690.793 1278.82 690.793 1278.82 688.759C1278.82 688.759 1278.82 687.741 1280.86 687.741Z" fill="black"/>
<path fill-rule="evenodd" clip-rule="evenodd" d="M1670.51 1222.88C1670.51 1224.91 1669.49 1224.91 1667.46 1225.93C1667.46 1225.93 1665.42 1225.93 1665.42 1224.91C1665.42 1222.88 1665.42 1221.86 1668.47 1221.86C1668.47 1221.86 1669.49 1221.86 1669.49 1223.89L1670.51 1222.88Z" fill="black"/>
<path fill-rule="evenodd" clip-rule="evenodd" d="M2556.64 966.498C2557.66 966.498 2558.67 966.498 2557.66 967.515C2557.66 968.533 2557.66 969.55 2555.62 969.55C2555.62 969.55 2554.61 969.55 2554.61 968.533C2554.61 967.515 2554.61 966.498 2556.64 966.498Z" fill="black"/>
<path fill-rule="evenodd" clip-rule="evenodd" d="M738.601 1250.35C738.601 1251.36 738.601 1252.38 736.566 1252.38C735.549 1252.38 734.531 1252.38 734.531 1250.35C734.531 1249.33 734.531 1247.29 736.566 1247.29C737.583 1247.29 737.583 1248.31 738.601 1249.33V1250.35Z" fill="black"/>
<path fill-rule="evenodd" clip-rule="evenodd" d="M2560.71 1291.04C2559.69 1291.04 2557.66 1291.04 2558.68 1287.99H2559.69C2560.71 1287.99 2561.73 1290.02 2561.73 1291.04C2561.73 1291.04 2561.73 1291.04 2560.71 1291.04Z" fill="black"/>
<path fill-rule="evenodd" clip-rule="evenodd" d="M85.4666 1305.28C85.4666 1305.28 86.484 1305.28 86.484 1306.3C86.484 1307.32 86.4839 1308.33 85.4666 1308.33C85.4666 1308.33 84.4492 1308.33 84.4492 1307.32C84.4492 1306.3 84.4492 1305.28 85.4666 1305.28Z" fill="black"/>
<path fill-rule="evenodd" clip-rule="evenodd" d="M28.4895 1313.42C28.4895 1313.42 29.5069 1313.42 28.4895 1315.46C28.4895 1315.46 28.4895 1316.47 27.4722 1317.49C27.4722 1317.49 25.4374 1317.49 26.4548 1316.47C26.4548 1315.46 26.4548 1314.44 28.4895 1314.44V1313.42Z" fill="black"/>
<path fill-rule="evenodd" clip-rule="evenodd" d="M1623.71 1339.87C1621.68 1336.82 1621.68 1335.8 1622.69 1332.75C1623.71 1334.78 1624.73 1336.82 1623.71 1339.87Z" fill="black"/>
<path fill-rule="evenodd" clip-rule="evenodd" d="M1560.63 1363.27C1559.62 1363.27 1558.6 1362.26 1559.62 1361.24C1559.62 1360.22 1559.62 1359.2 1561.65 1359.2C1562.67 1359.2 1563.69 1359.2 1563.69 1361.24C1563.69 1361.24 1563.69 1363.27 1561.65 1363.27H1560.63Z" fill="black"/>
<path fill-rule="evenodd" clip-rule="evenodd" d="M2673.64 1374.46C2673.64 1372.43 2672.63 1369.38 2674.66 1369.38C2676.7 1369.38 2674.66 1371.41 2674.66 1372.43C2674.66 1372.43 2674.66 1372.43 2673.64 1373.45V1374.46Z" fill="black"/>
<path fill-rule="evenodd" clip-rule="evenodd" d="M975.664 1424.31H974.646C974.646 1422.28 974.646 1422.28 976.681 1421.26H977.699C977.699 1423.3 976.681 1423.3 975.664 1424.31Z" fill="black"/>
<path fill-rule="evenodd" clip-rule="evenodd" d="M1036.69 1489.42C1036.69 1490.44 1034.65 1491.46 1033.64 1489.42C1033.64 1489.42 1032.62 1488.41 1033.64 1487.39C1033.64 1486.37 1035.67 1486.37 1036.69 1487.39C1036.69 1487.39 1037.71 1488.41 1036.69 1489.42Z" fill="black"/>
<path fill-rule="evenodd" clip-rule="evenodd" d="M2483.39 24.4177C2480.34 22.3829 2482.37 20.3482 2483.39 18.3135C2485.43 20.3482 2485.43 22.3829 2483.39 24.4177Z" fill="black"/>
<path fill-rule="evenodd" clip-rule="evenodd" d="M1093.68 35.6074C1093.68 35.6074 1093.68 35.6074 1095.71 36.6248C1095.71 36.6248 1094.69 37.6422 1093.68 37.6422C1093.68 37.6422 1091.64 37.6422 1091.64 36.6248C1091.64 36.6248 1091.64 35.6074 1093.68 35.6074Z" fill="black"/>
<path fill-rule="evenodd" clip-rule="evenodd" d="M2624.81 1833.3H2625.82C2625.82 1833.3 2625.82 1834.31 2625.82 1835.33C2625.82 1835.33 2625.82 1835.33 2624.81 1835.33V1833.3Z" fill="black"/>
<path fill-rule="evenodd" clip-rule="evenodd" d="M2227.01 102.755C2228.03 104.79 2227.01 106.824 2226 106.824C2223.96 106.824 2226 104.79 2226 103.772C2226 103.772 2226 103.772 2227.01 103.772V102.755Z" fill="black"/>
<path fill-rule="evenodd" clip-rule="evenodd" d="M84.4371 116.998C83.4197 116.998 83.4197 115.981 82.4023 114.963C82.4023 112.929 82.4023 112.929 84.4371 112.929C84.4371 112.929 85.4544 112.929 85.4544 114.963C85.4544 114.963 85.4544 115.981 84.4371 116.998Z" fill="black"/>
<path fill-rule="evenodd" clip-rule="evenodd" d="M704.024 472.06C704.024 472.06 704.025 473.077 701.99 473.077C700.972 473.077 699.955 472.06 699.955 471.042C699.955 471.042 699.955 469.008 700.972 470.025C701.99 470.025 703.007 471.042 703.007 473.077L704.024 472.06Z" fill="black"/>
<path fill-rule="evenodd" clip-rule="evenodd" d="M1021.43 1851.61C1020.41 1851.61 1019.39 1851.61 1019.39 1849.58C1019.39 1849.58 1019.39 1848.56 1021.43 1848.56C1022.45 1848.56 1023.46 1848.56 1023.46 1850.59C1023.46 1850.59 1023.46 1851.61 1021.43 1851.61Z" fill="black"/>
<path fill-rule="evenodd" clip-rule="evenodd" d="M1739.7 144.466V145.484C1739.7 145.484 1737.67 145.484 1737.67 144.466C1737.67 144.466 1737.67 142.432 1738.69 142.432C1738.69 142.432 1739.7 143.449 1740.72 144.466H1739.7Z" fill="black"/>
<path fill-rule="evenodd" clip-rule="evenodd" d="M1607.44 1883.15C1607.44 1883.15 1609.47 1883.15 1609.47 1884.16C1609.47 1884.16 1609.47 1885.18 1608.46 1886.2C1608.46 1886.2 1607.44 1886.2 1607.44 1885.18C1607.44 1885.18 1607.44 1884.16 1607.44 1883.15Z" fill="black"/>
<path fill-rule="evenodd" clip-rule="evenodd" d="M1804.8 778.286V779.303C1802.77 779.303 1801.75 777.268 1801.75 776.251V775.233C1802.77 775.233 1804.8 777.268 1804.8 778.286Z" fill="black"/>
<path fill-rule="evenodd" clip-rule="evenodd" d="M296.054 1151.66C295.037 1151.66 295.037 1151.66 295.037 1149.62C295.037 1148.61 295.037 1147.59 297.072 1147.59C297.072 1147.59 299.107 1147.59 299.107 1148.61C299.107 1150.64 299.107 1150.64 297.072 1151.66H296.054Z" fill="black"/>
<path fill-rule="evenodd" clip-rule="evenodd" d="M742.677 359.13C742.677 359.13 742.677 359.13 741.659 359.13C741.659 359.13 740.642 359.13 741.659 357.095C741.659 357.095 741.659 357.095 741.659 356.078C741.659 356.078 742.677 356.078 742.677 359.13Z" fill="black"/>
<path fill-rule="evenodd" clip-rule="evenodd" d="M1846.53 1161.83C1846.53 1161.83 1846.53 1162.85 1846.53 1163.87C1846.53 1163.87 1846.53 1165.9 1845.51 1163.87C1845.51 1163.87 1845.51 1162.85 1845.51 1161.83C1845.51 1161.83 1845.51 1161.83 1846.53 1161.83Z" fill="black"/>
<path fill-rule="evenodd" clip-rule="evenodd" d="M1533.17 871.882C1533.17 871.882 1533.17 873.917 1532.15 873.917C1532.15 873.917 1531.14 871.882 1531.14 870.865C1531.14 869.847 1531.14 868.83 1533.17 868.83C1533.17 868.83 1534.19 868.83 1533.17 870.865V871.882Z" fill="black"/>
<path fill-rule="evenodd" clip-rule="evenodd" d="M1385.65 739.625C1385.65 739.625 1387.68 739.625 1387.68 740.642C1387.68 740.642 1387.68 742.677 1386.67 742.677C1386.67 742.677 1385.65 742.677 1384.63 741.66C1384.63 741.66 1384.63 739.625 1385.65 739.625Z" fill="black"/>
<path fill-rule="evenodd" clip-rule="evenodd" d="M2161.9 349.976C2161.9 349.976 2160.88 352.01 2159.86 350.993C2159.86 350.993 2158.84 350.993 2158.84 348.958C2158.84 347.941 2159.86 346.924 2160.88 347.941C2160.88 347.941 2161.9 347.941 2161.9 349.976Z" fill="black"/>
<path fill-rule="evenodd" clip-rule="evenodd" d="M2587.16 1492.48H2586.14V1490.44H2587.16C2587.16 1490.44 2587.16 1491.46 2587.16 1492.48Z" fill="black"/>
<path fill-rule="evenodd" clip-rule="evenodd" d="M1686.79 693.844C1686.79 693.844 1686.79 693.844 1686.79 694.861C1686.79 694.861 1684.76 694.861 1685.78 693.844C1685.78 693.844 1685.78 693.844 1686.79 693.844C1686.79 693.844 1686.79 693.844 1687.81 693.844H1686.79Z" fill="black"/>
<path fill-rule="evenodd" clip-rule="evenodd" d="M748.783 336.749C748.783 336.749 749.8 337.766 749.8 338.784C749.8 338.784 749.8 340.819 747.766 339.801C747.766 339.801 747.766 339.801 747.766 338.784C747.766 338.784 747.766 336.749 748.783 336.749Z" fill="black"/>
<path fill-rule="evenodd" clip-rule="evenodd" d="M1566.74 946.15H1568.77C1568.77 948.185 1566.74 948.185 1565.72 948.185C1565.72 948.185 1563.69 948.185 1564.7 947.168C1564.7 946.15 1565.72 946.15 1566.74 945.133V946.15Z" fill="black"/>
<path fill-rule="evenodd" clip-rule="evenodd" d="M1358.18 1256.45C1358.18 1256.45 1358.18 1256.45 1358.18 1255.43C1358.18 1255.43 1358.18 1254.41 1359.2 1254.41C1359.2 1254.41 1360.22 1254.41 1360.22 1255.43C1360.22 1255.43 1360.22 1256.45 1358.18 1257.47V1256.45Z" fill="black"/>
<path fill-rule="evenodd" clip-rule="evenodd" d="M1394.81 1270.69C1394.81 1270.69 1393.79 1270.69 1392.77 1271.71C1392.77 1271.71 1390.74 1271.71 1391.75 1270.69C1391.75 1270.69 1392.77 1269.67 1393.79 1269.67C1393.79 1269.67 1395.82 1269.67 1395.82 1271.71L1394.81 1270.69Z" fill="black"/>
<path fill-rule="evenodd" clip-rule="evenodd" d="M2796.75 1276.79V1277.81C2796.75 1277.81 2795.73 1276.79 2795.73 1275.78C2795.73 1274.76 2795.73 1273.74 2796.75 1274.76C2796.75 1274.76 2796.75 1275.78 2796.75 1276.79Z" fill="black"/>
<path fill-rule="evenodd" clip-rule="evenodd" d="M2024.55 325.556C2024.55 325.556 2024.55 327.591 2023.53 327.591C2023.53 327.591 2021.5 327.591 2021.5 326.574V324.539C2022.52 324.539 2023.53 324.539 2023.53 326.574L2024.55 325.556Z" fill="black"/>
<path fill-rule="evenodd" clip-rule="evenodd" d="M1616.6 618.56C1616.6 618.56 1616.6 616.525 1618.64 616.525C1618.64 616.525 1619.66 617.543 1619.66 618.56C1619.66 618.56 1619.66 620.595 1617.62 620.595C1617.62 620.595 1615.59 620.595 1615.59 618.56H1616.6Z" fill="black"/>
<path fill-rule="evenodd" clip-rule="evenodd" d="M184.148 1594.22C184.148 1594.22 185.165 1595.23 184.148 1596.25C184.148 1596.25 184.148 1597.27 183.131 1598.29C183.131 1598.29 182.113 1598.29 182.113 1597.27C182.113 1597.27 182.113 1595.23 184.148 1595.23V1594.22Z" fill="black"/>
<path fill-rule="evenodd" clip-rule="evenodd" d="M422.207 926.82C422.207 925.802 422.207 924.785 423.224 924.785C424.242 924.785 425.259 925.802 424.242 926.82C424.242 926.82 424.242 928.855 423.224 927.837C423.224 927.837 423.224 926.82 422.207 926.82Z" fill="black"/>
<path fill-rule="evenodd" clip-rule="evenodd" d="M522.93 1602.35C522.93 1602.35 522.93 1604.39 521.913 1604.39C521.913 1604.39 520.896 1604.39 521.913 1602.35V1601.33C521.913 1601.33 522.93 1601.34 523.948 1602.35H522.93Z" fill="black"/>
<path fill-rule="evenodd" clip-rule="evenodd" d="M901.394 1064.16C901.394 1065.18 901.394 1066.2 900.376 1066.2C899.359 1066.2 898.342 1066.2 898.342 1064.16C898.342 1064.16 898.342 1062.13 899.359 1062.13C900.377 1062.13 901.394 1063.15 901.394 1064.16Z" fill="black"/>
<path fill-rule="evenodd" clip-rule="evenodd" d="M2079.51 864.762L2078.49 863.745C2078.49 862.728 2079.51 862.728 2080.52 862.728C2080.52 862.728 2081.54 862.728 2081.54 864.762C2081.54 865.78 2080.52 866.797 2078.49 865.78L2079.51 864.762Z" fill="black"/>
<path fill-rule="evenodd" clip-rule="evenodd" d="M1867.89 914.612C1868.91 916.647 1868.91 917.664 1867.89 919.699H1865.86C1865.86 917.664 1865.86 916.647 1867.89 915.63V914.612Z" fill="black"/>
<path fill-rule="evenodd" clip-rule="evenodd" d="M2159.87 1641.01C2159.87 1641.01 2158.85 1641.01 2157.83 1638.98C2157.83 1638.98 2157.83 1637.96 2158.85 1637.96C2158.85 1637.96 2160.88 1637.96 2160.88 1640C2160.88 1640 2160.88 1641.01 2158.85 1642.03L2159.87 1641.01Z" fill="black"/>
<path fill-rule="evenodd" clip-rule="evenodd" d="M2644.14 1318.51H2643.13C2643.13 1318.51 2643.13 1316.47 2644.14 1317.49C2644.14 1317.49 2644.14 1317.49 2644.14 1318.51C2644.14 1318.51 2644.14 1318.51 2644.14 1319.52V1318.51Z" fill="black"/>
<path fill-rule="evenodd" clip-rule="evenodd" d="M2138.51 827.119C2138.51 828.136 2137.49 829.154 2136.47 829.154C2136.47 829.154 2136.47 828.136 2136.47 827.119C2136.47 827.119 2136.47 826.102 2138.51 826.102C2138.51 826.102 2140.54 826.102 2139.52 828.136L2138.51 827.119Z" fill="black"/>
<path fill-rule="evenodd" clip-rule="evenodd" d="M1666.44 1022.45C1665.43 1022.45 1664.41 1021.44 1665.43 1019.4C1665.43 1018.38 1666.44 1017.37 1667.46 1017.37C1668.48 1017.37 1669.49 1018.38 1668.48 1019.4C1668.48 1019.4 1668.48 1021.44 1666.44 1021.44V1022.45Z" fill="black"/>
<path fill-rule="evenodd" clip-rule="evenodd" d="M2726.55 1340.89C2726.55 1340.89 2726.55 1341.91 2726.55 1342.92C2726.55 1342.92 2726.55 1344.96 2725.53 1342.92C2725.53 1342.92 2725.53 1342.92 2725.53 1341.91C2725.53 1341.91 2725.53 1339.87 2727.57 1340.89H2726.55Z" fill="black"/>
<path fill-rule="evenodd" clip-rule="evenodd" d="M1382.61 1022.45C1382.61 1022.45 1382.61 1023.47 1380.57 1023.47C1380.57 1023.47 1379.56 1023.47 1380.57 1021.44C1380.57 1021.44 1380.57 1021.44 1381.59 1021.44C1381.59 1021.44 1382.61 1021.44 1382.61 1022.45Z" fill="black"/>
<path fill-rule="evenodd" clip-rule="evenodd" d="M603.298 1926.89C603.298 1927.91 603.298 1928.93 602.281 1928.93H600.246C600.246 1927.91 600.246 1926.89 601.263 1927.91C601.263 1927.91 602.281 1927.91 603.298 1927.91V1926.89Z" fill="black"/>
<path fill-rule="evenodd" clip-rule="evenodd" d="M2263.64 1030.59C2263.64 1030.59 2263.64 1028.56 2264.66 1028.56C2264.66 1028.56 2264.66 1029.58 2264.66 1030.59C2264.66 1030.59 2264.66 1032.63 2263.64 1031.61C2263.64 1031.61 2263.64 1031.61 2263.64 1030.59Z" fill="black"/>
<path fill-rule="evenodd" clip-rule="evenodd" d="M255.351 1381.58C255.351 1383.62 255.351 1384.64 253.316 1384.64C253.316 1384.64 251.281 1384.64 251.281 1383.62C251.281 1382.6 251.281 1380.57 253.316 1380.57C254.333 1380.57 254.333 1380.57 254.333 1381.58H255.351Z" fill="black"/>
<path fill-rule="evenodd" clip-rule="evenodd" d="M2371.49 1688.83C2371.49 1688.83 2369.45 1687.81 2369.45 1686.8V1685.78C2369.45 1685.78 2370.47 1685.78 2371.49 1686.8V1688.83Z" fill="black"/>
<path fill-rule="evenodd" clip-rule="evenodd" d="M27.4646 52.9023C27.4646 52.9023 29.4994 52.9023 29.4994 53.9197C29.4994 53.9197 29.4994 55.9544 28.482 54.9371C28.482 54.9371 27.4646 53.9197 26.4473 52.9023C26.4473 52.9023 26.4473 52.9023 27.4646 52.9023Z" fill="black"/>
<path fill-rule="evenodd" clip-rule="evenodd" d="M2074.42 122.085C2074.42 122.085 2073.4 122.085 2073.4 120.05C2073.4 120.05 2073.4 118.016 2074.42 118.016C2074.42 118.016 2075.44 118.016 2075.44 120.05C2075.44 120.05 2075.44 121.068 2073.4 122.085H2074.42Z" fill="black"/>
<path fill-rule="evenodd" clip-rule="evenodd" d="M2553.6 134.292C2553.6 134.292 2554.61 134.292 2554.61 136.327C2554.61 136.327 2554.61 138.361 2553.6 137.344C2553.6 137.344 2553.6 136.327 2552.58 135.309L2553.6 134.292Z" fill="black"/>
<path fill-rule="evenodd" clip-rule="evenodd" d="M1568.78 1136.4V1137.42C1568.78 1137.42 1566.75 1137.42 1566.75 1136.4V1135.38C1566.75 1135.38 1568.78 1135.38 1568.78 1136.4Z" fill="black"/>
<path fill-rule="evenodd" clip-rule="evenodd" d="M64.1016 1145.56C64.1016 1145.56 64.1016 1145.56 64.1016 1144.54C64.1016 1144.54 64.1016 1143.52 66.1363 1144.54V1145.56C66.1363 1145.56 66.1363 1145.56 65.1189 1145.56H64.1016Z" fill="black"/>
<path fill-rule="evenodd" clip-rule="evenodd" d="M2706.2 1143.52C2707.22 1143.52 2708.24 1143.52 2708.24 1145.55C2708.24 1145.55 2708.24 1147.59 2707.22 1147.59C2706.2 1147.59 2705.18 1147.59 2705.18 1145.55C2705.18 1145.55 2705.18 1144.54 2706.2 1143.52Z" fill="black"/>
<path fill-rule="evenodd" clip-rule="evenodd" d="M2760.11 1155.73C2760.11 1155.73 2760.11 1156.75 2758.07 1156.75C2758.07 1156.75 2757.06 1155.73 2758.07 1154.71C2758.07 1154.71 2758.07 1152.68 2760.11 1153.7C2760.11 1153.7 2761.13 1153.69 2761.13 1155.73H2760.11Z" fill="black"/>
<path fill-rule="evenodd" clip-rule="evenodd" d="M37.6348 1168.96C37.6348 1168.96 37.6348 1168.96 37.6348 1167.94C37.6348 1167.94 37.6348 1166.92 38.6521 1165.9C38.6521 1165.9 38.6521 1165.9 38.6521 1166.92C38.6521 1166.92 38.6521 1167.94 37.6348 1168.96Z" fill="black"/>
<path fill-rule="evenodd" clip-rule="evenodd" d="M2253.47 1184.21C2253.47 1183.2 2253.47 1183.2 2254.49 1182.18H2255.5C2255.5 1182.18 2255.5 1183.2 2253.47 1184.21Z" fill="black"/>
<path fill-rule="evenodd" clip-rule="evenodd" d="M2659.39 966.498C2659.39 966.498 2659.39 967.515 2658.37 967.515C2658.37 967.515 2657.36 967.515 2657.36 966.498C2657.36 966.498 2657.36 965.48 2658.37 965.48C2658.37 965.48 2659.39 965.48 2659.39 967.515V966.498Z" fill="black"/>
<path fill-rule="evenodd" clip-rule="evenodd" d="M1737.67 1232.03C1737.67 1232.03 1737.67 1232.03 1737.67 1230C1737.67 1228.98 1737.67 1227.96 1737.67 1226.95C1738.69 1227.96 1737.67 1228.98 1737.67 1230C1737.67 1230 1737.67 1230 1737.67 1231.01V1232.03Z" fill="black"/>
<path fill-rule="evenodd" clip-rule="evenodd" d="M2111.04 636.873C2111.04 636.873 2112.06 636.873 2112.06 638.908V639.925C2112.06 639.925 2110.02 639.925 2110.02 638.908C2110.02 638.908 2110.02 637.89 2111.04 636.873Z" fill="black"/>
<path fill-rule="evenodd" clip-rule="evenodd" d="M2801.83 1278.83C2801.83 1279.85 2801.83 1279.85 2799.79 1279.85H2797.76C2797.76 1279.85 2797.76 1279.85 2798.78 1278.83H2800.81H2801.83Z" fill="black"/>
<path fill-rule="evenodd" clip-rule="evenodd" d="M644.002 574.812C645.02 576.847 646.037 578.882 644.002 579.899C641.967 579.899 642.985 577.865 642.985 576.847C642.985 576.847 642.985 576.847 642.985 574.812H644.002Z" fill="black"/>
<path fill-rule="evenodd" clip-rule="evenodd" d="M2612.6 549.378H2613.61C2613.61 550.395 2613.61 551.413 2611.58 551.413H2610.56C2610.56 550.395 2610.56 549.378 2612.6 549.378Z" fill="black"/>
<path fill-rule="evenodd" clip-rule="evenodd" d="M2083.56 540.221C2083.56 540.221 2083.56 540.221 2082.54 540.221V539.204C2082.54 539.204 2082.54 539.204 2083.56 539.204V541.239V540.221Z" fill="black"/>
<path fill-rule="evenodd" clip-rule="evenodd" d="M124.119 1319.52V1320.54H122.084V1319.52H124.119Z" fill="black"/>
<path fill-rule="evenodd" clip-rule="evenodd" d="M1517.91 912.578C1518.93 915.63 1518.93 916.648 1517.91 917.665H1516.89C1516.89 915.63 1517.91 915.63 1518.93 912.578H1517.91Z" fill="black"/>
<path fill-rule="evenodd" clip-rule="evenodd" d="M1861.77 533.1C1861.77 533.1 1861.77 534.118 1859.74 534.118C1859.74 534.118 1858.72 534.118 1858.72 532.083C1858.72 532.083 1858.72 532.083 1859.74 532.083C1859.74 532.083 1860.76 532.083 1861.77 533.1Z" fill="black"/>
<path fill-rule="evenodd" clip-rule="evenodd" d="M2822.17 472.058V473.075C2822.17 473.075 2821.15 473.075 2820.13 473.075V472.058C2820.13 472.058 2821.15 472.058 2822.17 472.058Z" fill="black"/>
<path fill-rule="evenodd" clip-rule="evenodd" d="M2328.75 407.964C2328.75 408.981 2328.75 409.998 2326.71 409.998C2326.71 409.998 2326.71 409.998 2326.71 408.981C2326.71 407.964 2326.71 406.946 2328.75 406.946C2328.75 406.946 2328.75 406.946 2328.75 407.964Z" fill="black"/>
<path fill-rule="evenodd" clip-rule="evenodd" d="M1011.27 363.2C1011.27 363.2 1011.27 363.2 1011.27 364.218C1011.27 364.218 1010.25 364.218 1010.25 363.2C1010.25 363.2 1011.27 363.2 1012.29 364.218L1011.27 363.2Z" fill="black"/>
<path fill-rule="evenodd" clip-rule="evenodd" d="M2142.58 1415.16V1416.18C2142.58 1416.18 2141.56 1416.18 2140.54 1416.18V1415.16C2140.54 1415.16 2141.56 1415.16 2142.58 1415.16Z" fill="black"/>
<path fill-rule="evenodd" clip-rule="evenodd" d="M2537.31 1416.18C2537.31 1416.18 2536.3 1417.19 2535.28 1417.19C2534.26 1417.19 2534.26 1417.19 2535.28 1415.16C2535.28 1415.16 2536.3 1414.14 2537.31 1415.16C2537.31 1415.16 2537.31 1415.16 2537.31 1416.18Z" fill="black"/>
<path fill-rule="evenodd" clip-rule="evenodd" d="M1313.42 857.64C1313.42 857.64 1312.41 857.64 1311.39 855.605C1311.39 855.605 1311.39 853.57 1312.41 854.588C1312.41 854.588 1313.42 855.605 1313.42 856.622V857.64Z" fill="black"/>
<path fill-rule="evenodd" clip-rule="evenodd" d="M1704.09 272.655C1704.09 272.655 1704.09 272.655 1704.09 271.637C1704.09 271.637 1704.09 270.62 1705.11 269.603V270.62C1705.11 270.62 1705.11 272.655 1704.09 272.655Z" fill="black"/>
<path fill-rule="evenodd" clip-rule="evenodd" d="M528.005 1531.14C528.005 1531.14 528.005 1533.17 526.988 1533.17C526.988 1533.17 525.971 1533.17 525.971 1532.15V1531.14C525.971 1531.14 526.988 1531.14 528.005 1532.15V1531.14Z" fill="black"/>
<path fill-rule="evenodd" clip-rule="evenodd" d="M2237.2 1574.88C2235.16 1574.88 2232.11 1576.92 2231.09 1572.85C2234.15 1570.81 2235.16 1574.88 2237.2 1574.88Z" fill="black"/>
<path fill-rule="evenodd" clip-rule="evenodd" d="M335.736 347.939V348.957H334.719C334.719 348.957 334.719 348.957 334.719 347.939C334.719 347.939 334.719 347.939 335.736 347.939Z" fill="black"/>
<path fill-rule="evenodd" clip-rule="evenodd" d="M1410.07 253.323C1410.07 253.323 1411.08 254.341 1411.08 255.358C1411.08 255.358 1411.08 256.375 1411.08 257.393C1411.08 257.393 1411.08 256.375 1410.07 255.358V253.323Z" fill="black"/>
<path fill-rule="evenodd" clip-rule="evenodd" d="M2510.87 245.185C2510.87 245.185 2509.85 245.185 2508.83 245.185C2508.83 245.185 2506.8 245.185 2508.83 244.168C2508.83 244.168 2509.85 244.168 2510.87 244.168C2510.87 244.168 2510.87 244.168 2510.87 245.185Z" fill="black"/>
<path fill-rule="evenodd" clip-rule="evenodd" d="M38.6521 1666.45C38.6521 1666.45 38.6521 1666.45 37.6348 1666.45C37.6348 1666.45 37.6348 1666.45 37.6348 1665.43C37.6348 1665.43 37.6348 1665.43 38.6521 1664.41C38.6521 1664.41 38.6521 1664.41 38.6521 1665.43V1666.45Z" fill="black"/>
<path fill-rule="evenodd" clip-rule="evenodd" d="M466.968 284.862C466.968 285.88 466.968 286.897 465.951 286.897H463.916C463.916 285.88 463.916 284.862 465.951 284.862C465.951 284.862 466.968 284.862 467.985 285.88L466.968 284.862Z" fill="black"/>
<path fill-rule="evenodd" clip-rule="evenodd" d="M38.6521 1697.98C38.6521 1697.98 38.6521 1700.02 37.6348 1700.02C37.6348 1700.02 37.6348 1700.02 37.6348 1697.98C37.6348 1697.98 37.6348 1695.95 39.6695 1696.97C39.6695 1696.97 39.6695 1696.97 39.6695 1697.98H38.6521Z" fill="black"/>
<path fill-rule="evenodd" clip-rule="evenodd" d="M1970.63 233.995C1970.63 233.995 1971.65 231.96 1972.67 232.977C1972.67 232.977 1972.67 233.995 1972.67 235.012C1972.67 235.012 1972.67 236.029 1970.63 236.029C1970.63 236.029 1969.62 236.029 1969.62 233.995H1970.63Z" fill="black"/>
<path fill-rule="evenodd" clip-rule="evenodd" d="M1280.87 1709.17C1280.87 1710.19 1279.85 1711.21 1278.83 1710.19C1278.83 1710.19 1276.8 1710.19 1278.83 1708.16C1278.83 1708.16 1279.85 1707.14 1280.87 1707.14C1281.88 1707.14 1281.88 1707.14 1281.88 1708.16L1280.87 1709.17Z" fill="black"/>
<path fill-rule="evenodd" clip-rule="evenodd" d="M2746.9 1735.63C2747.92 1735.63 2748.93 1735.63 2748.93 1736.65C2748.93 1736.65 2748.93 1737.66 2746.9 1738.68C2745.88 1738.68 2744.86 1738.68 2744.86 1736.65C2744.86 1736.65 2745.88 1736.65 2746.9 1735.63Z" fill="black"/>
<path fill-rule="evenodd" clip-rule="evenodd" d="M1976.74 169.9C1975.72 169.9 1974.71 166.848 1974.71 165.831C1976.74 164.814 1976.74 166.848 1976.74 167.866C1976.74 167.866 1976.74 167.866 1976.74 168.883V169.9Z" fill="black"/>
<path fill-rule="evenodd" clip-rule="evenodd" d="M2054.06 1740.71C2054.06 1740.71 2054.06 1741.73 2052.02 1741.73C2052.02 1741.73 2052.02 1741.73 2052.02 1740.71C2052.02 1740.71 2052.02 1739.7 2054.06 1739.7C2054.06 1739.7 2054.06 1739.7 2054.06 1740.71Z" fill="black"/>
<path fill-rule="evenodd" clip-rule="evenodd" d="M1416.17 147.517V148.535H1415.15C1415.15 148.535 1415.15 147.517 1415.15 146.5L1416.17 147.517Z" fill="black"/>
<path fill-rule="evenodd" clip-rule="evenodd" d="M2557.65 144.466C2557.65 144.466 2557.65 145.484 2556.63 144.466C2556.63 144.466 2555.62 143.449 2555.62 142.432C2555.62 142.432 2555.62 142.432 2556.63 142.432C2556.63 142.432 2556.63 143.449 2557.65 144.466Z" fill="black"/>
<path fill-rule="evenodd" clip-rule="evenodd" d="M2186.31 143.448C2186.31 143.448 2186.31 145.483 2185.3 144.465C2185.3 144.465 2184.28 143.448 2184.28 142.43C2184.28 141.413 2184.28 141.413 2185.3 141.413C2185.3 141.413 2186.31 141.413 2186.31 143.448Z" fill="black"/>
<path fill-rule="evenodd" clip-rule="evenodd" d="M2146.65 793.545C2146.65 793.545 2145.63 793.545 2144.62 794.562C2144.62 794.562 2144.62 794.562 2144.62 793.545C2144.62 793.545 2144.62 792.527 2145.63 792.527C2145.63 792.527 2145.63 792.527 2145.63 793.545H2146.65Z" fill="black"/>
<path fill-rule="evenodd" clip-rule="evenodd" d="M1723.43 1802.77C1723.43 1802.77 1723.43 1800.74 1724.44 1800.74H1726.48C1726.48 1801.76 1726.48 1802.77 1724.44 1802.77C1724.44 1802.77 1723.43 1802.77 1722.41 1801.76L1723.43 1802.77Z" fill="black"/>
<path fill-rule="evenodd" clip-rule="evenodd" d="M46.7986 280.793C46.7986 280.793 46.7986 279.776 45.7812 278.759V277.741C45.7812 277.741 46.7986 277.741 46.7986 279.776C46.7986 279.776 46.7986 279.776 46.7986 281.811V280.793Z" fill="black"/>
<path fill-rule="evenodd" clip-rule="evenodd" d="M2249.4 1847.54C2249.4 1847.54 2248.38 1847.54 2248.38 1846.52C2248.38 1846.52 2248.38 1845.5 2250.42 1845.5C2250.42 1845.5 2250.42 1845.5 2250.42 1846.52C2250.42 1846.52 2250.42 1846.52 2249.4 1846.52V1847.54Z" fill="black"/>
<path fill-rule="evenodd" clip-rule="evenodd" d="M403.894 866.796C403.894 866.796 402.877 868.831 401.859 869.848C401.859 868.831 401.859 867.813 402.877 866.796C402.877 866.796 402.877 866.796 403.894 866.796Z" fill="black"/>
<path fill-rule="evenodd" clip-rule="evenodd" d="M2705.19 331.662C2705.19 331.662 2705.19 331.662 2704.17 331.662C2704.17 331.662 2704.17 331.662 2704.17 330.645C2704.17 330.645 2705.19 331.662 2704.17 332.679L2705.19 331.662Z" fill="black"/>
<path fill-rule="evenodd" clip-rule="evenodd" d="M813.886 1862.8C813.886 1862.8 813.886 1863.81 812.869 1863.81C811.851 1863.81 810.834 1863.81 810.834 1861.78C810.834 1861.78 811.851 1860.76 812.869 1860.76C812.869 1860.76 813.886 1860.76 814.903 1862.8H813.886Z" fill="black"/>
<path fill-rule="evenodd" clip-rule="evenodd" d="M858.662 142.432C858.662 142.432 858.662 140.397 859.679 140.397C859.679 140.397 860.697 140.397 860.697 142.432V143.45C860.697 143.45 859.679 143.45 858.662 142.432Z" fill="black"/>
<path fill-rule="evenodd" clip-rule="evenodd" d="M1365.3 1513.84C1365.3 1513.84 1367.33 1514.86 1367.33 1515.88C1367.33 1515.88 1367.33 1516.9 1367.33 1517.91C1366.32 1517.91 1366.32 1517.91 1366.32 1515.88C1366.32 1514.86 1366.32 1513.84 1366.32 1512.83L1365.3 1513.84Z" fill="black"/>
<path fill-rule="evenodd" clip-rule="evenodd" d="M2542.4 1525.03C2542.4 1526.05 2542.4 1527.07 2540.36 1527.07C2540.36 1527.07 2539.34 1527.07 2539.34 1525.03C2539.34 1524.02 2539.34 1523 2540.36 1523C2541.38 1523 2542.4 1524.02 2542.4 1525.03Z" fill="black"/>
<path fill-rule="evenodd" clip-rule="evenodd" d="M1095.7 1897.39C1096.71 1897.39 1097.73 1897.39 1097.73 1898.41C1097.73 1898.41 1097.73 1899.42 1097.73 1900.44C1097.73 1900.44 1095.7 1900.44 1095.7 1899.42C1095.7 1899.42 1095.7 1898.41 1095.7 1897.39Z" fill="black"/>
<path fill-rule="evenodd" clip-rule="evenodd" d="M1373.45 1913.67V1914.69H1372.43C1372.43 1914.69 1372.43 1912.65 1373.45 1912.65V1913.67Z" fill="black"/>
<path fill-rule="evenodd" clip-rule="evenodd" d="M1752.92 1116.05H1751.9C1751.9 1116.05 1751.9 1115.03 1751.9 1114.02H1752.92V1116.05Z" fill="black"/>
<path fill-rule="evenodd" clip-rule="evenodd" d="M589.062 1398.88C589.062 1398.88 588.045 1398.88 588.045 1397.86C588.045 1396.85 588.045 1396.85 590.08 1396.85H591.097C591.097 1396.85 591.097 1397.86 590.08 1398.88H589.062Z" fill="black"/>
</g>
<defs>
<clipPath id="clip0_3955_37583">
<rect width="2848.63" height="1933" fill="white"/>
</clipPath>
</defs>
</svg>
