<svg width="80" height="80" viewBox="0 0 80 80" fill="none" xmlns="http://www.w3.org/2000/svg">
<path d="M72.6894 8.75H7.31063C5.4001 8.75 3.75628 10.1011 3.38634 11.9755L0.0849609 28.7022H6.25V71.25H73.75V28.7022H79.915L76.6137 11.9755C76.2437 10.1011 74.5999 8.75 72.6894 8.75ZM46.5625 68.75H33.4375V46.2495H46.5625V68.75ZM71.25 68.75H49.0625V47.7495C49.0625 45.5404 47.2716 43.7495 45.0625 43.7495H34.9375C32.7284 43.7495 30.9375 45.5404 30.9375 47.7495V68.75H8.75V28.75H71.25V68.75ZM3.12695 26.2022L6.07763 11.25H73.9224L76.873 26.2022H3.12695Z" fill="black"/>
</svg>
