<svg width="81" height="80" viewBox="0 0 81 80" fill="none" xmlns="http://www.w3.org/2000/svg">
<path fill-rule="evenodd" clip-rule="evenodd" d="M40.4999 3.90002C48.7399 3.90002 56.4899 7.11002 62.3299 12.95H62.3499L60.5799 14.72C55.2099 9.36002 48.0899 6.40002 40.5099 6.40002C32.9299 6.40002 25.7999 9.36002 20.4399 14.72L18.6699 12.95C24.4999 7.11002 32.2599 3.90002 40.4999 3.90002ZM73.8504 21.73H63.0704H63.0604V19.23H72.3404C74.5504 19.23 76.3404 21.02 76.3404 23.23V64.69C76.3404 66.9 74.5504 68.69 72.3404 68.69H64.7604L69.6804 73.61H76.3304V76.11H4.66039V73.61H11.3104L16.2304 68.69H8.65039C6.44039 68.69 4.65039 66.9 4.65039 64.69V23.23C4.65039 21.02 6.44039 19.23 8.65039 19.23H17.9304V21.73H7.15039V66.19H73.8504V21.73ZM14.8504 73.6H66.1504H66.1604L61.2404 68.68H19.7704L14.8504 73.6ZM53.9305 21.36L55.7005 19.59C55.624 19.5134 55.5439 19.4438 55.4624 19.3729L55.4623 19.3728L55.4622 19.3727C55.4055 19.3233 55.348 19.2734 55.2906 19.22C53.9005 17.9 52.3805 16.79 50.7705 15.92C44.3905 12.45 36.6205 12.45 30.2405 15.92C28.6305 16.8 27.1105 17.9 25.7205 19.22C25.6555 19.285 25.5855 19.345 25.5155 19.405C25.4455 19.465 25.3755 19.525 25.3105 19.59L27.0805 21.36C27.8805 20.56 28.7505 19.86 29.6505 19.23C32.3305 17.36 35.3705 16.25 38.5005 15.93C39.8305 15.79 41.1805 15.79 42.5105 15.93C45.6305 16.26 48.6805 17.37 51.3605 19.23C52.2605 19.86 53.1305 20.56 53.9305 21.36ZM33.1405 25.6999H33.1505C37.2105 21.6499 43.8005 21.6499 47.8505 25.7099H47.8605L48.6905 26.5399L40.5005 35.4999L32.3105 26.5399L33.1405 25.6999Z" fill="black"/>
</svg>
