<svg width="103" height="130" viewBox="0 0 103 130" fill="none" xmlns="http://www.w3.org/2000/svg">
<path d="M79.7071 103.02C72.4545 94.4186 73.8994 85.7558 75.1804 78.1062C76.3742 70.9317 77.4067 64.7396 72.091 58.4355C66.7682 52.1231 60.4906 52.0949 53.2246 52.0684C45.4686 52.039 36.6792 51.9918 29.4336 43.3991C22.181 34.798 23.626 26.1352 24.9069 18.4857C26.1008 11.3112 27.1333 5.11907 21.8176 -1.18502C16.4947 -7.49748 10.2172 -7.5256 2.95119 -7.55219C-4.80482 -7.58156 -13.5943 -7.62878 -20.8398 -16.2215C-28.0924 -24.8225 -26.6475 -33.4853 -25.3665 -41.1349C-24.1797 -48.3177 -23.1472 -54.5099 -28.47 -60.8223L-23.5156 -65C-16.263 -56.3989 -17.708 -47.7361 -18.989 -40.0866C-20.1828 -32.9121 -21.2153 -26.72 -15.8996 -20.4159C-10.5767 -14.1034 -4.29918 -14.0753 2.9668 -14.0487C10.7299 -14.011 19.5123 -13.9721 26.7578 -5.37945C34.0034 3.21322 32.5655 11.8844 31.2845 19.534C30.0906 26.7084 29.0581 32.9006 34.3739 39.2047C39.6896 45.5087 45.9743 45.5452 53.2402 45.5718C61.0033 45.6096 69.7928 45.6568 77.0383 54.2495C84.2909 62.8505 82.846 71.5133 81.565 79.1629C80.3711 86.3374 79.3386 92.5295 84.6544 98.8336L79.7 103.011L79.7071 103.02Z" fill="#FF808C"/>
<path d="M47.7007 130.008C40.4481 121.407 41.8931 112.744 43.1741 105.095C44.3679 97.9201 45.4004 91.728 40.0847 85.4239C34.7618 79.1114 28.4843 79.0833 21.2183 79.0567C13.4623 79.0274 4.67284 78.9801 -2.57271 70.3875C-9.82532 61.7864 -8.38035 53.1236 -7.09938 45.474C-5.90552 38.2996 -4.87302 32.1074 -10.1888 25.8033C-15.5116 19.4909 -21.7892 19.4628 -29.0551 19.4362C-36.8111 19.4068 -45.6006 19.3596 -52.8462 10.7669C-60.0988 2.16585 -58.6538 -6.49695 -57.3728 -14.1465C-56.179 -21.321 -55.1465 -27.5131 -60.4622 -33.8172L-55.5078 -37.9949C-48.2552 -29.3938 -49.7002 -20.731 -50.9811 -13.0815C-52.175 -5.90699 -53.2075 0.285151 -47.8918 6.58923C-42.5689 12.9017 -36.2914 12.9298 -29.0254 12.9564C-21.2694 12.9858 -12.4799 13.033 -5.23436 21.6257C2.01825 30.2267 0.573278 38.8895 -0.707688 46.5391C-1.90156 53.7136 -2.93405 59.9057 2.3817 66.2098C7.70452 72.5222 13.9821 72.5504 21.2481 72.577C29.0041 72.6063 37.7935 72.6535 45.0391 81.2462C52.2917 89.8473 50.8467 98.5101 49.5657 106.16C48.3719 113.334 47.3394 119.526 52.6551 125.83L47.7007 130.008Z" fill="#FF808C"/>
</svg>
